SplineFontDB: 3.0
FontName: OverlapBugs
FullName: Overlap Bugs
FamilyName: OverlapBugs
Weight: Medium
Copyright: Created by PfaEdit 1.0
Version: 001.000
ItalicAngle: 0
UnderlinePosition: -130
UnderlineWidth: 50
Ascent: 800
Descent: 200
LayerCount: 2
Layer: 0 0 "Back"  1
Layer: 1 0 "Fore"  0
NeedsXUIDChange: 1
OS2Version: 0
OS2_WeightWidthSlopeOnly: 0
OS2_UseTypoMetrics: 0
CreationTime: 1134356799
ModificationTime: 1295645990
OS2TypoAscent: 0
OS2TypoAOffset: 1
OS2TypoDescent: 0
OS2TypoDOffset: 1
OS2TypoLinegap: 0
OS2WinAscent: 0
OS2WinAOffset: 1
OS2WinDescent: 0
OS2WinDOffset: 1
HheadAscent: 0
HheadAOffset: 1
HheadDescent: 0
HheadDOffset: 1
OS2Vendor: 'PfEd'
MarkAttachClasses: 1
DEI: 91125
Encoding: ISO8859-1
UnicodeInterp: none
NameList: Adobe Glyph List
DisplaySize: -36
AntiAlias: 1
FitToEm: 0
WinInfo: 160 16 4
BeginChars: 272 128

StartChar: A
Encoding: 65 65 0
Width: 1000
Flags: HM
LayerCount: 2
Fore
SplineSet
284 423 m 1
 569 423 l 1
 580.04 423 589 414.04 589 403 c 128
 589 391.96 580.04 383 569 383 c 1
 284 383 l 1
 272.96 383 264 391.96 264 403 c 128
 264 414.04 272.96 423 284 423 c 1
701.387 12.682 m 1
 425.387 714.682 l 1
 421.347 724.956 426.408 736.574 436.682 740.613 c 0
 446.956 744.653 458.574 739.592 462.613 729.318 c 1
 738.613 27.318 l 1
 742.653 17.0435 737.592 5.42642 727.318 1.3869 c 0
 717.044 -2.65261 705.426 2.4076 701.387 12.682 c 1
796 0 m 1
 623 0 l 1
 611.96 1.35197e-15 603 8.96 603 20 c 0
 603 31.04 611.96 40 623 40 c 1
 796 40 l 1
 807.04 40 816 31.04 816 20 c 0
 816 8.96 807.04 -2.70393e-15 796 0 c 1
410 742 m 0
 604 742 l 1
 615.04 742 624 733.04 624 722 c 128
 624 710.96 615.04 702 604 702 c 1
 423.627 702 l 1
 152.613 12.682 l 1
 148.574 2.4076 136.956 -2.65261 126.682 1.3869 c 0
 116.408 5.42642 111.347 17.0435 115.387 27.318 c 1
 391.387 729.318 l 0
 395.782 738.101 400.218 741.124 410 742 c 0
58 40 m 1
 231 40 l 1
 242.04 40 251 31.04 251 20 c 0
 251 8.96 242.04 0 231 0 c 1
 58 0 l 1
 46.96 1.35197e-15 38 8.96 38 20 c 0
 38 31.04 46.96 40 58 40 c 1
EndSplineSet
EndChar

StartChar: B
Encoding: 66 66 1
Width: 1000
Flags: HM
LayerCount: 2
Fore
SplineSet
284 423 m 5
 569 423 l 5
 580.04 423 580 414.04 580 403 c 132
 580 391.96 580.04 383 569 383 c 5
 284 383 l 5
 272.96 383 273 391.96 273 403 c 132
 273 414.04 272.96 423 284 423 c 5
701.387 12.682 m 5
 425.387 714.682 l 5
 421.347 724.956 426.408 730.574 436.682 734.613 c 4
 446.956 738.653 458.574 739.592 462.613 729.318 c 5
 738.613 27.318 l 5
 742.653 17.0435 737.592 16.4268 727.318 12.3867 c 4
 717.044 8.34766 705.426 2.4076 701.387 12.682 c 5
796 0 m 5
 623 0 l 5
 611.96 1.35197e-15 603 8.96 603 20 c 4
 603 31.04 611.96 40 623 40 c 5
 796 40 l 5
 807.04 40 816 31.04 816 20 c 4
 816 8.96 807.04 -2.70393e-15 796 0 c 5
410 742 m 4
 604 742 l 5
 615.04 742 624 733.04 624 722 c 132
 624 710.96 615.04 702 604 702 c 5
 423.627 702 l 5
 152.613 12.682 l 5
 148.574 2.4076 136.956 8.34766 126.682 12.3867 c 4
 116.408 16.4268 111.347 17.0435 115.387 27.318 c 5
 391.387 729.318 l 4
 395.782 738.101 400.218 741.124 410 742 c 4
58 40 m 5
 231 40 l 5
 242.04 40 251 31.04 251 20 c 4
 251 8.96 242.04 0 231 0 c 5
 58 0 l 5
 46.96 1.35197e-15 38 8.96 38 20 c 4
 38 31.04 46.96 40 58 40 c 5
EndSplineSet
EndChar

StartChar: C
Encoding: 67 67 2
Width: 1000
Flags: HM
LayerCount: 2
Fore
SplineSet
701.387 12.682 m 1
 425.387 714.682 l 1
 421.347 724.956 426.408 736.574 436.682 740.613 c 0
 446.956 744.653 458.574 739.592 462.613 729.318 c 1
 738.613 27.318 l 1
 742.653 17.0435 737.592 5.42642 727.318 1.3869 c 0
 717.044 -2.65261 705.426 2.4076 701.387 12.682 c 1
410 742 m 1
 604 742 l 1
 615.04 742 624 733.04 624 722 c 128
 624 710.96 615.04 702 604 702 c 1
 410 702 l 1
 398.96 702 390 710.96 390 722 c 128
 390 733.04 398.96 742 410 742 c 1
EndSplineSet
EndChar

StartChar: D
Encoding: 68 68 3
Width: 1000
Flags: HM
LayerCount: 2
Fore
SplineSet
394 682 m 1
 394 194 l 1
 354 194 l 1
 354 682 l 1
 394 682 l 1
172 682 m 1
 562 682 l 1
 562 642 l 1
 172 642 l 1
 172 682 l 1
EndSplineSet
EndChar

StartChar: E
Encoding: 69 69 4
Width: 813
Flags: HMW
LayerCount: 2
Fore
SplineSet
126 536 m 1
 672 536 l 1
 672 447 l 1
 126 447 l 1
 126 536 l 1
125 60 m 25
 273 672 l 25
 354 672 l 25
 206 60 l 25
 125 60 l 25
EndSplineSet
EndChar

StartChar: F
Encoding: 70 70 5
Width: 777
Flags: HMW
LayerCount: 2
Fore
SplineSet
517 90 m 1
 953 90 l 1
 953 0 l 1
 402 0 l 1
 402 729 l 1
 953 729 l 1
 953 639 l 1
 517 639 l 1
 517 429 l 1
 905 429 l 1
 905 336 l 1
 517 336 l 1
 517 90 l 1
378 307 m 1
 378 599 l 1
 277 307 l 1
 378 307 l 1
438 729 m 5
 490 0 l 1
 378 0 l 1
 378 216 l 1
 246 216 l 1
 171 0 l 1
 59 0 l 1
 318 729 l 1
 438 729 l 5
EndSplineSet
EndChar

StartChar: G
Encoding: 71 71 6
Width: 777
Flags: HMW
LayerCount: 2
Fore
SplineSet
517 90 m 1
 953 90 l 1
 953 0 l 1
 405 36 l 1
 405 669 l 1
 953 729 l 1
 953 639 l 1
 517 639 l 1
 517 429 l 1
 905 429 l 5
 905 336 l 5
 517 336 l 1
 517 90 l 1
378 307 m 1
 378 599 l 1
 277 307 l 1
 378 307 l 1
438 729 m 1
 490 0 l 1
 378 0 l 1
 378 216 l 1
 246 216 l 1
 171 0 l 1
 59 0 l 1
 318 729 l 1
 438 729 l 1
EndSplineSet
EndChar

StartChar: H
Encoding: 72 72 7
Width: 777
Flags: HMW
LayerCount: 2
Fore
SplineSet
517 90 m 1
 953 90 l 1
 953 0 l 1
 401 27 l 1
 402 693 l 5
 953 729 l 1
 953 639 l 1
 517 639 l 1
 517 429 l 1
 905 429 l 1
 905 336 l 1
 517 336 l 1
 517 90 l 1
378 307 m 1
 378 599 l 1
 277 307 l 1
 378 307 l 1
438 729 m 1
 490 0 l 1
 378 0 l 1
 378 216 l 1
 246 216 l 1
 171 0 l 1
 59 0 l 1
 318 729 l 1
 438 729 l 1
EndSplineSet
EndChar

StartChar: I
Encoding: 73 73 8
Width: 777
Flags: HMW
LayerCount: 2
Fore
SplineSet
569.369 147.143 m 5
 965.752 328.738 l 5
 1003.24 246.916 l 5
 502.303 17.4229 l 5
 198.675 680.183 l 5
 699.608 909.674 l 5
 737.093 827.853 l 5
 340.71 646.258 l 5
 428.175 455.34 l 5
 780.92 616.943 l 5
 819.654 532.393 l 5
 466.909 370.791 l 5
 569.369 147.143 l 5
352.618 286.532 m 5
 231 552 l 5
 260.796 244.465 l 5
 352.618 286.532 l 5
231.403 695.177 m 5
 582.307 54.0762 l 5
 480.484 7.42676 l 5
 390.52 203.801 l 5
 270.514 148.823 l 5
 292.293 -78.7881 l 5
 190.47 -125.436 l 5
 122.307 645.198 l 5
 231.403 695.177 l 5
EndSplineSet
EndChar

StartChar: J
Encoding: 74 74 9
Width: 1000
Flags: HMW
LayerCount: 2
Fore
SplineSet
162 186 m 25
 435 621 l 25
 429 261 l 25
 162 186 l 25
 162 186 l 25
EndSplineSet
EndChar

StartChar: K
Encoding: 75 75 10
Width: 1000
Flags: HMW
LayerCount: 2
Fore
SplineSet
126 559 m 1
 126 472 l 1
 746 472 l 1
 746 559 l 1
 126 559 l 1
126 393 m 1
 126 306 l 1
 746 306 l 1
 746 393 l 1
 126 393 l 1
518 309 m 1
 518 0 l 1
 405 0 l 1
 405 310 l 1
 117 729 l 1
 240 729 l 1
 459 400 l 1
 667 729 l 1
 790 729 l 1
 518 309 l 1
EndSplineSet
EndChar

StartChar: L
Encoding: 76 76 11
Width: 1000
Flags: HM
LayerCount: 2
Fore
SplineSet
591 615 m 1
 591 93 l 1
 756 93 l 1
 756 615 l 1
 591 615 l 1
288 567 m 1
 1158 567 l 1
 1158 444 l 1
 288 444 l 1
 288 567 l 1
EndSplineSet
EndChar

StartChar: M
Encoding: 77 77 12
Width: 1000
Flags: HM
LayerCount: 2
Fore
SplineSet
221.237 600.931 m 1
 403.243 761.937 l 1
 784.886 330.515 l 5
 602.88 169.509 l 5
 221.237 600.931 l 1
131.357 521.422 m 1
 313.363 682.428 l 1
 695.006 251.006 l 1
 513 90 l 1
 131.357 521.422 l 1
EndSplineSet
EndChar

StartChar: N
Encoding: 78 78 13
Width: 777
Flags: HMW
LayerCount: 2
Fore
SplineSet
249 576 m 1
 450 576 l 1
 450 333 l 1
 249 333 l 1
 249 576 l 1
153 576 m 1
 354 576 l 1
 354 333 l 1
 153 333 l 1
 153 576 l 1
EndSplineSet
EndChar

StartChar: O
Encoding: 79 79 14
Width: 1000
Flags: HM
LayerCount: 2
Fore
SplineSet
122 0 m 29
 624 728 l 29
 708 728 l 29
 206 0 l 29
 122 0 l 29
172 361 m 6
 172 200 271 74 418 74 c 4
 564 74 663 200 663 361 c 4
 663 521 564 647 417 647 c 4
 271 647 172 521 172 360 c 6
 172 361 l 6
52 360 m 4
 52 583 197 745 417 745 c 4
 638 745 783 583 783 361 c 4
 783 138 638 -24 418 -24 c 4
 197 -24 52 138 52 360 c 4
EndSplineSet
EndChar

StartChar: P
Encoding: 80 80 15
Width: 854
Flags: HMW
LayerCount: 2
Fore
SplineSet
0 420 m 5
 318 420 l 5
 318 319 l 5
 0 319 l 5
 0 420 l 5
221 96 m 5
 364 96 l 6
 404 96 600 89 600 359 c 4
 600 628 474 643 317 643 c 6
 221 643 l 5
 221 96 l 5
370 729 m 6
 467 729 715 717 715 371 c 4
 715 22 450 0 368 0 c 6
 107 0 l 5
 107 729 l 5
 370 729 l 6
EndSplineSet
EndChar

StartChar: Q
Encoding: 81 81 16
Width: 712
Flags: HMW
LayerCount: 2
Fore
SplineSet
509 0 m 29
 509 708 l 29
 431 708 l 29
 89 249 l 29
 89 164 l 29
 623 164 l 29
 623 246 l 29
 194 246 l 29
 410 537 l 29
 410 0 l 29
 509 0 l 29
EndSplineSet
EndChar

StartChar: R
Encoding: 82 82 17
Width: 1123
Flags: HMW
LayerCount: 2
Back
SplineSet
99.6289 729 m 5
 212.629 729 l 5
 212.629 0 l 5
 99.6289 0 l 5
 99.6289 729 l 5
703.132 74 m 5
 849.132 74 948.132 200 948.132 361 c 4
 948.132 521 849.132 647 702.132 647 c 4
 556.132 647 456.85 510.94 457.132 360 c 28
 457.414 209.104 555.848 61.6484 703.132 74 c 5
337.132 360 m 4
 337.132 583 482.132 745 702.132 745 c 4
 923.132 745 1068.13 583 1068.13 361 c 4
 1068.13 138 923.132 -24 703.132 -24 c 4
 482.132 -24 337.132 138 337.132 360 c 4
356.43 409.84 m 5
 341.17 455.62 355.34 271.41 353.16 336.81 c 5
 201.65 336.81 l 5
 201.65 409.84 l 5
 356.43 409.84 l 5
EndSplineSet
Fore
SplineSet
99.6289 729 m 5
 212.629 729 l 5
 212.629 0 l 5
 99.6289 0 l 5
 99.6289 729 l 5
703.132 74 m 5
 849.132 74 948.132 200 948.132 361 c 4
 948.132 521 849.132 647 702.132 647 c 4
 556.132 647 456.85 510.94 457.132 360 c 28
 457.414 209.104 555.848 61.6484 703.132 74 c 5
337.132 360 m 4
 337.132 583 482.132 745 702.132 745 c 4
 923.132 745 1068.13 583 1068.13 361 c 4
 1068.13 138 923.132 -24 703.132 -24 c 4
 482.132 -24 337.132 138 337.132 360 c 4
356.43 409.84 m 5
 341.17 455.62 355.34 271.41 353.16 336.81 c 5
 201.65 336.81 l 5
 201.65 409.84 l 5
 356.43 409.84 l 5
EndSplineSet
EndChar

StartChar: S
Encoding: 83 83 18
Width: 1123
Flags: HMW
LayerCount: 2
Fore
SplineSet
337.132 360 m 4
 337.132 583 482.132 745 702.132 745 c 4
 923.132 745 1068.13 583 1068.13 361 c 4
 1068.13 138 923.132 -24 703.132 -24 c 4
 482.132 -24 337.132 138 337.132 360 c 4
356.43 409.84 m 5
 353.16 336.81 l 5
 201.65 336.81 l 5
 201.65 409.84 l 5
 356.43 409.84 l 5
EndSplineSet
EndChar

StartChar: T
Encoding: 84 84 19
Width: 1000
Flags: HMW
LayerCount: 2
Fore
SplineSet
848 0 m 1
 848 0 l 1
 848 0 l 1
 848 0 l 1
 848 0 l 1
560 506 m 1
 842 506 l 1
 842 444 l 1
 560 444 l 1
 560 506 l 1
672 0 m 1
 672 618 l 1
 742 618 l 1
 742.361 410.428 742 60 742 60 c 29
 742 60 789.333 59.9678 848 60 c 1
 848 0 l 1
 672 0 l 1
EndSplineSet
EndChar

StartChar: U
Encoding: 85 85 20
Width: 1000
Flags: HM
LayerCount: 2
Fore
SplineSet
183 336 m 25
 477 333 l 25
 480 219 l 25
 480 219 l 25
 480 219 l 25
 480 219 l 25
 480 219 l 25
 480 219 l 29
 171 192 l 25
 183 336 l 25
EndSplineSet
EndChar

StartChar: V
Encoding: 86 86 21
Width: 1000
Flags: HMW
LayerCount: 2
Fore
SplineSet
284 423 m 5
 569 423 l 5
 580.04 423 589 414.04 589 403 c 132
 589 391.96 580.04 383 569 383 c 5
 284 383 l 5
 272.96 383 264 391.96 264 403 c 132
 264 414.04 272.96 423 284 423 c 5
410 742 m 4
 604 742 l 5
 615.04 742 624 733.04 624 722 c 132
 624 710.96 615.04 702 604 702 c 5
 423.627 702 l 5
 152.613 12.682 l 5
 148.574 2.4076 136.956 -2.65261 126.682 1.3869 c 4
 116.408 5.42642 111.347 17.0435 115.387 27.318 c 5
 391.387 729.318 l 4
 395.782 738.101 400.218 741.124 410 742 c 4
EndSplineSet
EndChar

StartChar: W
Encoding: 87 87 22
Width: 1077
Flags: MW
LayerCount: 2
Fore
SplineSet
662.981 233.647 m 0
 658.582 380.387 807.382 349.647 816.582 265.837 c 8
 820.279 232.166 806.377 202.539 762.582 191.018 c 24
 732.305 183.052 687.382 188.407 688.182 213.347 c 1
 686.582 230.747 716.182 240.027 723.382 217.987 c 0
 727.763 204.578 707.382 200.007 705.782 216.247 c 0
 705.782 216.247 l 0
 712.182 200.587 722.229 210.992 720.182 217.987 c 0
 714.582 237.126 688.182 226.688 692.182 213.347 c 1
 687.382 190.728 738.582 184.347 762.582 193.626 c 0
 801.738 208.768 796.981 244.667 796.981 265.547 c 0
 796.981 342.688 672.182 381.547 662.981 233.647 c 8
 662.981 233.647 663.413 219.251 662.981 233.647 c 0
324.343 570 m 0
 328.741 423.261 179.941 454 170.741 537.811 c 8
 167.044 571.481 180.945 601.108 224.741 612.63 c 24
 255.019 620.596 299.941 615.24 299.142 590.301 c 1
 300.741 572.9 271.142 563.62 263.941 585.66 c 0
 259.561 599.069 279.941 603.641 281.541 587.4 c 0
 281.541 587.4 l 0
 275.142 603.061 265.096 592.655 267.142 585.66 c 0
 272.741 566.521 299.142 576.96 295.142 590.301 c 1
 299.941 612.92 248.741 619.301 224.741 610.021 c 0
 185.585 594.88 190.343 558.98 190.343 538.101 c 0
 190.343 460.96 315.142 422.101 324.343 570 c 8
 324.343 570 323.91 584.396 324.343 570 c 0
982.566 797.91 m 29
 369.562 711.956 460.543 40.5439 4.75781 5.7373 c 29
 4.75781 5.7373 l 29
 473.074 4.08105 413.828 713.466 982.566 797.91 c 29
 982.566 797.91 l 29
EndSplineSet
EndChar

StartChar: X
Encoding: 88 88 23
Width: 1077
Flags: HMW
LayerCount: 2
Fore
SplineSet
982.566 797.91 m 29
 413.828 713.466 473.074 4.08105 4.75781 5.7373 c 29
 460.543 40.5439 369.562 711.956 982.566 797.91 c 29
EndSplineSet
EndChar

StartChar: Y
Encoding: 89 89 24
Width: 1083
Flags: HMW
LayerCount: 2
Fore
SplineSet
752.614 804 m 20
 932.614 676 1008.62 662 1020.62 728 c 4
 1031.14 785.906 962.614 786 964.614 748 c 4
 966.191 718.041 983.217 727.593 978.614 746 c 4
 972.614 770 1016.62 774 1008.62 732 c 4
 999.25 682.844 986.614 666 752.614 804 c 12
 752.614 804 l 20
752.614 804 m 21
 794.614 696 815.614 6 815.614 6 c 21
 833.614 290 837.614 650 862.614 738 c 13
 752.614 804 l 21
407.614 802 m 29
 735.496 808.634 755.614 264 815.614 6 c 13
 740.258 565.15 668.19 809.769 407.614 802 c 29
407.614 802 m 21
 449.614 694 470.614 4 470.614 4 c 21
 488.614 288 484.614 698 509.614 786 c 13
 475.614 799.899 441.614 801.35 407.614 802 c 21
64.6143 798 m 29
 392.496 804.634 412.614 260 472.614 2 c 13
 397.258 561.15 325.19 805.769 64.6143 798 c 29
64.6143 798 m 21
 106.614 690 127.614 0 127.614 0 c 21
 145.614 284 141.614 694 166.614 782 c 13
 132.614 795.9 98.6143 797.35 64.6143 798 c 21
EndSplineSet
EndChar

StartChar: Z
Encoding: 90 90 25
Width: 1109
Flags: HMW
LayerCount: 2
Fore
SplineSet
33.4502 797.91 m 21
 1014.79 797.91 l 5
 670.616 777.173 130.525 710.812 35.2158 640.305 c 13
 33.4502 797.91 l 21
EndSplineSet
EndChar

StartChar: bracketleft
Encoding: 91 91 26
Width: 1109
Flags: HMW
LayerCount: 2
Fore
SplineSet
1014.79 797.91 m 1
 401.786 711.956 492.767 40.5439 36.9805 5.7373 c 1
 36.9805 5.7373 l 1
 505.297 4.08105 446.05 713.466 1014.79 797.91 c 1
 1014.79 797.91 l 1
1018.32 5.7373 m 1
 36.9805 5.7373 l 1
 381.156 26.4746 921.246 92.835 1016.56 163.343 c 5
 1018.32 5.7373 l 1
EndSplineSet
EndChar

StartChar: backslash
Encoding: 92 92 27
Width: 1000
Flags: HMW
LayerCount: 2
Fore
SplineSet
105 262 m 25
 200 262 l 25
 105 0 l 25
 105 262 l 25
0 495 m 25
 200 495 l 25
 0 0 l 25
 0 495 l 25
EndSplineSet
EndChar

StartChar: bracketright
Encoding: 93 93 28
Width: 1000
Flags: HMW
LayerCount: 2
Fore
SplineSet
285 0 m 5
 285 756 l 5
 489 756 l 5
 489 0 l 5
 285 0 l 5
0 756 m 5
 777 756 l 5
 777 642 l 5
 0 642 l 5
 0 756 l 5
EndSplineSet
EndChar

StartChar: asciicircum
Encoding: 94 94 29
Width: 1000
Flags: HMW
LayerCount: 2
Fore
SplineSet
285 0 m 1
 285 642 l 1
 489 642 l 1
 489 0 l 1
 285 0 l 1
0 756 m 1
 777 756 l 1
 777 642 l 1
 0 642 l 1
 0 756 l 1
EndSplineSet
EndChar

StartChar: underscore
Encoding: 95 95 30
Width: 1000
Flags: HMW
LayerCount: 2
Fore
SplineSet
-952.462 4708.31 m 5
 -782.757 4779.02 -584.767 4878.02 -330.208 5005.3 c 5
 504.178 5839.68 l 5
 362.756 6122.53 l 5
 362.756 6136.67 376.898 6150.81 383.97 6157.88 c 4
 405.183 6179.1 1218.36 6384.16 1317.35 6285.16 c 4
 1415.56 6186.95 1296.13 5988.16 1253.71 5882.11 c 5
 1529.48 5295.21 1784.04 4602.25 2017.39 3774.93 c 5
 3735.66 3371.88 4471.05 3074.9 4951.88 2594.06 c 4
 5630.7 1915.24 5743.84 967.719 5319.57 543.455 c 4
 5234.72 458.602 5142.8 451.53 5050.88 543.455 c 4
 4909.45 684.876 4654.89 628.308 4280.13 366.678 c 5
 4237.7 366.678 4209.42 366.678 4188.2 387.891 c 4
 4174.06 402.033 4166.99 437.389 4166.99 479.814 c 5
 4760.96 1073.79 l 6
 5065.02 1377.84 4958.95 1696.04 4499.33 2240.51 c 5
 4025.57 2714.27 3191.18 3138.54 1883.04 3584.01 c 5
 1826.47 3640.58 l 5
 1451.7 4383.04 1062.79 5040.65 659.741 5613.41 c 5
 -217.071 4736.6 l 5
 3792.22 727.303 l 6
 4619.54 -100.013 5149.87 -616.2 5383.21 -821.262 c 4
 5503.42 -941.47 5425.64 -1259.67 5270.08 -1415.23 c 4
 5199.37 -1485.94 5107.44 -1464.73 5065.02 -1422.3 c 4
 4697.32 -1012.18 3806.37 -92.9414 2392.15 1321.27 c 6
 -323.138 4036.56 l 6
 -549.411 4262.84 -754.473 4439.61 -938.32 4566.89 c 4
 -987.817 4616.39 -980.746 4665.89 -952.462 4708.31 c 5
249.619 -1584.94 m 5
 1883.04 48.4795 l 5
 1416.35 515.17 l 5
 -217.071 -1118.25 l 5
 249.619 -1584.94 l 5
-1051.46 2445.57 m 5
 -1086.81 2848.62 -1086.81 2919.33 -1072.67 2933.48 c 4
 -987.817 3018.33 -379.706 3018.33 -323.138 2975.9 c 4
 -287.782 2940.55 -287.782 2869.84 -323.138 2792.05 c 5
 -952.462 2162.73 l 5
 -485.771 1696.04 l 5
 -118.076 2063.73 l 5
 -160.503 2332.43 l 6
 -160.503 2346.58 -160.503 2360.72 -153.432 2367.79 c 4
 -125.147 2396.07 560.746 2516.28 645.599 2431.43 c 4
 666.812 2410.22 673.883 2374.86 673.883 2346.58 c 6
 652.67 2084.95 l 5
 2370.94 366.678 l 6
 2491.15 246.47 2455.79 -15.1602 2314.37 -156.581 c 4
 2229.52 -241.434 2130.52 -199.008 2081.03 -149.51 c 5
 447.609 -1782.93 l 5
 596.102 -1931.42 511.249 -2200.12 369.827 -2341.54 c 4
 306.188 -2405.18 207.192 -2405.18 150.624 -2348.61 c 4
 -26.1523 -2129.41 -280.711 -1860.71 -605.979 -1535.44 c 6
 -1921.2 -220.221 l 6
 -2041.41 -100.013 -2161.62 -8.08887 -2260.61 48.4795 c 5
 -2310.11 97.9775 -2324.25 140.403 -2281.82 182.83 c 5
 -2140.4 253.541 -1935.34 359.606 -1666.64 515.17 c 5
 -832.254 1349.56 l 5
 -1298.94 1816.25 l 5
 -1631.29 1483.91 l 5
 -563.554 416.176 -386.777 126.262 -506.985 -686.911 c 5
 -521.127 -715.195 -521.127 -729.338 -535.27 -743.479 c 4
 -549.411 -757.622 -563.554 -757.622 -577.695 -743.479 c 4
 -591.838 -729.338 -598.909 -708.124 -613.051 -679.84 c 4
 -740.33 -170.724 -825.183 -15.1602 -1977.77 1137.42 c 5
 -2175.76 939.435 -2196.97 918.221 -2373.75 684.876 c 5
 -2493.96 748.516 -2600.02 783.871 -2699.02 783.871 c 5
 -2727.3 840.439 l 5
 -2493.96 1031.36 -2274.75 1222.28 -2069.69 1427.34 c 6
 -1051.46 2445.57 l 5
-1560.57 225.257 m 5
 -407.99 -927.327 l 5
 1225.43 706.089 l 5
 963.797 967.719 l 5
 709.238 713.16 l 5
 369.827 444.46 44.5586 472.744 -280.711 798.013 c 6
 -634.265 1151.57 l 5
 -1560.57 225.257 l 5
2625.5 -609.13 m 5
 2583.07 -184.865 2583.07 -142.439 2590.14 -135.368 c 4
 2646.71 -78.7998 2894.2 -57.5859 3346.75 -71.7285 c 5
 3403.32 -128.297 3417.46 -156.581 3367.96 -248.505 c 5
 1175.93 -2440.54 l 6
 744.594 -2871.87 702.168 -2928.44 461.751 -3239.57 c 5
 334.472 -3183 214.264 -3147.64 94.0557 -3140.57 c 5
 65.7715 -3084 l 5
 391.041 -2815.3 702.168 -2532.46 985.011 -2249.62 c 6
 2625.5 -609.13 l 5
58.7002 1151.57 m 6
 297.591 912.677 371.47 1096.64 603.173 1328.34 c 5
 72.8428 1858.67 l 5
 -287.782 1498.05 l 5
 58.7002 1151.57 l 6
-2656.59 3329.46 m 5
 -2691.95 3336.53 -2706.09 3336.53 -2720.23 3350.67 c 4
 -2748.51 3378.95 -2734.37 3421.38 -2691.95 3463.81 c 5
 -1397.94 3895.14 -754.473 3987.06 -549.411 3782 c 4
 -450.416 3683.01 -464.559 3456.73 -556.482 3364.81 c 4
 -641.335 3279.96 -874.681 3272.89 -1249.45 3336.53 c 4
 -1595.93 3400.17 -2013.12 3435.52 -2656.59 3329.46 c 5
2088.1 -2207.19 m 5
 2031.53 -2037.49 l 5
 2816.42 -1662.72 3990.21 -1238.45 4336.7 -1584.94 c 4
 4449.83 -1698.07 4449.83 -1811.21 4329.62 -1931.42 c 4
 4195.28 -2065.77 3997.29 -2108.2 3707.37 -2058.7 c 4
 3120.47 -1952.63 2738.63 -1995.06 2088.1 -2207.19 c 5
970.868 -1203.1 m 4
 1614.33 -771.764 1628.48 -757.622 1649.69 -778.835 c 4
 1706.28 -835.424 1633.68 -1050.47 1614.33 -1139.46 c 5
 2356.8 -2122.34 2441.65 -3423.41 1847.68 -4823.49 c 5
 1798.18 -4872.98 1755.76 -4887.12 1734.54 -4865.91 c 4
 1720.4 -4851.77 1713.33 -4816.42 1713.33 -4788.13 c 4
 2066.88 -3388.06 1854.75 -2270.83 1098.15 -1401.09 c 5
 1034.51 -1365.73 970.868 -1316.24 956.727 -1302.09 c 4
 928.441 -1273.81 935.513 -1238.45 970.868 -1203.1 c 4
-3321.27 -234.363 m 5
 -3165.71 -78.7998 l 5
 -3208.13 274.754 -3215.2 324.252 -3201.06 338.394 c 4
 -3151.56 387.891 -2649.52 366.678 -2571.74 303.038 c 4
 -2536.38 267.683 -2536.38 211.114 -2571.74 133.333 c 5
 -3130.35 -425.281 l 5
 1006.22 -4561.86 l 5
 1239.57 -4880.05 1239.57 -5403.31 1020.37 -5622.52 c 4
 942.584 -5700.3 857.731 -5686.16 765.808 -5594.23 c 4
 631.457 -5459.88 383.97 -5523.52 2.13184 -5792.22 c 5
 -54.4365 -5806.36 -89.792 -5799.29 -103.935 -5785.15 c 4
 -125.147 -5763.94 -132.219 -5728.58 -118.076 -5672.01 c 5
 426.396 -5127.54 l 6
 532.462 -5021.48 532.462 -4908.34 426.396 -4788.13 c 5
 -3533.4 -828.333 l 5
 -3929.38 -1224.31 -3943.52 -1252.6 -4169.8 -1549.58 c 5
 -4290.01 -1471.8 -4417.29 -1429.37 -4516.28 -1415.23 c 5
 -4544.56 -1358.66 l 5
 -4233.44 -1118.25 -4021.31 -934.398 -3724.32 -637.414 c 5
 -4735.48 373.749 l 6
 -5039.54 677.805 -5244.6 854.582 -5364.81 904.079 c 5
 -5400.16 939.435 -5414.31 981.86 -5364.81 1045.5 c 5
 -4721.34 1519.26 -4700.13 1540.47 -4664.77 1505.12 c 4
 -4603.21 1443.56 -4653.37 1223.17 -4664.77 1109.14 c 5
 -3321.27 -234.363 l 5
-3505.12 2353.65 m 4
 -3561.69 2410.22 -3561.69 2410.22 -3498.05 2473.86 c 5
 -3250.56 2551.64 -3024.29 2636.49 -2805.08 2742.56 c 5
 -2762.66 2742.56 -2734.37 2742.56 -2720.23 2728.41 c 4
 -2652.5 2660.69 -2793.54 2476.71 -2847.51 2389 c 5
 -2762.66 1653.61 -2840.44 571.739 -2981.86 402.033 c 4
 -3010.14 373.749 -3038.43 373.749 -3052.57 387.891 c 4
 -3066.71 402.033 -3073.78 423.246 -3080.85 458.602 c 4
 -3095 1080.86 -3356.62 2205.16 -3505.12 2353.65 c 4
-1412.08 -884.901 m 5
 -1362.58 -835.403 -1334.3 -821.262 -1313.09 -842.475 c 4
 -1242.38 -913.186 -1249.45 -934.398 -1899.99 -3168.86 c 5
 -1851.92 -3261.29 -1734.88 -3456.29 -1793.92 -3515.34 c 4
 -1815.13 -3536.55 -1857.56 -3536.55 -1914.13 -3522.41 c 5
 -2154.54 -3409.27 -2380.82 -3338.56 -2607.09 -3296.13 c 5
 -2720.23 -3183 -2727.3 -3175.93 -2691.95 -3140.57 c 4
 -2380.82 -2829.45 -2232.33 -2581.96 -1412.08 -884.901 c 5
EndSplineSet
EndChar

StartChar: a
Encoding: 97 97 31
Width: 672
Flags: MW
LayerCount: 2
Fore
SplineSet
120.585 54 m 8
 122.176 63.543 147.192 66.3164 144.585 57 c 16
 123.585 -18 51.3096 11.9688 54.585 48 c 16
 63.585 147 342.585 129 546.585 45 c 0
 649.822 2.49023 549.585 30 549.585 30 c 0
 342.585 123 93.585 126 72.585 51 c 8
 67.3984 32.4746 111.585 0 120.585 54 c 8
138.585 687 m 17
 180.585 579 204.585 102 204.585 102 c 17
 222.585 386 233.585 599 258.585 687 c 9
 138.585 687 l 17
EndSplineSet
EndChar

StartChar: accordion.accOldEE
Encoding: 256 -1 32
Width: 265
Flags: HMW
TeX: 78 0
LayerCount: 2
Fore
SplineSet
-47 410 m 0
 -47 436 -26 457 0 457 c 0
 26 457 47 436 47 410 c 0
 47 384 26 363 0 363 c 0
 -26 363 -47 384 -47 410 c 0
-47 110 m 0
 -47 136 -26 157 0 157 c 0
 26 157 47 136 47 110 c 0
 47 84 26 63 0 63 c 0
 -26 63 -47 84 -47 110 c 0
-20 410 m 1
 20 410 l 1
 8 260 l 1
 20 110 l 1
 -20 110 l 1
 -8 260 l 1
 -20 410 l 1
-153 366 m 0
 -153 392 -132 413 -106 413 c 0
 -80 413 -59 392 -59 366 c 0
 -59 340 -80 319 -106 319 c 0
 -132 319 -153 340 -153 366 c 0
59 154 m 0
 59 180 80 201 106 201 c 0
 132 201 153 180 153 154 c 0
 153 128 132 107 106 107 c 0
 80 107 59 128 59 154 c 0
-120 352 m 1
 -92 380 l 1
 6 265 l 1
 120 168 l 1
 92 140 l 1
 -6 254 l 1
 -120 352 l 1
-197 260 m 0
 -197 286 -176 307 -150 307 c 0
 -124 307 -103 286 -103 260 c 0
 -103 234 -124 213 -150 213 c 0
 -176 213 -197 234 -197 260 c 0
103 260 m 0
 103 286 124 307 150 307 c 0
 176 307 197 286 197 260 c 0
 197 234 176 213 150 213 c 0
 124 213 103 234 103 260 c 0
-150 240 m 1
 -150 279 l 1
 0 268 l 1
 150 279 l 1
 150 240 l 1
 0 252 l 1
 -150 240 l 1
-153 154 m 0
 -153 180 -132 201 -106 201 c 0
 -80 201 -59 180 -59 154 c 0
 -59 128 -80 107 -106 107 c 0
 -132 107 -153 128 -153 154 c 0
59 366 m 0
 59 392 80 413 106 413 c 0
 132 413 153 392 153 366 c 0
 153 340 132 319 106 319 c 0
 80 319 59 340 59 366 c 0
-92 140 m 1
 -120 168 l 1
 -6 265 l 1
 92 380 l 1
 120 352 l 1
 6 254 l 1
 -92 140 l 1
-47 110 m 0
 -47 136 -26 157 0 157 c 0
 26 157 47 136 47 110 c 0
 47 84 26 63 0 63 c 0
 -26 63 -47 84 -47 110 c 0
-47 410 m 0
 -47 436 -26 457 0 457 c 0
 26 457 47 436 47 410 c 0
 47 384 26 363 0 363 c 0
 -26 363 -47 384 -47 410 c 0
20 110 m 1
 -20 110 l 1
 -8 260 l 1
 -20 410 l 1
 20 410 l 1
 8 260 l 1
 20 110 l 1
-39 260 m 0
 -39 281 -22 299 0 299 c 0
 22 299 39 281 39 260 c 0
 39 238 22 221 0 221 c 0
 -22 221 -39 238 -39 260 c 0
236 260 m 1
 236 392 131 500 0 500 c 0
 -131 500 -236 392 -236 260 c 0
 -236 128 -131 20 0 20 c 0
 131 20 236 128 236 260 c 1
 264 260 l 1
 264 116 145 0 0 0 c 0
 -145 0 -264 116 -264 260 c 0
 -264 404 -145 520 0 520 c 0
 145 520 264 404 264 260 c 1
 236 260 l 1
EndSplineSet
EndChar

StartChar: accordion.accStdbase
Encoding: 257 -1 33
Width: 516
Flags: HMW
TeX: 78 0
LayerCount: 2
Fore
SplineSet
486 510 m 1
 486 780 269 1000 0 1000 c 0
 -269 1000 -486 780 -486 510 c 0
 -486 240 -269 20 0 20 c 0
 269 20 486 240 486 510 c 1
 514 510 l 1
 514 227 283 0 0 0 c 0
 -283 0 -514 227 -514 510 c 0
 -514 792 -283 1020 0 1020 c 0
 283 1020 514 792 514 510 c 1
 486 510 l 1
-500 520 m 1
 500 520 l 1
 500 500 l 1
 -500 500 l 1
 -500 520 l 1
-439 270 m 1
 439 270 l 1
 439 250 l 1
 -439 250 l 1
 -439 270 l 1
-439 770 m 1
 439 770 l 1
 439 750 l 1
 -439 750 l 1
 -439 770 l 1
EndSplineSet
EndChar

StartChar: accordion.accFreebase
Encoding: 258 -1 34
Width: 265
Flags: HMW
TeX: 78 0
LayerCount: 2
Fore
SplineSet
236 260 m 1
 236 392 131 500 0 500 c 0
 -131 500 -236 392 -236 260 c 0
 -236 128 -131 20 0 20 c 0
 131 20 236 128 236 260 c 1
 264 260 l 1
 264 116 145 0 0 0 c 0
 -145 0 -264 116 -264 260 c 0
 -264 404 -145 520 0 520 c 0
 145 520 264 404 264 260 c 1
 236 260 l 1
-250 270 m 1
 250 270 l 1
 250 250 l 1
 -250 250 l 1
 -250 270 l 1
EndSplineSet
EndChar

StartChar: flags.d4
Encoding: 259 -1 35
Width: 270
Flags: HMW
TeX: 78 0
LayerCount: 2
Fore
SplineSet
0 425 m 1
 0 225 l 1
 0 410 269 479 269 665 c 0
 269 691 264 717 255 742 c 0
 244 762 213 751 217 728 c 0
 225 708 230 686 230 665 c 0
 230 557 99 476 0 425 c 1
0 200 m 1
 0 0 l 1
 0 182 255 258 255 440 c 0
 255 480 244 520 226 556 c 0
 215 577 184 565 188 542 c 1
 206 511 216 476 216 440 c 0
 216 335 93 253 0 200 c 1
-14 0 m 1
 0 0 l 1
 0 500 l 1
 -14 500 l 1
 -14 0 l 1
EndSplineSet
EndChar

StartChar: flags.d5
Encoding: 260 -1 36
Width: 270
Flags: HMW
TeX: 78 0
LayerCount: 2
Fore
SplineSet
0 660 m 1
 0 450 l 1
 0 634 269 701 269 886 c 0
 269 912 264 938 255 963 c 0
 244 983 213 971 217 948 c 0
 225 928 230 907 230 886 c 0
 230 780 99 706 0 660 c 1
0 435 m 1
 0 225 l 1
 0 407 261 478 261 661 c 0
 261 702 248 743 226 778 c 0
 215 799 184 787 188 764 c 1
 209 734 222 698 222 661 c 0
 222 558 96 482 0 435 c 1
0 210 m 1
 0 0 l 1
 0 185 248 273 248 457 c 0
 248 492 237 525 220 554 c 0
 208 575 177 563 181 540 c 1
 198 516 209 487 209 457 c 0
 209 353 90 267 0 210 c 1
-14 0 m 1
 0 0 l 1
 0 750 l 1
 -14 750 l 1
 -14 0 l 1
EndSplineSet
EndChar

StartChar: flags.d6
Encoding: 261 -1 37
Width: 270
Flags: HMW
TeX: 78 0
LayerCount: 2
Fore
SplineSet
0 875 m 1
 0 675 l 1
 0 839 269 861 269 1026 c 0
 269 1046 267 1067 263 1088 c 0
 252 1108 221 1096 225 1073 c 0
 228 1058 230 1042 230 1026 c 0
 230 934 100 890 0 875 c 1
0 650 m 1
 0 450 l 1
 0 628 261 692 261 871 c 0
 261 902 255 933 247 963 c 0
 235 983 204 972 208 949 c 0
 217 924 222 897 222 871 c 0
 222 769 96 695 0 650 c 1
0 425 m 1
 0 225 l 1
 0 412 253 501 253 688 c 0
 253 726 248 763 239 800 c 0
 228 820 197 809 201 786 c 0
 209 754 214 721 214 688 c 0
 214 579 92 487 0 425 c 1
0 205 m 1
 0 5 l 1
 0 193 230 302 230 490 c 0
 230 527 229 563 227 600 c 1
 215 620 184 609 188 586 c 0
 190 554 191 522 191 490 c 0
 191 381 82 278 0 205 c 1
-14 0 m 1
 0 0 l 1
 0 1000 l 1
 -14 1000 l 1
 -14 0 l 1
EndSplineSet
EndChar

StartChar: flags.u5
Encoding: 262 -1 38
Width: 209
Flags: HMW
TeX: 78 0
LayerCount: 2
Fore
SplineSet
0 -647 m 1
 0 -435 l 1
 0 -609 209 -713 209 -887 c 0
 209 -948 193 -1007 167 -1062 c 0
 155 -1083 124 -1071 128 -1048 c 0
 154 -998 170 -943 170 -887 c 0
 170 -793 73 -707 0 -647 c 1
0 -430 m 1
 0 -217 l 1
 0 -390 202 -497 202 -669 c 0
 202 -708 192 -746 176 -780 c 0
 164 -801 133 -789 137 -766 c 1
 153 -736 163 -703 163 -669 c 0
 163 -577 70 -491 0 -430 c 1
0 -213 m 1
 0 0 l 1
 0 -177 192 -297 192 -474 c 0
 192 -505 184 -536 170 -564 c 0
 159 -584 128 -572 132 -549 c 1
 145 -527 153 -501 153 -474 c 0
 153 -379 66 -282 0 -213 c 1
-14 0 m 1
 0 0 l 1
 0 -750 l 1
 -14 -750 l 1
 -14 0 l 1
EndSplineSet
EndChar

StartChar: flags.u6
Encoding: 263 -1 39
Width: 209
Flags: HMW
TeX: 78 0
LayerCount: 2
Fore
SplineSet
0 -887 m 1
 0 -675 l 1
 0 -851 209 -958 209 -1134 c 0
 209 -1196 193 -1256 167 -1312 c 0
 155 -1333 124 -1321 128 -1298 c 0
 154 -1247 170 -1191 170 -1134 c 0
 170 -1039 73 -950 0 -887 c 1
0 -662 m 1
 0 -450 l 1
 0 -625 202 -734 202 -909 c 0
 202 -944 187 -978 163 -1004 c 0
 151 -1024 120 -1012 124 -989 c 1
 148 -969 163 -940 163 -909 c 0
 163 -815 70 -726 0 -662 c 1
0 -438 m 1
 0 -225 l 1
 0 -400 202 -509 202 -684 c 0
 202 -725 190 -765 170 -801 c 0
 159 -822 128 -810 132 -787 c 1
 151 -756 163 -721 163 -684 c 0
 163 -590 70 -501 0 -438 c 1
0 -213 m 1
 0 0 l 1
 0 -179 192 -303 192 -482 c 0
 192 -515 184 -547 170 -577 c 0
 159 -597 128 -586 132 -563 c 0
 145 -538 153 -510 153 -482 c 0
 153 -384 66 -285 0 -213 c 1
-14 0 m 1
 0 0 l 1
 0 -1000 l 1
 -14 -1000 l 1
 -14 0 l 1
EndSplineSet
EndChar

StartChar: scripts.lineprall
Encoding: 264 -1 40
Width: 314
Flags: HMW
TeX: 78 0
LayerCount: 2
Fore
SplineSet
-288 2 m 1
 -297 -11 l 1
 -328 11 l 1
 -258 117 l 2
 -254 122 -248 125 -242 125 c 0
 -236 125 -231 122 -227 118 c 2
 -128 -2 l 1
 -120 11 l 1
 -88 -11 l 1
 -159 -117 l 2
 -163 -122 -168 -125 -175 -125 c 0
 -181 -125 -186 -122 -189 -118 c 2
 -288 2 l 1
-320 -45 m 2
 -323 -50 -329 -54 -336 -54 c 0
 -346 -54 -355 -45 -355 -35 c 0
 -355 -31 -353 -27 -351 -24 c 2
 -328 11 l 1
 -297 -11 l 1
 -320 -45 l 2
-355 465 m 2
 -355 476 -346 484 -336 484 c 0
 -325 484 -317 476 -317 465 c 2
 -317 -35 l 1
 -355 -35 l 1
 -355 465 l 2
-80 2 m 1
 -88 -11 l 1
 -120 11 l 1
 -49 117 l 2
 -46 122 -40 125 -33 125 c 0
 -28 125 -22 122 -19 118 c 2
 80 -2 l 1
 88 11 l 1
 120 -11 l 1
 49 -117 l 2
 46 -122 40 -125 33 -125 c 0
 28 -125 22 -122 19 -118 c 2
 -80 2 l 1
128 2 m 1
 120 -11 l 1
 88 11 l 1
 159 117 l 2
 163 122 168 125 175 125 c 0
 181 125 186 122 189 118 c 2
 288 -2 l 1
 297 11 l 1
 328 -11 l 1
 258 -117 l 2
 254 -122 248 -125 242 -125 c 0
 236 -125 231 -122 227 -118 c 2
 128 2 l 1
320 45 m 2
 323 50 329 54 336 54 c 0
 346 54 355 45 355 35 c 0
 355 31 353 27 351 24 c 2
 328 -11 l 1
 297 11 l 1
 320 45 l 2
EndSplineSet
EndChar

StartChar: scripts.varcoda
Encoding: 265 -1 41
Width: 252
Flags: HMW
TeX: 78 0
LayerCount: 2
Fore
SplineSet
117 224 m 2
 -117 224 l 2
 -121 224 -125 228 -125 232 c 2
 -125 242 l 2
 -125 246 -121 250 -117 250 c 2
 117 250 l 2
 121 250 125 246 125 242 c 2
 125 232 l 2
 125 228 121 224 117 224 c 2
-90 -250 m 2
 -159 -250 l 2
 -163 -250 -167 -246 -167 -242 c 2
 -167 242 l 2
 -167 246 -163 250 -159 250 c 2
 -90 250 l 2
 -86 250 -83 246 -83 242 c 2
 -83 -242 l 2
 -83 -246 -86 -250 -90 -250 c 2
-117 -224 m 2
 117 -224 l 2
 121 -224 125 -228 125 -232 c 2
 125 -242 l 2
 125 -246 121 -250 117 -250 c 2
 -117 -250 l 2
 -121 -250 -125 -246 -125 -242 c 2
 -125 -232 l 2
 -125 -228 -121 -224 -117 -224 c 2
90 250 m 2
 159 250 l 2
 163 250 167 246 167 242 c 2
 167 -242 l 2
 167 -246 163 -250 159 -250 c 2
 90 -250 l 2
 86 -250 83 -246 83 -242 c 2
 83 242 l 2
 83 246 86 250 90 250 c 2
0 -347 m 0
 -7 -347 -13 -341 -13 -334 c 2
 -13 334 l 2
 -13 341 -7 347 0 347 c 0
 7 347 13 341 13 334 c 2
 13 -334 l 2
 13 -341 7 -347 0 -347 c 0
251 -13 m 2
 -251 -13 l 2
 -258 -13 -264 -7 -264 0 c 0
 -264 7 -258 13 -251 13 c 2
 251 13 l 2
 258 13 264 7 264 0 c 0
 264 -7 258 -13 251 -13 c 2
EndSplineSet
EndChar

StartChar: scripts.coda
Encoding: 266 -1 42
Width: 255
Flags: HMW
TeX: 78 0
LayerCount: 2
Fore
SplineSet
-167 0 m 1
 -167 125 -111 250 0 250 c 0
 111 250 167 125 167 0 c 0
 167 -125 111 -250 0 -250 c 0
 -111 -250 -167 -125 -167 0 c 1
 -93 0 l 1
 -93 -105 -90 -224 0 -224 c 0
 90 -224 93 -105 93 0 c 0
 93 105 90 224 0 224 c 0
 -90 224 -93 105 -93 0 c 1
 -167 0 l 1
0 -350 m 0
 -7 -350 -13 -345 -13 -338 c 2
 -13 338 l 2
 -13 345 -7 350 0 350 c 0
 7 350 13 345 13 338 c 2
 13 -338 l 2
 13 -345 7 -350 0 -350 c 0
254 -13 m 2
 -254 -13 l 2
 -261 -13 -267 -7 -267 0 c 0
 -267 7 -261 13 -254 13 c 2
 254 13 l 2
 261 13 267 7 267 0 c 0
 267 -7 261 -13 254 -13 c 2
EndSplineSet
EndChar

StartChar: exclam
Encoding: 33 33 43
Width: 1000
VWidth: 1058
Flags: HMW
TeX: 101 0
LayerCount: 2
Fore
SplineSet
194.995 753.005 m 1
 575.659 753.005 l 1
 428.057 112.463 339.419 -3.66504 243.33 -3.66504 c 0
 164.697 -3.66504 85 76.0078 85 204.665 c 0
 85 418.825 276.592 579.675 538.33 579.675 c 0
 758.945 579.675 914.995 444.553 914.995 256.335 c 0
 914.995 54.9141 806.538 -40.335 699.995 -40.335 c 0
 607.51 -40.335 540.83 16.9893 540.83 98.835 c 0
 540.83 178.049 604.326 232.17 698.33 232.17 c 0
 765.903 232.17 838.804 194.099 889.614 130.134 c 1
 857.041 105.031 l 1
 813.901 157.155 753.97 188 699.995 188 c 0
 630.161 188 586.665 153.479 586.665 99.6699 c 0
 586.665 42.4141 632.734 3.83496 699.995 3.83496 c 0
 800.278 3.83496 869.995 99.5918 869.995 256.335 c 0
 869.995 419.421 733.12 536.34 538.33 536.34 c 0
 302.827 536.34 129.995 394.206 129.995 204.665 c 0
 129.995 104.401 188.799 43 243.33 43 c 0
 312.163 43 390.215 174.836 520.962 711.34 c 1
 194.995 711.34 l 1
 194.995 753.005 l 1
EndSplineSet
Comment: "This glyph worked fine on i?86 but failed due to a rounding error on PPC. 11-Dec-2005" 
Colour: ffffff
EndChar

StartChar: grave
Encoding: 96 96 44
Width: 1000
Flags: HMW
LayerCount: 2
Fore
SplineSet
276 393 m 1
 276 168 l 1
 540 168 l 1
 540 393 l 1
 276 393 l 1
417 540 m 1
 672 540 l 1
 672 309 l 1
 417 309 l 1
 417 540 l 1
EndSplineSet
EndChar

StartChar: b
Encoding: 98 98 45
Width: 989
Flags: HMW
LayerCount: 2
Fore
SplineSet
249.495 -487.506 m 6
 249.495 292.504 l 6
 249.495 311.173 277.498 311.173 277.498 292.504 c 4
 277.498 277.482 284.162 262.5 297.5 262.5 c 6
 601.492 262.5 l 6
 614.83 262.5 621.494 277.482 621.494 292.504 c 4
 621.494 311.173 649.497 311.173 649.497 292.504 c 6
 649.497 -487.506 l 6
 649.497 -506.175 621.494 -506.175 621.494 -487.506 c 4
 621.494 -472.484 614.83 -457.503 601.492 -457.503 c 6
 297.5 -457.503 l 6
 284.162 -457.503 277.498 -472.484 277.498 -487.506 c 4
 277.498 -506.175 249.495 -506.175 249.495 -487.506 c 6
277.498 132.497 m 5
 277.498 132.497 l 5
 277.498 121.449 286.452 112.495 297.5 112.495 c 6
 601.492 112.495 l 6
 612.54 112.495 621.494 121.449 621.494 132.497 c 6
 621.494 172.501 l 6
 621.494 183.549 612.54 192.503 601.492 192.503 c 6
 297.5 192.503 l 6
 286.452 192.503 277.498 183.549 277.498 172.501 c 6
 277.498 132.497 l 5
277.498 -117.503 m 6
 277.498 -128.551 286.452 -137.505 297.5 -137.505 c 6
 601.492 -137.505 l 6
 612.54 -137.505 621.494 -128.551 621.494 -117.503 c 6
 621.494 -77.499 l 6
 621.494 -66.4512 612.54 -57.4971 601.492 -57.4971 c 6
 297.5 -57.4971 l 6
 286.452 -57.4971 277.498 -66.4512 277.498 -77.499 c 6
 277.498 -117.503 l 6
277.498 -367.503 m 6
 277.498 -378.551 286.452 -387.505 297.5 -387.505 c 6
 601.492 -387.505 l 6
 612.54 -387.505 621.494 -378.551 621.494 -367.503 c 6
 621.494 -327.499 l 6
 621.494 -316.451 612.54 -307.497 601.492 -307.497 c 6
 297.5 -307.497 l 6
 286.452 -307.497 277.498 -316.451 277.498 -327.499 c 6
 277.498 -367.503 l 6
277.498 509.432 m 6
 277.498 292.503 l 5
 249.495 292.503 l 5
 249.495 509.432 l 6
 249.495 512.084 250.971 514.628 253.596 516.503 c 4
 256.222 518.378 259.783 519.432 263.496 519.432 c 4
 267.209 519.432 270.771 518.378 273.396 516.503 c 4
 276.021 514.628 277.498 512.084 277.498 509.432 c 6
249.495 -704.434 m 6
 249.495 -487.506 l 5
 277.498 -487.506 l 5
 277.498 -704.433 l 6
 277.498 -707.087 276.022 -709.63 273.397 -711.505 c 4
 270.771 -713.38 267.21 -714.434 263.496 -714.434 c 4
 259.783 -714.434 256.221 -713.38 253.596 -711.505 c 4
 250.97 -709.63 249.495 -707.087 249.495 -704.434 c 6
649.497 340.547 m 6
 649.497 292.504 l 5
 621.494 292.504 l 5
 621.494 340.545 l 6
 621.494 343.199 622.969 345.742 625.595 347.617 c 4
 628.222 349.492 631.782 350.546 635.494 350.546 c 4
 639.208 350.546 642.771 349.492 645.396 347.617 c 4
 648.021 345.742 649.497 343.199 649.497 340.547 c 6
621.494 -535.549 m 6
 621.494 -487.506 l 5
 649.497 -487.506 l 5
 649.497 -535.547 l 6
 649.497 -538.201 648.021 -540.744 645.396 -542.619 c 4
 642.769 -544.495 639.209 -545.548 635.495 -545.548 c 4
 631.783 -545.548 628.22 -544.495 625.595 -542.619 c 4
 622.969 -540.744 621.494 -538.201 621.494 -535.549 c 6
EndSplineSet
EndChar

StartChar: c
Encoding: 99 99 46
Width: 493
Flags: HMW
LayerCount: 2
Fore
SplineSet
160.608 418.768 m 5
 273.107 706.266 l 6
 279.352 722.224 284.982 739.014 288.063 755.55 c 5
 286.84 748.98 l 5
 289.152 761.391 290.028 773.659 288.649 785.326 c 5
 289.264 780.127 l 5
 287.795 792.554 283.768 804.298 276.192 814.805 c 5
 278.586 811.486 l 5
 277.437 813.08 276.206 814.645 274.891 816.18 c 6
 199.89 903.682 l 5
 203.826 902.568 l 5
 166.327 902.568 l 5
 162.391 903.682 l 5
 159.999 907 l 5
 159.384 912.198 l 5
 160.608 918.768 l 5
 163.551 926.066 l 5
 167.924 933.378 l 5
 173.3 939.988 l 5
 179.151 945.25 l 5
 184.906 948.647 l 5
 190.001 949.848 l 5
 227.5 949.848 l 5
 231.437 948.734 l 5
 306.438 861.233 l 6
 307.753 859.698 308.983 858.134 310.132 856.54 c 6
 312.524 853.222 l 6
 320.1 842.714 324.127 830.971 325.596 818.544 c 6
 326.21 813.346 l 6
 327.589 801.679 326.713 789.411 324.4 777 c 6
 323.177 770.43 l 6
 320.096 753.894 314.465 737.105 308.221 721.147 c 6
 195.721 433.648 l 5
 192.778 426.35 l 5
 188.405 419.037 l 5
 183.029 412.427 l 5
 177.178 407.166 l 5
 171.423 403.768 l 5
 166.327 402.568 l 5
 162.391 403.681 l 5
 159.999 406.999 l 5
 159.384 412.198 l 5
 160.608 418.768 l 5
184.906 223.649 m 5
 184.906 223.648 l 5
 203.007 232.699 223.059 239.261 240.161 249.357 c 5
 234.406 245.96 l 5
 240.108 249.326 245.481 253.084 250.347 257.458 c 5
 244.495 252.197 l 5
 247.345 254.759 250.02 257.533 252.483 260.563 c 5
 247.108 253.952 l 5
 248.261 255.37 249.368 256.844 250.425 258.379 c 4
 251.296 259.644 252.118 260.925 252.894 262.222 c 5
 248.521 254.91 l 5
 250.443 258.124 252.076 261.433 253.441 264.819 c 5
 250.499 257.521 l 5
 252.388 262.205 253.765 267.039 254.685 271.975 c 5
 253.46 265.405 l 5
 255.201 274.749 255.305 284.461 254.15 294.231 c 5
 254.765 289.033 l 5
 253.047 303.566 248.543 318.227 242.499 331.998 c 4
 238.984 340.006 234.661 347.611 229.723 354.463 c 5
 232.114 351.144 l 5
 221.361 366.06 207.689 377.401 193.089 381.529 c 5
 197.025 380.416 l 5
 190.091 382.377 182.947 382.711 175.807 381.028 c 5
 180.902 382.229 l 5
 177.735 381.483 174.569 380.34 171.423 378.767 c 5
 166.327 377.566 l 5
 162.391 378.679 l 5
 159.999 381.998 l 5
 159.384 387.196 l 5
 160.608 393.766 l 5
 163.551 401.064 l 5
 167.924 408.376 l 5
 173.3 414.987 l 5
 179.151 420.248 l 5
 184.906 423.646 l 6
 188.053 425.219 191.219 426.362 194.386 427.108 c 6
 199.48 428.308 l 6
 206.621 429.991 213.765 429.657 220.699 427.696 c 6
 224.636 426.583 l 6
 239.237 422.454 252.909 411.113 263.661 396.198 c 6
 266.054 392.88 l 6
 270.993 386.028 275.316 378.422 278.83 370.415 c 4
 284.876 356.644 289.379 341.982 291.097 327.449 c 6
 291.711 322.251 l 6
 292.865 312.481 292.762 302.769 291.021 293.425 c 6
 289.797 286.854 l 6
 288.878 281.919 287.501 277.086 285.611 272.401 c 6
 282.669 265.103 l 6
 281.304 261.716 279.67 258.408 277.748 255.193 c 6
 273.375 247.881 l 6
 272.599 246.584 271.776 245.303 270.905 244.038 c 4
 269.849 242.503 268.742 241.029 267.589 239.612 c 6
 262.213 233.001 l 6
 259.749 229.971 257.074 227.198 254.225 224.635 c 6
 248.373 219.374 l 6
 243.508 214.999 238.134 211.241 232.433 207.876 c 6
 226.678 204.479 l 6
 209.575 194.382 189.523 187.82 171.423 178.771 c 5
 166.327 177.569 l 5
 162.391 178.682 l 5
 159.999 182.001 l 5
 159.384 187.199 l 5
 160.608 193.769 l 5
 163.551 201.067 l 5
 167.924 208.379 l 5
 173.3 214.99 l 5
 179.151 220.251 l 5
 184.906 223.649 l 5
184.906 -26.3516 m 5
 184.906 -26.3516 l 5
 203.007 -17.3008 223.059 -10.7393 240.161 -0.642578 c 5
 234.406 -4.04004 l 5
 240.108 -0.674805 245.481 3.08398 250.347 7.45801 c 5
 244.495 2.19629 l 5
 247.345 4.75879 250.02 7.53223 252.483 10.5615 c 5
 247.108 3.95215 l 5
 248.261 5.37012 249.368 6.84375 250.425 8.37793 c 4
 251.296 9.64258 252.118 10.9248 252.894 12.2217 c 5
 248.521 4.90918 l 5
 250.443 8.12402 252.076 11.4316 253.441 14.8193 c 5
 250.499 7.52051 l 5
 252.388 12.2051 253.765 17.0381 254.685 21.9746 c 5
 253.46 15.4053 l 5
 255.201 24.749 255.305 34.4609 254.15 44.2314 c 5
 254.765 39.0322 l 5
 253.047 53.5654 248.543 68.2266 242.499 81.998 c 4
 238.984 90.0049 234.661 97.6113 229.723 104.463 c 5
 232.114 101.144 l 5
 221.361 116.059 207.689 127.4 193.089 131.529 c 5
 197.025 130.416 l 5
 190.091 132.376 182.947 132.71 175.807 131.028 c 5
 180.902 132.229 l 5
 177.735 131.482 174.569 130.34 171.423 128.766 c 5
 166.327 127.566 l 5
 162.391 128.679 l 5
 159.999 131.997 l 5
 159.384 137.196 l 5
 160.608 143.765 l 5
 163.551 151.064 l 5
 167.924 158.376 l 5
 173.3 164.987 l 5
 179.151 170.248 l 5
 184.906 173.646 l 6
 188.053 175.218 191.219 176.361 194.386 177.107 c 6
 199.48 178.308 l 6
 206.621 179.99 213.765 179.656 220.699 177.696 c 6
 224.636 176.583 l 6
 239.237 172.454 252.909 161.113 263.661 146.198 c 6
 266.054 142.879 l 6
 270.993 136.028 275.316 128.422 278.83 120.415 c 4
 284.874 106.644 289.379 91.9824 291.097 77.4492 c 6
 291.711 72.251 l 6
 292.865 62.4795 292.762 52.7686 291.021 43.4248 c 6
 289.797 36.8545 l 6
 288.878 31.9189 287.501 27.0859 285.611 22.4014 c 6
 282.669 15.1025 l 6
 281.304 11.7158 279.67 8.40723 277.748 5.19336 c 6
 273.375 -2.11914 l 6
 272.599 -3.41602 271.776 -4.69727 270.905 -5.96191 c 4
 269.849 -7.49707 268.742 -8.9707 267.589 -10.3887 c 6
 262.213 -16.999 l 6
 259.749 -20.0293 257.074 -22.8018 254.225 -25.3652 c 6
 248.373 -30.627 l 6
 243.508 -35.001 238.134 -38.7588 232.433 -42.125 c 6
 226.678 -45.5225 l 6
 209.574 -55.6182 189.523 -62.1797 171.423 -71.2314 c 5
 166.327 -72.4307 l 5
 162.391 -71.3184 l 5
 159.999 -68 l 5
 159.384 -62.8008 l 5
 160.608 -56.2324 l 5
 163.551 -48.9326 l 5
 167.924 -41.6211 l 5
 173.3 -35.0098 l 5
 179.151 -29.749 l 5
 184.906 -26.3516 l 5
184.906 -276.353 m 5
 184.906 -276.353 l 5
 203.007 -267.302 223.059 -260.742 240.161 -250.642 c 5
 234.406 -254.042 l 5
 240.108 -250.672 245.481 -246.912 250.347 -242.542 c 5
 244.495 -247.802 l 5
 247.345 -245.242 250.02 -242.472 252.483 -239.442 c 5
 247.108 -246.052 l 5
 248.261 -244.632 249.368 -243.152 250.425 -241.622 c 4
 251.296 -240.362 252.118 -239.072 252.894 -237.782 c 5
 248.521 -245.092 l 5
 250.443 -241.872 252.076 -238.572 253.441 -235.182 c 5
 250.499 -242.481 l 5
 252.388 -237.792 253.765 -232.962 254.685 -228.022 c 5
 253.46 -234.592 l 5
 255.201 -225.252 255.305 -215.542 254.15 -205.772 c 5
 254.765 -210.972 l 5
 253.047 -196.432 248.543 -181.772 242.499 -168.002 c 4
 238.984 -159.992 234.661 -152.392 229.722 -145.542 c 5
 232.114 -148.853 l 5
 221.361 -133.942 207.689 -122.603 193.089 -118.472 c 5
 197.025 -119.582 l 5
 190.091 -117.622 182.947 -117.292 175.807 -118.972 c 5
 180.902 -117.772 l 5
 177.735 -118.522 174.569 -119.662 171.423 -121.231 c 5
 166.327 -122.432 l 5
 162.391 -121.322 l 5
 159.999 -118.002 l 5
 159.384 -112.802 l 5
 160.608 -106.231 l 5
 163.551 -98.9316 l 5
 167.924 -91.6221 l 5
 173.3 -85.0117 l 5
 179.151 -79.752 l 5
 184.906 -76.3516 l 6
 188.053 -74.7822 191.219 -73.6377 194.386 -72.8916 c 6
 199.48 -71.6924 l 6
 206.621 -70.0098 213.765 -70.3428 220.699 -72.3037 c 6
 224.636 -73.417 l 6
 239.237 -77.542 252.909 -88.8818 263.661 -103.802 c 6
 266.054 -107.122 l 6
 270.993 -113.972 275.316 -121.582 278.83 -129.582 c 4
 284.874 -143.353 289.379 -158.022 291.097 -172.552 c 6
 291.711 -177.752 l 6
 292.865 -187.522 292.762 -197.231 291.021 -206.572 c 6
 289.797 -213.142 l 6
 288.878 -218.082 287.501 -222.912 285.611 -227.603 c 6
 282.669 -234.902 l 6
 281.304 -238.282 279.67 -241.592 277.748 -244.802 c 6
 273.375 -252.122 l 6
 272.599 -253.412 271.776 -254.702 270.905 -255.962 c 4
 269.849 -257.492 268.742 -258.972 267.589 -260.392 c 6
 262.213 -267.002 l 6
 259.749 -270.032 257.074 -272.802 254.225 -275.362 c 6
 248.372 -280.622 l 6
 243.508 -285.002 238.134 -288.762 232.433 -292.122 c 6
 226.678 -295.522 l 6
 209.574 -305.622 189.523 -312.182 171.423 -321.231 c 5
 166.327 -322.432 l 5
 162.391 -321.322 l 5
 159.999 -318.002 l 5
 159.384 -312.802 l 5
 160.608 -306.231 l 5
 163.551 -298.932 l 5
 167.924 -291.622 l 5
 173.3 -285.012 l 5
 179.151 -279.752 l 5
 184.906 -276.353 l 5
EndSplineSet
EndChar

StartChar: d
Encoding: 100 100 47
Width: 1000
Flags: HMW
LayerCount: 2
Fore
SplineSet
314.671 255.493 m 4
 314.671 413.523 220.004 556.159 74.3799 617.539 c 4
 62.6807 622.471 57.1885 635.968 62.1191 647.667 c 4
 67.0508 659.366 80.5479 664.858 92.2471 659.928 c 4
 254.907 591.366 360.671 432.012 360.671 255.493 c 4
 360.671 78.9746 254.907 -80.3799 92.2471 -148.941 c 4
 80.5479 -153.872 67.0508 -148.38 62.1191 -136.681 c 4
 57.1885 -124.981 62.6807 -111.484 74.3799 -106.553 c 4
 220.003 -45.1729 314.671 97.4629 314.671 255.493 c 4
63.3162 650.279 m 4
 68.9193 659.984 80.6814 664.265 91.2117 660.432 c 4
 169.485 631.942 254.482 648.521 332.815 677.033 c 4
 344.799 681.395 358.05 675.216 362.412 663.232 c 4
 366.774 651.248 360.595 637.997 348.611 633.635 c 4
 291.142 612.718 228.842 608.81 171.373 587.892 c 5
 181.993 527.664 209.758 471.757 220.378 411.529 c 4
 222.592 398.97 214.206 386.993 201.647 384.779 c 4
 189.088 382.564 177.111 390.95 174.897 403.509 c 4
 160.422 485.604 132.28 567.501 68.471 621.044 c 4
 59.8868 628.248 57.7132 640.574 63.3162 650.279 c 4
63.3162 -139.292 m 4
 57.7132 -129.588 59.8868 -117.261 68.471 -110.058 c 4
 132.28 -56.5148 160.422 25.3828 174.897 107.477 c 4
 177.111 120.036 189.088 128.422 201.647 126.208 c 4
 214.206 123.993 222.592 112.017 220.378 99.4579 c 4
 209.758 39.2296 181.993 -16.6775 171.373 -76.9058 c 5
 228.842 -97.8231 291.142 -101.731 348.611 -122.649 c 4
 360.595 -127.01 366.774 -140.261 362.412 -152.245 c 4
 358.05 -164.229 344.799 -170.408 332.815 -166.046 c 4
 254.482 -137.535 169.485 -120.956 91.2117 -149.445 c 4
 80.6814 -153.278 68.9193 -148.997 63.3162 -139.292 c 4
EndSplineSet
EndChar

StartChar: e
Encoding: 101 101 48
Width: 233
Flags: MW
LayerCount: 2
Fore
SplineSet
107 496 m 4
 107 385 147 305 211 254 c 5
 215 245 208 237 201 236 c 5
 96 285 41 383 41 496 c 4
 41 609 96 707 201 756 c 5
 208 755 215 747 211 738 c 5
 147 687 107 607 107 496 c 4
115 218 m 2
 45 358 l 1
 48 366 55 370 62 371 c 1
 101 321 139 271 181 221 c 0
 191 210 190 201 181 190 c 0
 139 140 101 89 62 39 c 1
 53 41 48 45 45 52 c 1
 115 194 l 2
 118 201 119 209 115 218 c 2
EndSplineSet
EndChar

StartChar: f
Encoding: 102 102 49
Width: 549
Flags: HMW
LayerCount: 2
Fore
SplineSet
271 25 m 6
 305 22 l 5
 311 18 309 0 303 -3 c 5
 244 -1 210 0 170 0 c 4
 126 0 92 -1 45 -3 c 5
 39 0 37 16 43 22 c 5
 68 25 l 6
 223.913 43.8171 117.654 37.9954 271 25 c 6
276 25 m 6
 303 22 l 5
 309 17 307 0 301 -3 c 5
 244 -1 211 0 171 0 c 4
 129 0 93 -1 49 -3 c 5
 43 0 41 16 47 22 c 5
 68 25 l 6
 237.095 48.3235 105.18 43.6834 276 25 c 6
EndSplineSet
EndChar

StartChar: g
Encoding: 103 103 50
Width: 480
Flags: MW
LayerCount: 2
Fore
SplineSet
161 398 m 1
 50 398 l 2
 46 398 46 402 53 422 c 1
 57 444 59 446 77 446 c 2
 174 445 l 1
 208 601 l 2
 209 605 213 605 218 605 c 0
 231 605 243 603 252 600 c 1
 216 445 l 1
 322 444 l 1
 361 601 l 1
 374 601 385 601 393 600 c 1
 400 597 405 594 402 582 c 2
 367 444 l 1
 441 444 l 2
 449 444 453 441 446 413 c 0
 443 399 439 397 433 397 c 2
 352 397 l 1
 323 260 l 1
 402 260 l 2
 414 260 418 256 419 253 c 0
 420 242 413 216 410 212 c 1
 309 212 l 1
 273 30 l 1
 269 27 241 30 234 31 c 1
 228 36 228 40 232 49 c 1
 267 213 l 1
 160 213 l 1
 119 40 l 1
 113 36 89 34 78 34 c 0
 74 34 73 42 73 48 c 1
 116 215 l 1
 29 215 l 2
 28 215 26 229 26 244 c 0
 26 260 28 262 33 262 c 2
 128 260 l 1
 161 398 l 1
201 398 m 1
 171 260 l 1
 280 260 l 1
 310 398 l 1
 201 398 l 1
161 398 m 1
 50 398 l 2
 46 398 46 402 53 422 c 1
 57 444 59 446 77 446 c 2
 174 445 l 1
 208 601 l 2
 209 605 213 605 218 605 c 0
 231 605 243 603 252 600 c 1
 216 445 l 1
 322 444 l 1
 361 601 l 1
 374 601 385 601 393 600 c 1
 400 597 405 594 402 582 c 2
 367 444 l 1
 441 444 l 2
 449 444 453 441 446 413 c 0
 443 399 439 397 433 397 c 2
 352 397 l 1
 323 260 l 1
 402 260 l 2
 414 260 418 256 419 253 c 0
 420 242 413 216 410 212 c 1
 309 212 l 1
 273 30 l 1
 269 27 241 30 234 31 c 1
 228 36 228 40 232 49 c 1
 267 213 l 1
 160 213 l 1
 119 40 l 1
 113 36 89 34 78 34 c 0
 74 34 73 42 73 48 c 1
 116 215 l 1
 29 215 l 2
 28 215 26 229 26 244 c 0
 26 260 28 262 33 262 c 2
 128 260 l 1
 161 398 l 1
201 398 m 1
 171 260 l 1
 280 260 l 1
 310 398 l 1
 201 398 l 1
EndSplineSet
EndChar

StartChar: at
Encoding: 64 64 51
Width: 1024
VWidth: 0
Flags: HMW
LayerCount: 2
Fore
SplineSet
602 498 m 5
 602 602 l 4
 668 612 l 4
 602 498 l 5
756 617 m 5
 756 617 449 498 447 624 c 5
 756 617 l 5
EndSplineSet
EndChar

StartChar: h
Encoding: 104 104 52
Width: 480
Flags: MW
LayerCount: 2
Fore
SplineSet
175 237 m 5
 188 229 l 6
 244 194 442 87 530 43 c 4
 535 41 536 37 534 28 c 6
 527 2 l 6
 525 -9 522 -11 509 -4 c 4
 381 66 257 140 126 210 c 4
 118 214 101 224 101 233 c 4
 101 243 123 256 133 262 c 4
 234 320 415 421 523 470 c 4
 530 473 537 472 539 468 c 6
 549 429 l 5
 420 370 294 306 175 237 c 5
161 398 m 5
 50 398 l 6
 46 398 46 402 53 422 c 5
 57 444 59 446 77 446 c 6
 174 445 l 5
 208 601 l 6
 209 605 213 605 218 605 c 4
 231 605 243 603 252 600 c 5
 216 445 l 5
 322 444 l 5
 361 601 l 5
 374 601 385 601 393 600 c 5
 400 597 405 594 402 582 c 6
 367 444 l 5
 441 444 l 6
 449 444 453 441 446 413 c 4
 443 399 439 397 433 397 c 6
 352 397 l 5
 323 260 l 5
 402 260 l 6
 414 260 418 256 419 253 c 4
 420 242 413 216 410 212 c 5
 309 212 l 5
 273 30 l 5
 269 27 241 30 234 31 c 5
 228 36 228 40 232 49 c 5
 267 213 l 5
 160 213 l 5
 119 40 l 5
 113 36 89 34 78 34 c 4
 74 34 73 42 73 48 c 5
 116 215 l 5
 29 215 l 6
 28 215 26 229 26 244 c 4
 26 260 28 262 33 262 c 6
 128 260 l 5
 161 398 l 5
201 398 m 5
 171 260 l 5
 280 260 l 5
 310 398 l 5
 201 398 l 5
EndSplineSet
EndChar

StartChar: i
Encoding: 105 105 53
Width: 500
Flags: MW
LayerCount: 2
Fore
SplineSet
31 -5 m 6
 32 -8 34 -8 41 -7 c 4
 81 -1 131 0 210 0 c 4
 213 0 214 0 215 4 c 5
 213 30 212 33 208 32 c 5
 161 36 157 42 154 67 c 4
 151 96 148 120 148 172 c 6
 148 282 l 6
 148 303 152 308 160 312 c 4
 190 329 231 344 261 344 c 4
 282 344 301 342 325 323 c 4
 347 306 365 280 365 183 c 4
 365 146 366 115 361 73 c 4
 358 47 354 41 336 32 c 4
 326 27 310 22 307 20 c 4
 304 18 303 17 304 4 c 4
 305 -7 306 -8 310 -8 c 4
 315 -8 357 -2 406 -2 c 6
 473 -2 l 6
 479 -2 480 -1 480 5 c 6
 480 20 l 6
 480 23 479 23 470 25 c 4
 430 37 426 40 426 74 c 4
 427 146 429 206 429 234 c 4
 429 312 414 395 321 395 c 4
 303 395 285 391 265 385 c 5
 237 375 179 348 157 339 c 4
 155 338 151 343 151 345 c 6
 151 507 l 6
 151 564 153 629 153 700 c 4
 153 705 153 708 152 709 c 4
 149 712 142 713 137 710 c 4
 112 695 59 663 48 653 c 4
 44 649 43 645 47 642 c 4
 81 611 83 610 83 547 c 6
 83 141 l 6
 83 46 79 43 27 19 c 4
 23 17 22 15 25 9 c 6
 31 -5 l 6
0 0 m 5
 0 700 l 5
 500 700 l 5
 500 0 l 5
 0 0 l 5
250 395 m 5
 420 650 l 5
 80 650 l 5
 250 395 l 5
280 350 m 5
 450 95 l 5
 450 605 l 5
 280 350 l 5
80 50 m 5
 420 50 l 5
 250 305 l 5
 80 50 l 5
50 605 m 5
 50 95 l 5
 220 350 l 5
 50 605 l 5
EndSplineSet
EndChar

StartChar: j
Encoding: 106 106 54
Width: 268
Flags: MW
LayerCount: 2
Fore
SplineSet
358 770 m 1
 406 770 l 1
 406 -28 l 1
 358 -28 l 1
 358 770 l 1
168 629 m 2
 162 629 157 627 155 624 c 0
 143 599 131 589 112 568 c 0
 110 566 109 564 109 561 c 0
 109 556 112 549 114 545 c 0
 125 523 133 466 138 393 c 0
 142 320 145 208 145 201 c 0
 145 194 146 194 150 194 c 0
 155 194 166 198 169 199 c 0
 171 200 173 206 174 211 c 1
 174 218 186 374 192 421 c 0
 197 467 200 500 214 544 c 1
 218 553 219 559 219 562 c 0
 219 567 216 570 213 573 c 0
 201 585 189 601 176 623 c 0
 173 628 171 629 169 629 c 2
 168 629 l 2
90 64 m 2
 90 58 94 48 100 46 c 0
 118 38 133 33 141 13 c 1
 147 -5 152 -11 164 -12 c 1
 169 -14 173 -12 175 -8 c 0
 185 26 190 31 219 44 c 0
 226 47 228 48 227 52 c 0
 225 65 222 69 211 73 c 0
 195 79 183 96 177 114 c 1
 176 121 172 127 166 127 c 0
 162 127 146 120 144 113 c 0
 138 89 133 83 121 79 c 0
 111 76 102 74 96 71 c 0
 94 70 90 68 90 65 c 2
 90 64 l 2
168 629 m 2
 169 629 l 2
 171 629 173 628 176 623 c 0
 189 601 201 585 213 573 c 0
 216 570 219 567 219 562 c 0
 219 559 218 553 214 544 c 1
 200 500 197 467 192 421 c 0
 186 374 174 218 174 211 c 1
 173 206 171 200 169 199 c 0
 166 198 155 194 150 194 c 0
 146 194 145 194 145 201 c 0
 145 208 142 320 138 393 c 0
 133 466 125 523 114 545 c 0
 112 549 109 556 109 561 c 0
 109 564 110 566 112 568 c 0
 131 589 143 599 155 624 c 0
 157 627 162 629 168 629 c 2
90 64 m 2
 90 65 l 2
 90 68 94 70 96 71 c 0
 102 74 111 76 121 79 c 0
 133 83 138 89 144 113 c 0
 146 120 162 127 166 127 c 0
 172 127 176 121 177 114 c 1
 183 96 195 79 211 73 c 0
 222 69 225 65 227 52 c 0
 228 48 226 47 219 44 c 0
 190 31 185 26 175 -8 c 0
 173 -12 169 -14 164 -12 c 1
 152 -11 147 -5 141 13 c 1
 133 33 118 38 100 46 c 0
 94 48 90 58 90 64 c 2
EndSplineSet
EndChar

StartChar: k
Encoding: 107 107 55
Width: 480
Flags: HMW
LayerCount: 2
Fore
SplineSet
386 350.835 m 4
 364 390.112 l 5
 422.239 421.115 478.748 449.923 523 470 c 5
 549 429 l 5
 386 350.835 l 4
322 444 m 1
 352 397 l 1
 433 397 l 2
 439 397 443 399 446 413 c 0
 453 441 449 444 441 444 c 2
 322 444 l 1
EndSplineSet
EndChar

StartChar: l
Encoding: 108 108 56
Width: 500
Flags: MW
LayerCount: 2
Fore
SplineSet
25 9 m 2
 31 -5 l 2
 32 -8 34 -8 41 -7 c 0
 81 -1 131 0 210 0 c 0
 213 0 214 0 215 4 c 1
 205.752 124.221 21.5726 15.8548 25 9 c 2
0 0 m 1
 0 106 l 1
 500 106 l 1
 500 0 l 1
 0 0 l 1
EndSplineSet
EndChar

StartChar: m
Encoding: 109 109 57
Width: 233
Flags: MW
LayerCount: 2
Fore
SplineSet
275 498 m 2
 389 267 l 2
 412 220 434 174 458 130 c 1
 460 130 l 1
 487 177 512 229 537 280 c 2
 631 471 l 2
 676 562 705 617 707 663 c 1
 741 660 762 660 782 660 c 0
 807 660 840 661 871 663 c 1
 877 659 877 642 872 638 c 1
 851 636 l 2
 788 630 780 611 781 541 c 0
 783 435 784 250 792 106 c 0
 795 56 794 29 841 25 c 2
 873 22 l 1
 879 16 878 1 871 -3 c 1
 830 -1 789 0 753 0 c 0
 718 0 673 -1 632 -3 c 1
 625 2 624 16 630 22 c 1
 659 25 l 2
 708 30 708 46 708 110 c 2
 705 527 l 1
 703 527 l 1
 696 516 658 436 638 397 c 2
 549 222 l 2
 504 134 459 40 441 -6 c 0
 439 -9 435 -10 431 -10 c 0
 429 -10 424 -9 422 -6 c 0
 405 47 357 145 334 194 c 2
 244 387 l 2
 223 433 202 485 180 531 c 1
 178 531 l 1
 174 469 171 411 168 353 c 0
 165 292 161 203 161 118 c 0
 161 44 167 28 206 25 c 2
 244 22 l 1
 251 16 250 0 243 -3 c 1
 209 -1 170 0 132 0 c 0
 100 0 64 -1 30 -3 c 1
 24 2 22 17 28 22 c 1
 50 25 l 2
 92 31 106 37 112 107 c 0
 118 173 123 228 129 327 c 0
 134 410 138 495 140 550 c 0
 142 613 134 628 73 636 c 2
 57 638 l 1
 52 644 53 659 61 663 c 1
 91 661 115 660 140 660 c 0
 163 660 190 660 223 663 c 1
 219 624 244 562 275 498 c 2
115 218 m 2
 45 358 l 1
 48 366 55 370 62 371 c 1
 101 321 139 271 181 221 c 0
 191 210 190 201 181 190 c 0
 139 140 101 89 62 39 c 1
 53 41 48 45 45 52 c 1
 115 194 l 2
 118 201 119 209 115 218 c 2
EndSplineSet
EndChar

StartChar: n
Encoding: 110 110 58
Width: 233
Flags: MW
LayerCount: 2
Fore
SplineSet
188 358 m 1
 118 218 l 2
 114 209 115 201 118 194 c 2
 188 52 l 1
 185 45 180 41 171 39 c 1
 132 89 94 140 52 190 c 0
 43 201 42 210 52 221 c 0
 94 271 132 321 171 371 c 1
 178 370 185 366 188 358 c 1
333 358 m 1
 263 218 l 2
 259 209 260 201 263 194 c 2
 333 52 l 1
 330 45 325 41 316 39 c 1
 277 89 239 140 197 190 c 0
 188 201 187 210 197 221 c 0
 239 271 277 321 316 371 c 1
 323 370 330 366 333 358 c 1
115 218 m 2
 45 358 l 1
 48 366 55 370 62 371 c 1
 101 321 139 271 181 221 c 0
 191 210 190 201 181 190 c 0
 139 140 101 89 62 39 c 1
 53 41 48 45 45 52 c 1
 115 194 l 2
 118 201 119 209 115 218 c 2
EndSplineSet
EndChar

StartChar: o
Encoding: 111 111 59
Width: 233
Flags: MW
LayerCount: 2
Fore
SplineSet
85 439 m 4
 118 439 153 408 153 359 c 4
 153 289 104 254 40 239 c 5
 28 242 24 255 32 265 c 5
 60 271 102 290 102 322 c 4
 102 356 58 366 53 369 c 4
 42 375 36 384 36 397 c 4
 36 420 53 439 85 439 c 4
115 218 m 2
 45 358 l 1
 48 366 55 370 62 371 c 1
 101 321 139 271 181 221 c 0
 191 210 190 201 181 190 c 0
 139 140 101 89 62 39 c 1
 53 41 48 45 45 52 c 1
 115 194 l 2
 118 201 119 209 115 218 c 2
EndSplineSet
EndChar

StartChar: p
Encoding: 112 112 60
Width: 233
Flags: MW
LayerCount: 2
Fore
SplineSet
148 48 m 6
 219 48 l 6
 266 48 292 51 314 84 c 5
 321 87 329 85 333 77 c 5
 317 42 307 10 294 -2 c 5
 269 -1 212 0 181 0 c 6
 109 0 l 6
 71 0 49 -1 34 -2 c 5
 32 0 29 2 29 5 c 4
 29 8 29 11 31 14 c 5
 63 34 87 54 135 102 c 4
 177 144 227 205 227 268 c 4
 227 320 197 352 152 352 c 4
 115 352 85 328 62 289 c 5
 54 284 43 290 43 298 c 5
 70 360 120 393 182 393 c 4
 255 393 300 350 300 290 c 4
 300 248 282 210 224 152 c 6
 168 96 l 6
 143 71 134 62 134 56 c 4
 134 50 141 48 148 48 c 6
115 218 m 2
 45 358 l 1
 48 366 55 370 62 371 c 1
 101 321 139 271 181 221 c 0
 191 210 190 201 181 190 c 0
 139 140 101 89 62 39 c 1
 53 41 48 45 45 52 c 1
 115 194 l 2
 118 201 119 209 115 218 c 2
EndSplineSet
EndChar

StartChar: q
Encoding: 113 113 61
Width: 233
Flags: MW
LayerCount: 2
Fore
SplineSet
104 435 m 4
 104 470 108 504 113 538 c 4
 118 572 123 606 123 638 c 4
 123 677 113 722 39 734 c 5
 34 739 34 749 39 754 c 5
 88 754 181 745 181 628 c 4
 181 594 176 557 173 522 c 4
 170 486 166 453 166 422 c 4
 166 388 170 345 253 339 c 5
 258 333 258 323 253 317 c 5
 170 311 166 268 166 234 c 4
 166 204 169 170 173 135 c 4
 177 99 181 63 181 28 c 4
 181 -89 88 -98 39 -98 c 5
 34 -93 34 -82 39 -78 c 5
 113 -66 123 -21 123 18 c 4
 123 51 117 84 113 118 c 4
 109 152 104 187 104 221 c 4
 104 278 127 313 179 326 c 5
 179 330 l 5
 127 343 104 378 104 435 c 4
115 218 m 2
 45 358 l 1
 48 366 55 370 62 371 c 1
 101 321 139 271 181 221 c 0
 191 210 190 201 181 190 c 0
 139 140 101 89 62 39 c 1
 53 41 48 45 45 52 c 1
 115 194 l 2
 118 201 119 209 115 218 c 2
EndSplineSet
EndChar

StartChar: r
Encoding: 114 114 62
Width: 446
Flags: MW
LayerCount: 2
Fore
SplineSet
188 358 m 5
 118 218 l 6
 114 209 115 201 118 194 c 6
 188 52 l 5
 185 45 180 41 171 39 c 5
 132 89 94 140 52 190 c 4
 43 201 42 210 52 221 c 4
 94 271 132 321 171 371 c 5
 178 370 185 366 188 358 c 5
365 372 m 2
 446 372 l 1
 457 367 455 333 440 331 c 1
 368 331 l 1
 370 314 370 297 370 280 c 0
 370 211 329 121 202 121 c 0
 184 121 170 123 158 124 c 1
 146 117 114 98 114 69 c 0
 114 46 137 27 184 27 c 0
 218 27 259 30 303 30 c 0
 359 30 443 20 443 -80 c 0
 443 -189 324 -269 194 -269 c 0
 71 -269 28 -203 28 -153 c 0
 28 -137 32 -124 39 -116 c 0
 56 -98 84 -72 107 -49 c 0
 116 -40 124 -31 115 -25 c 1
 76 -15 42 19 42 54 c 0
 42 59 46 63 57 71 c 0
 74 82 93 99 110 117 c 0
 115 123 120 131 120 136 c 1
 86 154 45 193 45 257 c 0
 45 343 119 408 208 408 c 0
 246 408 281 398 304 388 c 0
 336 374 343 372 365 372 c 2
271 -32 m 2
 237 -32 l 2
 205 -32 165 -34 151 -43 c 0
 127 -58 103 -89 103 -127 c 0
 103 -181 146 -226 237 -226 c 0
 326 -226 385 -176 385 -119 c 0
 385 -58 343 -32 271 -32 c 2
217 150 m 0
 271 150 299 193 299 254 c 0
 299 322 271 379 210 379 c 0
 162 379 126 335 126 267 c 0
 126 196 169 150 217 150 c 0
EndSplineSet
EndChar

StartChar: s
Encoding: 115 115 63
Width: 233
Flags: MW
LayerCount: 2
Fore
SplineSet
216 375 m 0
 216 318 193 283 141 270 c 1
 141 266 l 1
 193 253 216 218 216 161 c 0
 216 127 211 92 207 58 c 4
 203 24 197 -9 197 -42 c 4
 197 -81 207 -126 281 -138 c 5
 286 -142 286 -153 281 -158 c 5
 232 -158 139 -149 139 -32 c 4
 139 3 143 39 147 75 c 4
 151 110 154 144 154 174 c 4
 154 208 150 251 67 257 c 1
 62 263 62 273 67 279 c 1
 150 285 154 328 154 362 c 0
 154 393 150 426 147 462 c 0
 144 497 139 534 139 568 c 0
 139 685 232 694 281 694 c 1
 286 689 286 679 281 674 c 1
 207 662 197 617 197 578 c 0
 197 546 202 512 207 478 c 0
 212 444 216 410 216 375 c 0
188 358 m 1
 118 218 l 2
 114 209 115 201 118 194 c 6
 188 52 l 5
 185 45 180 41 171 39 c 5
 132 89 94 140 52 190 c 4
 43 201 42 210 52 221 c 0
 94 271 132 321 171 371 c 1
 178 370 185 366 188 358 c 1
EndSplineSet
EndChar

StartChar: t
Encoding: 116 116 64
Width: 233
Flags: MW
LayerCount: 2
Fore
SplineSet
115 218 m 6
 45 358 l 5
 48 366 55 370 62 371 c 5
 101 321 139 271 181 221 c 4
 191 210 190 201 181 190 c 4
 139 140 101 89 62 39 c 5
 53 41 48 45 45 52 c 5
 115 194 l 6
 118 201 119 209 115 218 c 6
188 358 m 1
 118 218 l 2
 114 209 115 201 118 194 c 2
 188 52 l 1
 185 45 180 41 171 39 c 1
 132 89 94 140 52 190 c 0
 43 201 42 210 52 221 c 0
 94 271 132 321 171 371 c 1
 178 370 185 366 188 358 c 1
EndSplineSet
EndChar

StartChar: u
Encoding: 117 117 65
Width: 233
Flags: MW
LayerCount: 2
Fore
SplineSet
115 218 m 6
 45 358 l 5
 48 366 55 370 62 371 c 5
 101 321 139 271 181 221 c 4
 191 210 190 201 181 190 c 4
 139 140 101 89 62 39 c 5
 53 41 48 45 45 52 c 5
 115 194 l 6
 118 201 119 209 115 218 c 6
260 218 m 6
 190 358 l 5
 193 366 200 370 207 371 c 5
 246 321 284 271 326 221 c 4
 336 210 335 201 326 190 c 4
 284 140 246 89 207 39 c 5
 198 41 193 45 190 52 c 5
 260 194 l 6
 263 201 264 209 260 218 c 6
188 358 m 1
 118 218 l 2
 114 209 115 201 118 194 c 2
 188 52 l 1
 185 45 180 41 171 39 c 1
 132 89 94 140 52 190 c 0
 43 201 42 210 52 221 c 0
 94 271 132 321 171 371 c 1
 178 370 185 366 188 358 c 1
EndSplineSet
EndChar

StartChar: v
Encoding: 118 118 66
Width: 233
Flags: MW
LayerCount: 2
Fore
SplineSet
280 334 m 4
 280 229 340 159 429 159 c 4
 487 159 527 197 552 254 c 5
 558 259 568 258 572 251 c 5
 570 225 557 176 545 155 c 5
 526 149 471 132 423 132 c 4
 275 132 205 231 205 328 c 4
 205 448 303 529 429 529 c 4
 484 529 535 514 550 513 c 5
 555 483 557 457 562 420 c 5
 558 413 546 412 541 417 c 5
 523 474 483 502 423 502 c 4
 328 502 280 426 280 334 c 4
395 -16 m 4
 194 -16 45 139 45 330 c 4
 45 521 194 676 395 676 c 4
 596 676 745 521 745 330 c 4
 745 139 596 -16 395 -16 c 4
102 331 m 4
 102 158 229 23 395 23 c 4
 561 23 688 158 688 331 c 4
 688 503 561 637 395 637 c 4
 229 637 102 503 102 331 c 4
188 358 m 1
 118 218 l 2
 114 209 115 201 118 194 c 2
 188 52 l 1
 185 45 180 41 171 39 c 1
 132 89 94 140 52 190 c 0
 43 201 42 210 52 221 c 0
 94 271 132 321 171 371 c 1
 178 370 185 366 188 358 c 1
EndSplineSet
EndChar

StartChar: w
Encoding: 119 119 67
Width: 233
Flags: MW
LayerCount: 2
Fore
SplineSet
365 372 m 6
 446 372 l 5
 457 367 455 333 440 331 c 5
 368 331 l 5
 370 314 370 297 370 280 c 4
 370 211 329 121 202 121 c 4
 184 121 170 123 158 124 c 5
 146 117 114 98 114 69 c 4
 114 46 137 27 184 27 c 4
 218 27 259 30 303 30 c 4
 359 30 443 20 443 -80 c 4
 443 -189 324 -269 194 -269 c 4
 71 -269 28 -203 28 -153 c 4
 28 -137 32 -124 39 -116 c 4
 56 -98 84 -72 107 -49 c 4
 116 -40 124 -31 115 -25 c 5
 76 -15 42 19 42 54 c 4
 42 59 46 63 57 71 c 4
 74 82 93 99 110 117 c 4
 115 123 120 131 120 136 c 5
 86 154 45 193 45 257 c 4
 45 343 119 408 208 408 c 4
 246 408 281 398 304 388 c 4
 336 374 343 372 365 372 c 6
271 -32 m 6
 237 -32 l 6
 205 -32 165 -34 151 -43 c 4
 127 -58 103 -89 103 -127 c 4
 103 -181 146 -226 237 -226 c 4
 326 -226 385 -176 385 -119 c 4
 385 -58 343 -32 271 -32 c 6
217 150 m 4
 271 150 299 193 299 254 c 4
 299 322 271 379 210 379 c 4
 162 379 126 335 126 267 c 4
 126 196 169 150 217 150 c 4
220 482 m 4
 151 482 111 524 116 613 c 5
 121 617 133 617 138 613 c 5
 150 560 188 539 220 539 c 4
 252 539 290 560 303 613 c 5
 307 617 319 617 325 613 c 5
 329 524 289 482 220 482 c 4
188 358 m 1
 118 218 l 2
 114 209 115 201 118 194 c 2
 188 52 l 1
 185 45 180 41 171 39 c 1
 132 89 94 140 52 190 c 0
 43 201 42 210 52 221 c 0
 94 271 132 321 171 371 c 1
 178 370 185 366 188 358 c 1
EndSplineSet
EndChar

StartChar: x
Encoding: 120 120 68
Width: 233
Flags: MW
LayerCount: 2
Fore
SplineSet
365 372 m 2
 446 372 l 1
 457 367 455 333 440 331 c 1
 368 331 l 1
 370 314 370 297 370 280 c 0
 370 211 329 121 202 121 c 0
 184 121 170 123 158 124 c 1
 146 117 114 98 114 69 c 0
 114 46 137 27 184 27 c 0
 218 27 259 30 303 30 c 0
 359 30 443 20 443 -80 c 0
 443 -189 324 -269 194 -269 c 0
 71 -269 28 -203 28 -153 c 0
 28 -137 32 -124 39 -116 c 0
 56 -98 84 -72 107 -49 c 0
 116 -40 124 -31 115 -25 c 1
 76 -15 42 19 42 54 c 0
 42 59 46 63 57 71 c 0
 74 82 93 99 110 117 c 0
 115 123 120 131 120 136 c 1
 86 154 45 193 45 257 c 0
 45 343 119 408 208 408 c 0
 246 408 281 398 304 388 c 0
 336 374 343 372 365 372 c 2
271 -32 m 2
 237 -32 l 2
 205 -32 165 -34 151 -43 c 0
 127 -58 103 -89 103 -127 c 0
 103 -181 146 -226 237 -226 c 0
 326 -226 385 -176 385 -119 c 0
 385 -58 343 -32 271 -32 c 2
217 150 m 0
 271 150 299 193 299 254 c 0
 299 322 271 379 210 379 c 0
 162 379 126 335 126 267 c 0
 126 196 169 150 217 150 c 0
228 496 m 0
 193 496 161 521 161 564 c 0
 161 634 213 667 271 683 c 1
 280 680 281 663 276 659 c 1
 252 652 217 629 217 599 c 0
 217 570 248 560 256 556 c 1
 265 550 270 543 270 533 c 0
 270 513 256 496 228 496 c 0
188 358 m 1
 118 218 l 2
 114 209 115 201 118 194 c 2
 188 52 l 1
 185 45 180 41 171 39 c 1
 132 89 94 140 52 190 c 0
 43 201 42 210 52 221 c 0
 94 271 132 321 171 371 c 1
 178 370 185 366 188 358 c 1
EndSplineSet
EndChar

StartChar: y
Encoding: 121 121 69
Width: 233
Flags: MW
LayerCount: 2
Fore
SplineSet
181 393 m 4
 284 393 329 286 329 193 c 4
 329 96 284 -7 181 -7 c 4
 77 -7 32 96 32 193 c 4
 32 286 77 393 181 393 c 4
181 367 m 4
 108 367 107 242 107 191 c 4
 107 140 112 19 181 19 c 4
 249 19 254 140 254 191 c 4
 254 242 245 367 181 367 c 4
188 358 m 1
 118 218 l 2
 114 209 115 201 118 194 c 2
 188 52 l 1
 185 45 180 41 171 39 c 1
 132 89 94 140 52 190 c 0
 43 201 42 210 52 221 c 0
 94 271 132 321 171 371 c 1
 178 370 185 366 188 358 c 1
EndSplineSet
EndChar

StartChar: z
Encoding: 122 122 70
Width: 233
Flags: MW
LayerCount: 2
Fore
SplineSet
167 65 m 5
 208 337 l 5
 137 337 77 298 77 199 c 4
 77 142 107 85 167 65 c 5
239 333 m 5
 198 56 l 5
 207 55 216 54 225 54 c 4
 273 54 307 76 329 106 c 5
 337 105 343 98 343 91 c 5
 304 29 246 11 192 11 c 6
 191 11 l 5
 181 -58 l 5
 175 -65 156 -65 148 -58 c 5
 159 14 l 5
 80 25 18 82 18 176 c 4
 18 293 111 359 212 367 c 5
 220 424 l 5
 226 429 247 429 252 424 c 5
 244 367 l 5
 264 367 286 364 308 360 c 5
 319 351 327 337 327 322 c 4
 327 304 321 294 314 294 c 4
 308 294 304 297 300 301 c 4
 285 317 266 327 239 333 c 5
188 358 m 1
 118 218 l 2
 114 209 115 201 118 194 c 2
 188 52 l 1
 185 45 180 41 171 39 c 1
 132 89 94 140 52 190 c 0
 43 201 42 210 52 221 c 0
 94 271 132 321 171 371 c 1
 178 370 185 366 188 358 c 1
EndSplineSet
EndChar

StartChar: braceleft
Encoding: 123 123 71
Width: 233
Flags: MW
LayerCount: 2
Fore
SplineSet
313 256 m 6
 132 256 l 6
 106 256 105 254 105 235 c 4
 105 193 119 132 163 93 c 4
 210 51 267 32 353 32 c 4
 439 32 522 62 561 92 c 4
 593 117 596 134 596 141 c 4
 596 146 596 153 591 159 c 4
 587 164 579 171 579 183 c 4
 579 199 590 215 611 215 c 4
 633 215 650 199 650 171 c 4
 650 144 628 105 567 62 c 4
 506 19 403 -14 311 -14 c 4
 233 -14 164 -2 118 32 c 5
 73 64 35 120 35 198 c 4
 35 303 112 408 234 408 c 4
 320 408 376 349 376 289 c 4
 376 275 374 267 372 263 c 4
 369 257 355 256 313 256 c 6
123 286 m 6
 190 286 l 6
 264 286 286 290 294 296 c 4
 297 298 300 302 300 315 c 4
 300 343 281 378 223 378 c 4
 164 378 118 326 114 291 c 4
 114 289 116 286 123 286 c 6
188 358 m 1
 118 218 l 2
 114 209 115 201 118 194 c 2
 188 52 l 1
 185 45 180 41 171 39 c 1
 132 89 94 140 52 190 c 0
 43 201 42 210 52 221 c 0
 94 271 132 321 171 371 c 1
 178 370 185 366 188 358 c 1
EndSplineSet
EndChar

StartChar: bar
Encoding: 124 124 72
Width: 233
Flags: MW
LayerCount: 2
Fore
SplineSet
222 -12 m 0
 187 -12 149 12 121 39 c 0
 89 70 56 128 56 189 c 0
 56 232 78 265 112 285 c 2
 172 320 l 2
 196 334 208 347 208 368 c 0
 208 383 205 406 198 426 c 1
 200 432 206 434 211 431 c 1
 225 408 253 370 253 329 c 0
 253 294 220 276 200 264 c 2
 138 227 l 2
 105 207 85 188 85 162 c 0
 85 146 87 129 101 111 c 0
 122 84 148 62 239 62 c 0
 247 62 265 41 265 26 c 0
 265 8 252 -12 222 -12 c 0
202 648 m 0
 233 648 253 626 253 598 c 0
 253 569 233 544 202 544 c 0
 173 544 151 567 151 598 c 0
 151 628 176 648 202 648 c 0
188 358 m 1
 118 218 l 2
 114 209 115 201 118 194 c 2
 188 52 l 1
 185 45 180 41 171 39 c 1
 132 89 94 140 52 190 c 0
 43 201 42 210 52 221 c 0
 94 271 132 321 171 371 c 1
 178 370 185 366 188 358 c 1
EndSplineSet
EndChar

StartChar: braceright
Encoding: 125 125 73
Width: 549
Flags: MW
LayerCount: 2
Fore
SplineSet
210 589 m 6
 210 378 l 6
 210 351 213 351 243 351 c 6
 311 351 l 6
 352 351 384 353 396 357 c 4
 407 361 415 366 421 392 c 6
 430 432 l 5
 435 438 452 438 456 432 c 5
 456 408 452 368 452 331 c 4
 452 295 456 257 456 234 c 5
 452 228 437 228 430 234 c 5
 420 273 l 6
 415 291 407 305 388 311 c 4
 374 315 349 316 311 316 c 6
 243 316 l 6
 213 316 210 315 210 289 c 6
 210 150 l 6
 210 45 212 30 271 25 c 2
 305 22 l 1
 311 18 309 0 303 -3 c 1
 244 -1 210 0 170 0 c 0
 126 0 92 -1 45 -3 c 1
 39 0 37 16 43 22 c 1
 68 25 l 2
 126 32 128 45 128 150 c 6
 128 510 l 6
 128 615 126 629 68 636 c 6
 52 638 l 5
 46 642 48 660 54 663 c 5
 96 661 130 660 170 660 c 6
 354 660 l 6
 418 660 476 660 489 663 c 5
 489 617 490 569 492 531 c 5
 489 525 475 522 468 528 c 5
 460 573 448 610 398 623 c 4
 376 629 343 629 301 629 c 6
 240 629 l 6
 210 629 210 627 210 589 c 6
210 596 m 6
 210 150 l 6
 210 45 212 32 276 25 c 2
 303 22 l 1
 309 17 307 0 301 -3 c 1
 244 -1 211 0 171 0 c 0
 129 0 93 -1 49 -3 c 1
 43 0 41 16 47 22 c 1
 68 25 l 2
 126 33 128 45 128 150 c 6
 128 519 l 6
 128 604 126 621 81 626 c 6
 45 630 l 5
 38 636 39 651 47 655 c 5
 100 662 162 663 245 663 c 4
 328 663 390 652 437 623 c 4
 483 594 517 542 517 473 c 4
 517 381 460 335 417 314 c 4
 373 293 320 284 279 284 c 5
 272 287 272 302 278 304 c 4
 386 324 425 385 425 472 c 4
 425 569 368 632 264 632 c 4
 211 632 210 628 210 596 c 6
EndSplineSet
EndChar

StartChar: asciitilde
Encoding: 126 126 74
Width: 549
Flags: MW
LayerCount: 2
Fore
SplineSet
128 150 m 2
 128 509 l 2
 128 604 125 621 84 626 c 2
 52 630 l 1
 45 635 45 651 53 655 c 1
 109 660 178 663 276 663 c 0
 338 663 397 658 443 633 c 0
 491 608 526 563 526 493 c 0
 526 398 451 346 401 326 c 1
 396 320 401 310 406 302 c 0
 486 173 539 93 607 36 c 0
 624 21 649 10 676 8 c 1
 681 6 682 -2 677 -6 c 1
 668 -9 652 -11 633 -11 c 0
 548 -11 497 14 426 115 c 0
 400 152 359 221 328 266 c 0
 313 288 297 298 257 298 c 0
 212 298 210 297 210 276 c 2
 210 150 l 2
 210 45 212 33 270 25 c 2
 291 22 l 1
 297 17 295 0 289 -3 c 1
 244 -1 210 0 170 0 c 0
 128 0 92 -1 45 -3 c 1
 39 0 37 15 43 22 c 1
 68 25 l 2
 126 32 128 45 128 150 c 2
210 600 m 2
 210 366 l 2
 210 348 210 337 213 333 c 0
 216 330 231 328 282 328 c 0
 318 328 356 332 385 354 c 0
 412 375 435 410 435 478 c 0
 435 557 386 632 275 632 c 0
 213 632 210 628 210 600 c 2
210 596 m 2
 210 150 l 2
 210 45 212 32 276 25 c 2
 303 22 l 1
 309 17 307 0 301 -3 c 1
 244 -1 211 0 171 0 c 0
 129 0 93 -1 49 -3 c 1
 43 0 41 16 47 22 c 1
 68 25 l 2
 126 33 128 45 128 150 c 2
 128 519 l 2
 128 604 126 621 81 626 c 2
 45 630 l 1
 38 636 39 651 47 655 c 1
 100 662 162 663 245 663 c 0
 328 663 390 652 437 623 c 0
 483 594 517 542 517 473 c 0
 517 381 460 335 417 314 c 0
 373 293 320 284 279 284 c 1
 272 287 272 302 278 304 c 0
 386 324 425 385 425 472 c 0
 425 569 368 632 264 632 c 0
 211 632 210 628 210 596 c 2
EndSplineSet
EndChar

StartChar: uni007F
Encoding: 127 127 75
Width: 233
Flags: HMW
LayerCount: 2
Fore
SplineSet
216 375 m 0
 216 318 193 283 141 270 c 1
 141 266 l 1
 108 258 102 258 67 257 c 1
 62 263 62 273 67 279 c 1
 150 285 154 328 154 362 c 0
 154 755.775 216 710.806 216 375 c 0
188 358 m 1
 118 218 l 1
 15.4475 -12.7431 52 221 52 221 c 1
 94 271 132 321 171 371 c 1
 178 370 185 366 188 358 c 1
EndSplineSet
EndChar

StartChar: uni00A0
Encoding: 160 160 76
Width: 1000
Flags: HMW
LayerCount: 2
Fore
SplineSet
63.3162 650.279 m 0
 68.9193 659.984 80.6813 664.265 91.2117 660.432 c 0
 169.485 631.942 254.482 648.521 332.815 677.033 c 0
 344.799 681.395 358.05 675.216 362.412 663.232 c 0
 366.774 651.248 360.595 637.997 348.611 633.635 c 0
 291.142 612.718 228.842 608.81 171.373 587.892 c 1
 181.993 527.664 209.758 471.757 220.378 411.529 c 0
 222.592 398.97 214.206 386.993 201.647 384.779 c 0
 189.088 382.564 177.111 390.95 174.897 403.509 c 0
 160.422 485.604 132.277 567.497 68.471 621.044 c 0
 59.8868 628.248 57.7132 640.574 63.3162 650.279 c 0
314.671 255.493 m 0
 314.671 413.523 220 556.15 74.3799 617.539 c 0
 62.6807 622.471 57.1885 635.968 62.1191 647.667 c 0
 67.0508 659.366 80.5479 664.858 92.2471 659.928 c 0
 254.907 591.366 360.671 432.012 360.671 255.493 c 0
 360.671 78.9746 314.671 97.4629 314.671 255.493 c 0
EndSplineSet
EndChar

StartChar: exclamdown
Encoding: 161 161 77
Width: 549
Flags: MW
LayerCount: 2
Fore
SplineSet
128 150 m 6
 128 509 l 6
 128 604 125 621 84 626 c 6
 52 630 l 5
 45 635 45 651 53 655 c 5
 109 660 178 663 276 663 c 4
 338 663 397 658 443 633 c 4
 491 608 526 563 526 493 c 4
 526 398 451 346 401 326 c 5
 396 320 401 310 406 302 c 4
 486 173 539 93 607 36 c 4
 624 21 649 10 676 8 c 5
 681 6 682 -2 677 -6 c 5
 668 -9 652 -11 633 -11 c 4
 548 -11 497 14 426 115 c 4
 400 152 359 221 328 266 c 4
 313 288 297 298 257 298 c 4
 212 298 210 297 210 276 c 6
 210 150 l 6
 210 45 212 33 270 25 c 6
 291 22 l 5
 297 17 295 0 289 -3 c 5
 244 -1 210 0 170 0 c 4
 128 0 92 -1 45 -3 c 5
 39 0 37 15 43 22 c 5
 68 25 l 6
 126 32 128 45 128 150 c 6
210 600 m 6
 210 366 l 6
 210 348 210 337 213 333 c 4
 216 330 231 328 282 328 c 4
 318 328 356 332 385 354 c 4
 412 375 435 410 435 478 c 4
 435 557 386 632 275 632 c 4
 213 632 210 628 210 600 c 6
336 -38 m 4
 368 -38 410 -65 410 -121 c 4
 410 -192 354 -231 289 -249 c 5
 280 -245 279 -222 283 -218 c 5
 310 -210 353 -187 353 -148 c 4
 353 -117 314 -105 306 -101 c 4
 294 -95 290 -86 290 -76 c 4
 290 -57 306 -38 336 -38 c 4
210 596 m 2
 210 150 l 2
 210 45 212 32 276 25 c 2
 303 22 l 1
 309 17 307 0 301 -3 c 1
 244 -1 211 0 171 0 c 0
 129 0 93 -1 49 -3 c 1
 43 0 41 16 47 22 c 1
 68 25 l 2
 126 33 128 45 128 150 c 2
 128 519 l 2
 128 604 126 621 81 626 c 2
 45 630 l 1
 38 636 39 651 47 655 c 1
 100 662 162 663 245 663 c 0
 328 663 390 652 437 623 c 0
 483 594 517 542 517 473 c 0
 517 381 460 335 417 314 c 0
 373 293 320 284 279 284 c 1
 272 287 272 302 278 304 c 0
 386 324 425 385 425 472 c 0
 425 569 368 632 264 632 c 0
 211 632 210 628 210 596 c 2
EndSplineSet
EndChar

StartChar: cent
Encoding: 162 162 78
Width: 549
Flags: MW
LayerCount: 2
Fore
SplineSet
128 150 m 6
 128 509 l 6
 128 604 125 621 84 626 c 6
 52 630 l 5
 45 635 45 651 53 655 c 5
 109 660 178 663 276 663 c 4
 338 663 397 658 443 633 c 4
 491 608 526 563 526 493 c 4
 526 398 451 346 401 326 c 5
 396 320 401 310 406 302 c 4
 486 173 539 93 607 36 c 4
 624 21 649 10 676 8 c 5
 681 6 682 -2 677 -6 c 5
 668 -9 652 -11 633 -11 c 4
 548 -11 497 14 426 115 c 4
 400 152 359 221 328 266 c 4
 313 288 297 298 257 298 c 4
 212 298 210 297 210 276 c 6
 210 150 l 6
 210 45 212 33 270 25 c 6
 291 22 l 5
 297 17 295 0 289 -3 c 5
 244 -1 210 0 170 0 c 4
 128 0 92 -1 45 -3 c 5
 39 0 37 15 43 22 c 5
 68 25 l 6
 126 32 128 45 128 150 c 6
210 600 m 6
 210 366 l 6
 210 348 210 337 213 333 c 4
 216 330 231 328 282 328 c 4
 318 328 356 332 385 354 c 4
 412 375 435 410 435 478 c 4
 435 557 386 632 275 632 c 4
 213 632 210 628 210 600 c 6
268 713 m 6
 144 826 l 5
 144 835 151 846 159 846 c 5
 273 789 l 5
 286 781 290 781 305 789 c 6
 420 846 l 5
 427 845 431 835 431 826 c 5
 309 713 l 6
 295 700 282 701 268 713 c 6
210 596 m 2
 210 150 l 2
 210 45 212 32 276 25 c 2
 303 22 l 1
 309 17 307 0 301 -3 c 1
 244 -1 211 0 171 0 c 0
 129 0 93 -1 49 -3 c 1
 43 0 41 16 47 22 c 1
 68 25 l 2
 126 33 128 45 128 150 c 2
 128 519 l 2
 128 604 126 621 81 626 c 2
 45 630 l 1
 38 636 39 651 47 655 c 1
 100 662 162 663 245 663 c 0
 328 663 390 652 437 623 c 0
 483 594 517 542 517 473 c 0
 517 381 460 335 417 314 c 0
 373 293 320 284 279 284 c 1
 272 287 272 302 278 304 c 0
 386 324 425 385 425 472 c 0
 425 569 368 632 264 632 c 0
 211 632 210 628 210 596 c 2
EndSplineSet
EndChar

StartChar: sterling
Encoding: 163 163 79
Width: 549
Flags: MW
LayerCount: 2
Fore
SplineSet
128 150 m 6
 128 509 l 6
 128 604 125 621 84 626 c 6
 52 630 l 5
 45 635 45 651 53 655 c 5
 109 660 178 663 276 663 c 4
 338 663 397 658 443 633 c 4
 491 608 526 563 526 493 c 4
 526 398 451 346 401 326 c 5
 396 320 401 310 406 302 c 4
 486 173 539 93 607 36 c 4
 624 21 649 10 676 8 c 5
 681 6 682 -2 677 -6 c 5
 668 -9 652 -11 633 -11 c 4
 548 -11 497 14 426 115 c 4
 400 152 359 221 328 266 c 4
 313 288 297 298 257 298 c 4
 212 298 210 297 210 276 c 6
 210 150 l 6
 210 45 212 33 270 25 c 6
 291 22 l 5
 297 17 295 0 289 -3 c 5
 244 -1 210 0 170 0 c 4
 128 0 92 -1 45 -3 c 5
 39 0 37 15 43 22 c 5
 68 25 l 6
 126 32 128 45 128 150 c 6
210 600 m 6
 210 366 l 6
 210 348 210 337 213 333 c 4
 216 330 231 328 282 328 c 4
 318 328 356 332 385 354 c 4
 412 375 435 410 435 478 c 4
 435 557 386 632 275 632 c 4
 213 632 210 628 210 600 c 6
432 778 m 6
 265 706 l 5
 258 708 252 719 255 730 c 5
 396 845 l 5
 408 853 417 858 423 858 c 4
 430 858 443 851 451 835 c 4
 461 816 461 802 458 794 c 5
 454 789 447 784 432 778 c 6
210 596 m 2
 210 150 l 2
 210 45 212 32 276 25 c 2
 303 22 l 1
 309 17 307 0 301 -3 c 1
 244 -1 211 0 171 0 c 0
 129 0 93 -1 49 -3 c 1
 43 0 41 16 47 22 c 1
 68 25 l 2
 126 33 128 45 128 150 c 2
 128 519 l 2
 128 604 126 621 81 626 c 2
 45 630 l 1
 38 636 39 651 47 655 c 1
 100 662 162 663 245 663 c 0
 328 663 390 652 437 623 c 0
 483 594 517 542 517 473 c 0
 517 381 460 335 417 314 c 0
 373 293 320 284 279 284 c 1
 272 287 272 302 278 304 c 0
 386 324 425 385 425 472 c 0
 425 569 368 632 264 632 c 0
 211 632 210 628 210 596 c 2
EndSplineSet
EndChar

StartChar: currency
Encoding: 164 164 80
Width: 549
Flags: MW
LayerCount: 2
Fore
SplineSet
134 157 m 6
 134 501 l 6
 134 559 131 607 121 622 c 4
 113 634 99 639 74 644 c 6
 60 647 l 5
 57 652 58 660 63 663 c 5
 85 662 102 661 118 661 c 4
 135 660 151 660 170 660 c 6
 356 660 l 6
 420 660 479 660 494 663 c 5
 494 621 495 574 497 535 c 5
 495 531 486 530 479 532 c 5
 471 578 458 618 402 630 c 4
 382 634 349 637 304 637 c 6
 255 637 l 6
 229 637 217 634 215 625 c 4
 212 615 210 598 210 550 c 6
 210 379 l 6
 210 347 211 344 239 344 c 6
 275 344 l 6
 342 344 381 346 402 352 c 4
 416 356 426 362 432 387 c 6
 442 427 l 5
 446 430 457 430 460 426 c 5
 458 401 456 366 456 328 c 4
 456 292 458 254 460 232 c 5
 457 229 448 229 442 231 c 5
 430 274 l 6
 425 293 418 303 402 309 c 4
 377 317 340 317 275 317 c 6
 239 317 l 6
 211 317 210 315 210 285 c 6
 210 157 l 6
 210 100 214 51 224 38 c 5
 234 27 254 22 270 19 c 6
 307 13 l 5
 311 8 311 0 306 -3 c 5
 260 -1 217 0 170 0 c 4
 120 0 82 -1 49 -3 c 5
 44 -1 42 9 47 13 c 5
 74 18 l 6
 90 21 112 25 121 37 c 5
 130 51 134 100 134 157 c 6
210 596 m 2
 210 150 l 2
 210 45 212 32 276 25 c 2
 303 22 l 1
 309 17 307 0 301 -3 c 1
 244 -1 211 0 171 0 c 0
 129 0 93 -1 49 -3 c 1
 43 0 41 16 47 22 c 1
 68 25 l 2
 126 33 128 45 128 150 c 2
 128 519 l 2
 128 604 126 621 81 626 c 2
 45 630 l 1
 38 636 39 651 47 655 c 1
 100 662 162 663 245 663 c 0
 328 663 390 652 437 623 c 0
 483 594 517 542 517 473 c 0
 517 381 460 335 417 314 c 0
 373 293 320 284 279 284 c 1
 272 287 272 302 278 304 c 0
 386 324 425 385 425 472 c 0
 425 569 368 632 264 632 c 0
 211 632 210 628 210 596 c 2
EndSplineSet
EndChar

StartChar: yen
Encoding: 165 165 81
Width: 261
Flags: MW
LayerCount: 2
Fore
SplineSet
51 31 m 6
 84 32 l 6
 102 33 113 37 116 52 c 4
 118 60 121 82 121 161 c 6
 121 264 l 6
 121 304 121 328 120 345 c 4
 118 372 108 378 54 378 c 4
 52 378 50 380 50 382 c 4
 50 388 53 398 55 402 c 4
 57 408 58 409 66 409 c 4
 137 409 153 408 160 408 c 4
 195 408 243 409 250 409 c 4
 255 409 260 408 261 404 c 6
 262 381 l 5
 200 373 195 367 193 358 c 4
 190 345 188 322 188 259 c 6
 188 167 l 6
 188 114 190 76 195 48 c 4
 197 37 201 35 251 30 c 5
 252 28 254 10 254 4 c 4
 254 0 251 -1 243 -1 c 4
 192 0 163 0 140 0 c 4
 99 -1 68 -2 59 -2 c 4
 55 -2 52 1 51 8 c 6
 49 27 l 6
 49 28 49 31 51 31 c 6
102 511 m 6
 101 511 l 6
 97 511 92 536 98 540 c 4
 120 556 127 560 136 583 c 5
 138 592 165 595 170 586 c 4
 184 562 180 564 206 551 c 5
 213 551 212 525 206 521 c 5
 183 511 180 502 170 475 c 5
 169 469 143 470 142 475 c 5
 131 495 118 511 102 511 c 6
90 701 m 2
 91 701 l 2
 97 701 101 697 101 684 c 0
 101 655 82 560 69 515 c 0
 68 511 65 510 44 503 c 0
 41 502 38 502 38 510 c 0
 39 570 37 635 32 674 c 0
 31 677 34 681 51 691 c 1
 71 698 83 701 90 701 c 2
217 701 m 2
 218 701 l 2
 224 701 229 697 229 684 c 0
 229 657 210 563 196 516 c 0
 195 512 193 511 171 503 c 0
 168 502 166 502 166 509 c 0
 166 569 164 635 159 675 c 0
 159 678 161 681 179 691 c 1
 199 698 211 701 217 701 c 2
EndSplineSet
EndChar

StartChar: brokenbar
Encoding: 166 166 82
Width: 480
Flags: MW
LayerCount: 2
Fore
SplineSet
129 628 m 6
 130 628 l 6
 156 628 175 600 175 578 c 4
 175 553 152 532 127 532 c 4
 106 532 84 555 84 577 c 4
 84 605 101 628 129 628 c 6
150 166 m 6
 150 -32 l 6
 150 -109 139 -133 115 -166 c 4
 83 -208 19 -253 -16 -265 c 4
 -28 -269 -42 -270 -50 -270 c 4
 -60 -270 -94 -262 -100 -250 c 4
 -103 -244 -106 -233 -101 -227 c 4
 -95 -219 -67 -191 -60 -191 c 4
 -56 -191 -52 -192 -47 -195 c 5
 -34 -200 -6 -210 5 -210 c 4
 15 -210 28 -210 42 -198 c 4
 59 -184 73 -167 77 -121 c 4
 80 -79 86 3 86 100 c 6
 86 156 l 6
 86 212 86 273 85 290 c 4
 84 318 82 321 33 327 c 4
 31 328 33 347 37 349 c 4
 80 369 133 394 141 400 c 4
 146 403 150 404 153 404 c 4
 156 404 159 397 159 391 c 4
 159 370 150 269 150 166 c 6
291 586 m 1
 273 356 l 1
 338 329 376 308 405 280 c 0
 437 249 450 213 450 174 c 0
 450 106 420 57 372 30 c 0
 342 14 287 3 250 0 c 1
 247 -44 245 -74 243 -101 c 0
 243 -107 243 -110 235 -113 c 0
 224 -118 216 -118 210 -118 c 0
 202 -118 201 -109 202 -98 c 0
 203 -71 206 -42 208 0 c 1
 171 1 143 6 109 11 c 0
 102 13 96 12 91 10 c 0
 86 7 79 3 73 -2 c 0
 67 -7 65 -8 63 -8 c 0
 60 -8 57 -7 54 -1 c 0
 51 5 49 18 49 30 c 0
 47 78 39 122 32 164 c 1
 30 168 31 172 35 173 c 0
 40 175 52 176 57 176 c 0
 61 176 64 174 66 164 c 0
 69 149 77 125 91 104 c 0
 115 68 157 39 211 30 c 1
 218 113 226 203 232 297 c 1
 209 307 128 336 89 383 c 0
 72 404 58 442 58 463 c 0
 58 532 88 569 133 592 c 0
 147 599 199 620 254 621 c 1
 256 659 257 688 258 713 c 0
 258 717 257 720 261 722 c 0
 268 727 279 720 289 712 c 1
 297 704 299 697 298 688 c 0
 297 668 295 648 293 620 c 1
 317 620 337 617 348 616 c 1
 362 613 369 613 371 613 c 0
 378 613 386 620 395 630 c 1
 403 631 412 630 413 628 c 1
 411 578 413 536 422 490 c 0
 423 484 422 481 420 478 c 1
 417 476 406 470 398 469 c 0
 396 468 396 469 395 474 c 0
 385 504 380 538 356 558 c 0
 341 570 322 580 291 586 c 1
125 490 m 2
 125 489 l 2
 125 464 136 440 149 426 c 0
 166 406 185 393 238 372 c 1
 242 451 248 530 252 590 c 1
 183 590 125 560 125 490 c 2
381 163 m 2
 381 164 l 2
 381 196 365 219 338 242 c 1
 323 253 298 267 269 281 c 1
 263 189 257 104 252 30 c 1
 333 34 381 90 381 163 c 2
EndSplineSet
EndChar

StartChar: section
Encoding: 167 167 83
Width: 681
Flags: MW
LayerCount: 2
Fore
SplineSet
342 136 m 6
 342 605 l 6
 342 619 340 625 332 633 c 4
 311 653 283 660 260 660 c 4
 240 660 221 654 202 637 c 4
 173 612 158 562 157 465 c 6
 155 101 l 6
 155 37 158 35 167 34 c 4
 175 34 206 37 213 37 c 4
 218 37 221 36 221 18 c 4
 221 0 220 0 211 0 c 4
 181 0 151 0 119 0 c 4
 101 0 44 -5 29 -5 c 4
 25 -5 24 -4 25 2 c 4
 28 24 29 25 33 26 c 4
 89 39 91 41 91 152 c 6
 91 316 l 6
 91 333 87 335 63 337 c 6
 35 339 l 6
 33 339 28 344 29 347 c 6
 36 362 l 5
 41 370 43 371 48 373 c 4
 51 374 76 380 91 381 c 5
 91 447 l 6
 91 527 101 582 152 632 c 4
 174 653 213 683 250 697 c 4
 276 707 290 709 306 709 c 4
 318 709 348 699 363 690 c 5
 382 701 391 706 397 710 c 4
 402 713 409 712 412 709 c 4
 414 706 414 706 414 700 c 4
 414 629 412 564 412 507 c 6
 412 345 l 6
 412 343 415 339 417 340 c 4
 438 348 499 375 527 385 c 5
 547 391 565 396 585 396 c 4
 679 396 694 312 694 234 c 4
 694 206 691 146 690 79 c 4
 689 43 701 40 736 27 c 4
 744 23 745 23 745 20 c 6
 745 5 l 6
 745 -1 744 -2 737 -2 c 6
 670 -2 l 6
 621 -2 579 -8 575 -8 c 4
 571 -8 570 -7 569 4 c 4
 567 17 568 18 571 20 c 4
 574 22 590 27 600 32 c 4
 618 41 622 47 625 73 c 4
 630 115 629 146 629 183 c 4
 629 280 612 307 590 323 c 4
 565 342 546 344 526 344 c 4
 491 344 449 328 420 311 c 4
 412 307 408 303 408 282 c 6
 408 172 l 6
 408 120 411 96 415 66 c 4
 419 41 433 36 467 32 c 4
 471 32 472 30 474 4 c 4
 474 0 473 0 469 0 c 4
 391 0 340 0 295 -10 c 4
 289 -11 287 -10 286 -7 c 6
 280 6 l 6
 277 11 278 14 282 16 c 4
 338 39 342 40 342 136 c 6
306 482 m 2
 306 481 l 2
 306 404 275 362 259 347 c 0
 238 326 188 297 162 297 c 0
 94 297 42 348 42 446 c 0
 42 501 58 547 94 584 c 0
 113 603 159 629 190 629 c 0
 278 629 306 549 306 482 c 2
176 337 m 2
 177 337 l 2
 188 337 206 342 216 352 c 1
 226 359 246 389 246 463 c 0
 246 563 209 593 166 593 c 0
 152 593 139 589 127 576 c 1
 114 564 99 530 99 481 c 0
 99 357 147 337 176 337 c 2
530 641 m 2
 531 641 l 2
 532 641 553 625 559 619 c 1
 450 457 260 151 160 -22 c 0
 158 -27 154 -28 151 -28 c 0
 147 -28 124 -6 123 0 c 1
 255 218 389 424 515 629 c 0
 521 639 524 641 530 641 c 2
488 -14 m 2
 487 -14 l 2
 402 -14 372 65 372 133 c 0
 372 211 404 254 427 276 c 0
 451 299 494 318 525 318 c 0
 584 318 639 267 639 172 c 0
 639 99 614 57 590 33 c 0
 566 10 531 -14 488 -14 c 2
513 22 m 2
 514 22 l 2
 526 22 540 29 549 40 c 1
 560 50 580 97 580 148 c 0
 580 210 573 282 499 282 c 0
 457 282 430 238 430 146 c 0
 430 29 505 22 513 22 c 2
EndSplineSet
EndChar

StartChar: dieresis
Encoding: 168 168 84
Width: 751
Flags: MW
LayerCount: 2
Fore
SplineSet
355 -257 m 6
 348 -236 l 5
 408 -218 413 -207 416 -173 c 4
 418 -145 424 -94 424 55 c 6
 424 170 l 6
 424 235 424 289 424 388 c 6
 424 561 l 5
 414 569 390 572 362 572 c 4
 265 572 232 497 232 456 c 4
 232 407 256 396 263 396 c 4
 265 396 270 397 272 398 c 4
 275 399 277 399 280 397 c 4
 283 395 283 393 283 391 c 4
 284 361 290 328 301 291 c 4
 301 289 294 283 293 283 c 4
 278 283 275 284 266 296 c 4
 243 325 224 367 174 367 c 4
 157 367 130 355 130 315 c 4
 130 266 169 245 213 223 c 4
 237 211 324 178 324 100 c 4
 324 73 311 42 278 20 c 5
 247 -2 214 -7 182 -7 c 4
 157 -7 111 0 97 2 c 4
 81 5 77 6 62 1 c 4
 61 1 56 1 54 3 c 4
 52 6 52 9 53 14 c 4
 58 48 56 86 54 123 c 4
 54 125 55 126 57 127 c 4
 60 129 66 131 80 134 c 5
 87 107 105 74 123 55 c 4
 150 27 173 22 188 22 c 4
 211 22 254 42 254 81 c 4
 254 139 195 160 165 177 c 4
 140 191 69 223 69 287 c 4
 69 319 83 345 113 370 c 4
 139 392 173 399 192 399 c 4
 198 399 203 399 211 398 c 5
 199 423 197 447 197 463 c 4
 197 486 197 502 209 527 c 4
 230 569 276 619 386 619 c 4
 411 619 434 625 470 649 c 4
 478 654 486 651 486 636 c 4
 486 486 483 461 483 376 c 4
 483 366 483 356 483 346 c 5
 533 365 596 394 629 394 c 4
 662 394 703 379 736 349 c 4
 781 308 796 254 796 210 c 4
 796 153 765 93 729 61 c 4
 713 47 659 14 603 -4 c 4
 593 -7 581 -8 574 -8 c 4
 540 -8 511 -2 495 3 c 4
 493 4 488 -1 487 -7 c 4
 485 -20 483 -97 483 -127 c 4
 483 -213 490 -215 505 -216 c 4
 525 -217 538 -218 565 -218 c 4
 572 -218 573 -220 571 -224 c 6
 566 -240 l 5
 564 -250 563 -251 557 -250 c 5
 515 -253 396 -259 359 -260 c 4
 357 -260 356 -259 355 -257 c 6
733 180 m 6
 733 181 l 6
 733 225 724 259 693 293 c 4
 664 325 623 344 575 344 c 4
 547 344 505 329 485 311 c 4
 482 309 482 303 482 290 c 6
 482 224 l 6
 482 168 486 127 491 83 c 4
 492 77 494 73 503 67 c 4
 531 48 567 40 608 40 c 4
 637 40 659 47 682 63 c 4
 708 82 733 120 733 180 c 6
284 625 m 2
 285 625 l 2
 314 625 346 608 362 591 c 0
 390 561 399 530 399 494 c 0
 399 466 387 432 380 423 c 1
 365 409 344 389 328 371 c 0
 322 365 325 362 331 360 c 1
 366 341 414 295 450 238 c 1
 456 231 459 231 464 238 c 0
 528 327 586 444 586 470 c 0
 586 483 583 485 561 497 c 1
 564 505 569 515 573 520 c 0
 575 522 577 522 582 520 c 0
 590 517 615 512 643 512 c 0
 665 512 691 514 706 520 c 1
 707 519 710 517 711 514 c 0
 713 509 714 482 711 481 c 1
 671 482 663 477 658 472 c 0
 640 455 589 374 553 316 c 0
 522 265 505 241 479 203 c 0
 473 193 471 189 474 181 c 0
 502 117 541 49 621 49 c 0
 657 49 675 75 685 113 c 0
 686 114 696 115 701 114 c 0
 704 114 713 104 711 100 c 0
 691 42 647 -17 582 -17 c 0
 503 -17 461 52 422 118 c 1
 393 76 356 34 317 9 c 0
 302 -1 266 -12 242 -12 c 0
 208 -12 151 -11 96 42 c 1
 57 81 47 130 47 167 c 0
 47 216 71 259 92 284 c 0
 104 298 128 320 180 361 c 0
 183 363 180 368 175 373 c 0
 161 387 136 420 136 463 c 0
 136 498 145 532 179 566 c 0
 188 576 205 591 235 611 c 0
 251 621 261 625 284 625 c 2
259 571 m 2
 258 571 l 2
 241 571 217 567 203 550 c 1
 192 540 182 521 182 499 c 0
 182 480 183 466 195 446 c 1
 218 412 264 391 291 391 c 0
 302 391 320 400 330 413 c 0
 337 422 347 440 347 461 c 0
 347 555 286 571 259 571 c 2
218 339 m 2
 217 339 l 2
 211 339 204 339 194 332 c 0
 152 306 113 254 113 200 c 0
 113 163 122 133 141 106 c 0
 169 67 213 54 253 54 c 0
 272 54 311 60 347 85 c 1
 372 101 392 128 407 148 c 0
 410 152 409 159 407 165 c 0
 379 235 330 280 294 306 c 0
 267 326 233 339 218 339 c 2
EndSplineSet
EndChar

StartChar: copyright
Encoding: 169 169 85
Width: 333
Flags: MW
LayerCount: 2
Fore
SplineSet
142 -103 m 1
 154 19 l 1
 107 32 53 53 53 110 c 0
 53 144 74 173 100 188 c 0
 116 197 146 206 173 208 c 1
 178 279 l 2
 178 283 179 285 181 285 c 0
 188 285 201 282 211 273 c 1
 205 207 l 1
 226 206 242 203 252 199 c 0
 257 197 259 198 263 208 c 0
 265 211 287 209 286 207 c 0
 284 189 285 144 288 123 c 0
 288 119 288 115 287 114 c 0
 284 112 272 108 262 107 c 1
 252 148 240 164 201 175 c 1
 189 68 l 1
 247 50 304 31 301 -36 c 0
 300 -76 279 -102 244 -119 c 0
 228 -127 190 -134 172 -135 c 1
 164 -219 l 1
 162 -220 142 -223 132 -223 c 0
 129 -223 127 -220 128 -217 c 2
 137 -135 l 1
 114 -134 91 -129 76 -126 c 0
 72 -125 69 -125 63 -127 c 1
 59 -130 48 -135 45 -135 c 0
 38 -135 36 -127 36 -114 c 0
 36 -88 33 -65 30 -27 c 0
 30 -24 50 -23 54 -24 c 1
 67 -67 99 -96 142 -103 c 1
159 77 m 1
 169 179 l 1
 132 180 102 155 102 130 c 0
 102 99 128 85 159 77 c 1
184 11 m 1
 175 -105 l 1
 214 -103 249 -80 249 -45 c 0
 249 -13 218 -1 184 11 c 1
283 699 m 2
 283 698 l 2
 283 695 281 692 274 684 c 0
 216 626 109 474 109 240 c 0
 109 26 191 -103 257 -164 c 1
 264 -172 271 -178 277 -182 c 0
 281 -185 281 -189 277 -198 c 0
 273 -207 267 -214 263 -218 c 0
 260 -220 252 -220 250 -219 c 0
 213 -203 159 -145 114 -47 c 0
 80 29 60 131 60 216 c 0
 60 315 74 417 124 527 c 0
 164 613 218 680 261 718 c 0
 268 723 275 721 277 718 c 0
 281 714 283 706 283 699 c 2
EndSplineSet
EndChar

StartChar: ordfeminine
Encoding: 170 170 86
Width: 333
Flags: MW
LayerCount: 2
Fore
SplineSet
169 376 m 5
 175 358 l 5
 134 350 131 347 138 319 c 4
 143 298 189 176 222 98 c 5
 223 92 228 95 229 97 c 4
 259 161 281 207 308 274 c 4
 312 282 310 289 309 295 c 4
 292 347 291 346 245 353 c 5
 245 357 247 368 249 374 c 5
 250 381 254 382 260 382 c 4
 319 382 364 383 404 385 c 5
 404 367 404 359 399 356 c 5
 365 349 359 345 364 330 c 4
 388 254 419 162 445 95 c 4
 446 91 453 91 455 95 c 4
 473 131 513 226 530 274 c 4
 540 304 549 329 549 335 c 4
 549 341 544 347 487 354 c 5
 487 360 492 380 495 382 c 5
 567 382 585 382 600 383 c 4
 617 384 627 385 636 385 c 4
 639 385 641 385 641 380 c 6
 641 365 l 6
 641 360 641 359 626 354 c 5
 612 348 605 337 591 309 c 4
 574 275 508 128 484 74 c 5
 465 36 453 8 449 -2 c 4
 446 -11 437 -14 426 -14 c 4
 422 -14 418 -12 415 -3 c 4
 389 77 361 156 331 230 c 4
 330 234 326 235 325 231 c 4
 267 107 248 62 220 -4 c 4
 218 -9 216 -14 210 -14 c 4
 203 -14 201 -14 197 -12 c 4
 194 -11 192 -7 190 1 c 4
 157 99 120 190 74 302 c 4
 58 341 51 347 18 352 c 4
 15 353 14 354 15 357 c 6
 22 375 l 5
 23 381 24 382 28 382 c 4
 76 382 116 385 160 385 c 4
 167 385 168 383 169 376 c 5
253 280 m 2
 253 279 l 2
 253 45 169 -112 86 -210 c 0
 75 -224 70 -226 66 -226 c 0
 58 -226 50 -216 48 -212 c 0
 46 -208 46 -204 48 -201 c 0
 96 -139 121 -94 147 -30 c 0
 187 65 203 178 203 276 c 0
 203 464 130 599 59 662 c 1
 51 671 45 678 45 684 c 0
 45 688 46 698 52 712 c 0
 54 718 60 721 72 713 c 0
 163 656 253 479 253 280 c 2
EndSplineSet
EndChar

StartChar: guillemotleft
Encoding: 171 171 87
Width: 210
Flags: MW
LayerCount: 2
Fore
SplineSet
205 347 m 2
 272 347 l 2
 318 347 354 348 380 350 c 0
 442 355 446 356 456 416 c 1
 461 419 485 420 487 420 c 1
 485 390 479 347 479 317 c 0
 480 285 484 254 486 226 c 1
 477 224 469 223 463 223 c 0
 459 223 457 226 456 229 c 0
 451 242 448 255 446 267 c 0
 440 296 430 303 387 307 c 0
 367 309 331 309 277 309 c 0
 222 309 212 308 206 307 c 0
 203 306 200 305 197 302 c 1
 194 297 187 266 187 183 c 0
 187 106 187 76 197 59 c 1
 212 40 239 34 334 34 c 0
 456 34 511 43 541 148 c 1
 546 148 553 148 563 146 c 1
 566 144 566 143 566 139 c 0
 564 97 549 35 536 5 c 1
 531 -1 528 -3 523 -3 c 0
 515 -3 509 -3 475 -2 c 0
 444 -1 375 0 292 0 c 0
 219 0 144 -4 61 -7 c 1
 60 -6 59 16 59 23 c 1
 60 24 62 27 64 27 c 0
 109 34 111 42 112 55 c 0
 114 71 119 134 119 239 c 2
 119 395 l 2
 119 541 113 591 112 597 c 0
 111 602 109 607 99 609 c 1
 89 613 68 616 48 622 c 0
 47 623 47 623 47 625 c 2
 49 649 l 2
 49 652 49 653 53 653 c 2
 89 653 l 2
 121 653 156 651 212 650 c 1
 313 650 l 2
 368 650 445 655 491 656 c 0
 504 656 510 654 515 651 c 0
 526 644 524 647 520 628 c 0
 513 588 512 526 512 501 c 1
 488 501 484 504 483 510 c 0
 473 580 470 619 384 619 c 2
 307 619 l 2
 248 619 212 617 202 613 c 0
 191 608 188 602 188 575 c 0
 188 505 190 433 190 361 c 0
 190 354 197 347 205 347 c 2
117 124 m 2
 118 124 l 2
 126 124 158 102 158 71 c 0
 158 7 95 -70 44 -102 c 1
 36 -105 31 -107 23 -107 c 0
 18 -107 16 -105 16 -102 c 0
 16 -100 19 -94 25 -86 c 0
 47 -61 82 -23 82 18 c 0
 82 34 72 49 58 60 c 0
 54 62 53 77 57 80 c 1
 75 87 96 107 105 118 c 0
 109 123 113 124 117 124 c 2
EndSplineSet
EndChar

StartChar: logicalnot
Encoding: 172 172 88
Width: 436
Flags: MW
LayerCount: 2
Fore
SplineSet
387 671 m 1
 280 411 191 170 108 -61 c 0
 54 -60 l 1
 144 180 228 409 330 677 c 1
 387 671 l 1
379 307 m 1
 415 297 l 1
 371 142 205 142 185 142 c 0
 172 142 150 148 133 151 c 1
 127 68 163 51 211 42 c 1
 209 8 l 1
 78 32 84 46 86 170 c 1
 63 179 49 186 42 194 c 1
 105 243 l 1
 181.023 206.989 325.404 137.838 379 307 c 1
EndSplineSet
EndChar

StartChar: uni00AD
Encoding: 173 173 89
Width: 558
Flags: MW
LayerCount: 2
Fore
SplineSet
158 295 m 2
 157 295 l 2
 153 295 152 300 151 305 c 0
 144 324 134 337 114 342 c 0
 106 345 105 357 104 371 c 1
 138 381 140 384 153 422 c 1
 179 418 182 412 185 404 c 0
 191 387 201 380 226 370 c 0
 229 369 232 344 229 343 c 0
 202 337 190 328 183 307 c 0
 180 300 169 295 158 295 c 2
130 -56 m 2
 129 -56 l 2
 68 -56 32 10 32 44 c 0
 32 79 37 102 54 133 c 0
 72 166 105 172 115 173 c 0
 129 175 159 176 166 176 c 0
 187 176 190 183 189 222 c 1
 194 225 203 229 208 231 c 0
 211 233 214 233 215 229 c 0
 215 225 230 178 230 153 c 0
 230 144 205 108 200 108 c 0
 189 108 175 108 162 108 c 0
 120 108 67 104 67 64 c 0
 67 24 97 13 158 13 c 0
 169 13 182 -9 182 -16 c 0
 182 -43 155 -56 130 -56 c 2
0 0 m 1
 0 700 l 1
 500 700 l 1
 500 0 l 1
 0 0 l 1
250 395 m 1
 420 650 l 1
 80 650 l 1
 250 395 l 1
280 350 m 1
 450 95 l 1
 450 605 l 1
 280 350 l 1
80 50 m 1
 420 50 l 1
 250 305 l 1
 80 50 l 1
50 605 m 1
 50 95 l 1
 220 350 l 1
 50 605 l 1
EndSplineSet
EndChar

StartChar: registered
Encoding: 174 174 90
Width: 395
Flags: HMW
LayerCount: 2
Fore
SplineSet
44 575 m 2
 44 576 l 2
 44 580 70 618 75 618 c 0
 82 619 155 568 182 548 c 0
 186 546 189 551 188 554 c 0
 186 585 181 648 180 680 c 0
 180 685 183 687 189 689 c 1
 202 690 226 685 234 682 c 0
 239 680 243 675 239 665 c 1
 236 652 223 578 218 553 c 0
 217 548 219 543 222 544 c 0
 251 557 295 582 329 597 c 1
 333 593 348 571 354 556 c 0
 356 550 351 543 348 543 c 0
 324 536 261 524 234 515 c 0
 231 514 230 512 232 510 c 0
 247 487 282 448 310 414 c 0
 317 406 316 400 305 389 c 1
 293 381 279 373 268 371 c 1
 254 395 217 463 198 498 c 1
 184 480 132 413 110 383 c 1
 104 381 86 388 63 416 c 0
 62 418 64 424 66 425 c 0
 84 445 145 491 168 512 c 0
 171 514 171 517 168 518 c 0
 141 532 72 555 52 568 c 0
 48 570 44 572 44 575 c 2
377 199 m 1
 375 -7 l 2
 375 -12 371 -16 368 -17 c 0
 355 -19 305 -20 300 -20 c 0
 297 -20 295 -18 295 -6 c 0
 295 1 301 169 302 193 c 0
 302 196 298 199 296 199 c 0
 287 198 126 194 73 194 c 2
 33 194 l 2
 25 194 22 199 22 203 c 0
 22 209 34 237 37 245 c 1
 71 301 169 434 267 559 c 1
 292 586 327 624 351 636 c 0
 357 640 364 643 369 643 c 0
 377 643 377 627 377 591 c 2
 377 249 l 1
 440 250 458 251 475 251 c 0
 478 251 477 245 474 220 c 0
 472 208 470 202 464 202 c 0
 444 202 392 200 377 199 c 1
314 540 m 2
 314 541 l 2
 314 556 311 558 309 555 c 0
 237 468 151 348 93 253 c 0
 89 246 95 240 98 240 c 0
 169 240 255 243 302 246 c 1
 304 303 314 530 314 540 c 2
EndSplineSet
EndChar

StartChar: macron
Encoding: 175 175 91
Width: 480
Flags: HMW
LayerCount: 2
Fore
SplineSet
242 639 m 2
 243 639 l 2
 295 639 334 620 369 586 c 0
 416 540 440 466 440 363 c 0
 440 263 410 174 355 104 c 0
 285 15 178 -24 122 -24 c 0
 107 -24 93 -23 78 -21 c 0
 73 -21 72 -17 76 -8 c 0
 78 -2 78 -2 82 -2 c 0
 112 1 205 24 273 98 c 1
 316 147 343 197 360 285 c 1
 321 267 226 236 208 236 c 0
 185 236 154 245 133 256 c 0
 81 284 36 341 36 419 c 0
 36 491 67 550 121 590 c 0
 155 615 204 639 242 639 c 2
211 598 m 2
 210 598 l 2
 185 598 157 584 144 571 c 0
 125 553 104 507 104 459 c 0
 104 405 130 351 165 321 c 0
 193 297 226 288 254 288 c 0
 284 288 332 303 354 318 c 0
 360 322 364 330 365 336 c 0
 369 354 367 417 356 462 c 0
 335 548 286 598 211 598 c 2
242 639 m 2
 243 639 l 2
 295 639 334 620 369 586 c 0
 416 540 440 466 440 363 c 0
 440 263 410 174 355 104 c 0
 285 15 178 -24 122 -24 c 0
 107 -24 93 -23 78 -21 c 0
 73 -21 72 -17 76 -8 c 0
 78 -2 78 -2 82 -2 c 0
 112 1 205 24 273 98 c 1
 316 147 343 197 360 285 c 1
 321 267 226 236 208 236 c 0
 185 236 154 245 133 256 c 0
 81 284 36 341 36 419 c 0
 36 491 67 550 121 590 c 0
 155 615 204 639 242 639 c 2
211 598 m 2
 210 598 l 2
 185 598 157 584 144 571 c 0
 125 553 104 507 104 459 c 0
 104 405 130 351 165 321 c 0
 193 297 226 288 254 288 c 0
 284 288 332 303 354 318 c 0
 360 322 364 330 365 336 c 0
 369 354 367 417 356 462 c 0
 335 548 286 598 211 598 c 2
EndSplineSet
EndChar

StartChar: degree
Encoding: 176 176 92
Width: 653
Flags: HMW
LayerCount: 2
Fore
SplineSet
554 191 m 2
 85 191 l 2
 83 191 85 230 86 233 c 0
 87 237 94 237 98 237 c 2
 566 237 l 2
 573 237 576 235 575 230 c 0
 572 191 571 191 554 191 c 2
302 191 m 1
 84 191 l 1
 82 211 82 234 83 237 c 1
 302 237 l 1
 303 448 l 2
 303 459 306 462 309 462 c 2
 345 462 l 2
 354 462 355 458 355 446 c 2
 353 237 l 1
 559 237 l 2
 571 237 572 235 572 227 c 2
 572 200 l 2
 572 192 551 191 541 191 c 2
 353 191 l 1
 355 -44 l 2
 355 -49 351 -55 347 -55 c 0
 334 -55 306 -47 303 -44 c 1
 302 191 l 1
EndSplineSet
EndChar

StartChar: plusminus
Encoding: 177 177 93
Width: 677
Flags: HMW
LayerCount: 2
Fore
SplineSet
44 319 m 2
 44 320 l 2
 44 389 62 481 131 557 c 0
 182 612 250 635 305 649 c 0
 347 660 412 668 454 668 c 0
 499 668 554 656 579 645 c 1
 593 641 596 642 621 653 c 0
 624 654 626 653 629 652 c 0
 641 648 643 647 642 645 c 0
 622 607 620 548 625 498 c 0
 625 496 615 494 609 493 c 0
 597 489 596 489 594 495 c 0
 590 513 583 539 577 560 c 1
 570 578 565 588 546 600 c 0
 530 610 479 633 405 633 c 0
 332 633 260 603 204 538 c 1
 168 494 134 420 134 313 c 0
 134 206 194 18 431 18 c 0
 504 18 543 43 574 72 c 1
 601 99 616 124 624 148 c 0
 625 152 627 155 630 152 c 0
 638 146 645 137 644 131 c 0
 633 90 608 31 596 12 c 0
 590 3 585 0 578 -1 c 0
 547 -2 464 -18 416 -18 c 0
 152 -18 44 161 44 319 c 2
44 319 m 2
 44 320 l 2
 44 389 62 481 131 557 c 0
 182 612 250 635 305 649 c 0
 347 660 412 668 454 668 c 0
 499 668 554 656 579 645 c 1
 593 641 596 642 621 653 c 0
 624 654 626 653 629 652 c 0
 641 648 643 647 642 645 c 0
 622 607 620 548 625 498 c 0
 625 496 615 494 609 493 c 0
 597 489 596 489 594 495 c 0
 590 513 583 539 577 560 c 1
 570 578 565 588 546 600 c 0
 530 610 479 633 405 633 c 0
 332 633 260 603 204 538 c 1
 168 494 134 420 134 313 c 0
 134 206 194 18 431 18 c 0
 504 18 543 43 574 72 c 1
 601 99 616 124 624 148 c 0
 625 152 627 155 630 152 c 0
 638 146 645 137 644 131 c 0
 633 90 608 31 596 12 c 0
 590 3 585 0 578 -1 c 0
 547 -2 464 -18 416 -18 c 0
 152 -18 44 161 44 319 c 2
EndSplineSet
EndChar

StartChar: uni00B2
Encoding: 178 178 94
Width: 845
Flags: HMW
LayerCount: 2
Fore
SplineSet
345 63 m 2
 345 62 l 2
 345 -17 264 -74 236 -92 c 0
 187 -125 131 -139 96 -142 c 0
 94 -142 90 -140 88 -138 c 0
 84 -135 77 -128 70 -121 c 0
 68 -119 69 -116 72 -116 c 0
 110 -107 177 -85 210 -58 c 0
 245 -28 277 15 277 73 c 0
 277 134 202 151 149 151 c 0
 116 151 90 150 53 144 c 1
 50 150 48 167 50 174 c 0
 57 198 106 322 156 418 c 0
 161 428 169 426 172 425 c 0
 197 412 262 393 290 389 c 0
 296 388 301 389 304 392 c 0
 328 418 333 424 338 426 c 0
 348 428 357 430 362 430 c 0
 368 430 369 429 367 423 c 0
 364 415 332 358 309 337 c 1
 304 331 301 331 298 331 c 0
 287 332 227 337 171 348 c 0
 168 349 165 347 163 343 c 0
 143 303 129 272 117 238 c 0
 114 230 117 225 119 225 c 0
 182 213 218 202 261 184 c 0
 318 159 345 120 345 63 c 2
207 349 m 2
 521 349 l 2
 574 349 637 348 647 349 c 0
 656 350 658 355 658 387 c 2
 658 472 l 2
 658 541 658 555 657 572 c 0
 656 605 650 609 585 622 c 1
 583 624 588 649 590 651 c 1
 621 651 653 650 684 650 c 0
 696 650 717 651 736 653 c 0
 756 655 776 656 782 656 c 0
 787 656 790 656 792 652 c 0
 796 645 799 631 799 628 c 1
 744 619 735 616 733 584 c 0
 732 562 728 483 728 425 c 2
 728 245 l 2
 728 151 730 120 733 73 c 0
 735 46 739 40 803 34 c 1
 805 30 797 4 791 3 c 1
 750 3 708 3 665 3 c 0
 618 3 602 0 597 0 c 0
 592 0 588 0 588 3 c 2
 588 31 l 1
 637 38 650 44 653 54 c 0
 656 69 658 114 658 202 c 2
 658 284 l 2
 658 292 656 301 653 303 c 0
 647 307 637 308 521 308 c 2
 369 308 l 2
 231 308 215 307 203 305 c 0
 189 303 188 296 188 281 c 0
 188 204 189 151 191 104 c 0
 192 69 194 56 200 50 c 0
 205 45 212 37 260 29 c 0
 268 27 270 26 270 23 c 0
 270 18 271 -4 269 -5 c 1
 242 -5 183 0 136 0 c 0
 85 -1 66 -4 65 -4 c 0
 60 -4 59 -4 57 -3 c 0
 54 0 49 24 51 25 c 0
 105 37 112 45 115 73 c 0
 117 88 119 124 119 229 c 2
 119 412 l 2
 119 510 119 544 117 577 c 0
 115 609 111 616 49 623 c 1
 48 625 50 640 53 648 c 0
 55 651 56 652 59 652 c 0
 95 652 126 650 152 650 c 0
 172 650 186 650 201 651 c 0
 215 651 230 654 250 655 c 1
 252 654 254 625 251 623 c 1
 206 619 197 614 193 590 c 0
 186 555 188 495 188 432 c 0
 188 349 189 349 207 349 c 2
EndSplineSet
EndChar

StartChar: uni00B3
Encoding: 179 179 95
Width: 979
Flags: HMW
LayerCount: 2
Fore
SplineSet
235 17 m 2
 237 -5 l 1
 178 -2 117 -1 48 -2 c 0
 42 -2 39 -1 37 1 c 1
 35 8 34 26 35 28 c 1
 85 35 102 44 107 88 c 0
 114 149 119 264 123 392 c 2
 129 577 l 2
 130 608 126 617 38 620 c 1
 38 625 43 644 46 649 c 0
 48 652 53 653 60 653 c 0
 86 653 133 650 160 650 c 0
 176 650 190 650 206 650 c 1
 207 635 210 620 213 613 c 0
 260 503 398 245 458 148 c 0
 459 147 465 147 466 151 c 1
 539 287 641 486 704 617 c 0
 706 621 708 632 708 650 c 1
 784 649 820 653 869 653 c 1
 876 650 875 627 874 624 c 1
 802 619 788 609 787 579 c 0
 786 548 787 476 788 342 c 0
 788 219 788 156 789 115 c 0
 791 45 797 45 860 35 c 0
 863 34 865 18 865 10 c 0
 865 5 863 2 861 2 c 0
 840 2 819 2 798 2 c 0
 767 2 697 0 651 -4 c 1
 652 16 l 2
 653 27 654 27 659 28 c 0
 703 40 706 44 711 77 c 0
 715 105 716 148 723 562 c 0
 724 568 719 568 719 567 c 0
 704 537 591 299 536 187 c 0
 485 84 467 43 463 32 c 1
 450 8 447 0 441 0 c 0
 438 0 433 3 429 10 c 0
 424 19 402 68 389 95 c 0
 290 307 200 490 163 561 c 1
 162 489 163 340 162 224 c 0
 162 112 165 74 169 56 c 0
 172 41 187 35 217 31 c 0
 233 29 234 27 235 17 c 2
159 384 m 2
 155 102 l 2
 154 42 158 38 167 38 c 0
 175 38 215 42 224 42 c 0
 228 42 231 41 231 18 c 0
 231 0 231 0 220 0 c 0
 187 0 153 0 119 0 c 0
 101 0 43 -5 29 -5 c 0
 24 -5 23 -4 24 2 c 0
 27 25 28 26 33 27 c 0
 89 40 91 43 91 152 c 2
 91 316 l 2
 91 333 87 335 63 337 c 2
 35 339 l 2
 33 339 28 344 29 347 c 2
 36 362 l 1
 41 370 43 371 48 373 c 0
 51 374 76 380 91 381 c 1
 91 443 l 2
 91 523 100 579 156 628 c 0
 179 649 219 680 268 698 c 0
 291 707 307 709 322 709 c 0
 344 709 386 693 395 674 c 0
 396 670 396 666 396 660 c 0
 396 653 382 634 373 626 c 0
 370 624 366 622 360 622 c 0
 349 622 341 629 318 641 c 0
 294 653 280 656 259 656 c 0
 240 656 222 646 205 631 c 0
 174 603 161 561 159 384 c 2
463 0 m 2
 382 0 l 2
 334 0 291 -6 288 -6 c 0
 284 -6 282 -5 281 -1 c 0
 279 7 279 17 279 22 c 0
 279 25 281 26 284 26 c 0
 321 30 329 33 335 60 c 0
 339 77 342 148 342 210 c 0
 342 264 340 295 337 315 c 0
 336 320 329 322 280 332 c 0
 276 333 275 335 279 343 c 0
 285 358 286 360 290 361 c 0
 334 374 361 388 404 408 c 1
 411 410 411 409 411 406 c 0
 407 329 401 188 401 137 c 0
 401 82 401 66 402 55 c 0
 404 41 407 34 421 36 c 0
 449 40 462 40 465 40 c 0
 468 40 474 33 473 30 c 2
 470 5 l 2
 469 0 467 0 463 0 c 2
EndSplineSet
EndChar

StartChar: acute
Encoding: 180 180 96
Width: 388
Flags: HMW
LayerCount: 2
Fore
SplineSet
227 396 m 2
 228 396 l 2
 259 396 292 377 307 361 c 0
 324 343 336 323 344 299 c 1
 352 300 374 306 377 303 c 0
 380 301 380 299 378 295 c 1
 376 286 370 269 361 267 c 0
 284 250 161 227 117 213 c 0
 112 212 110 205 110 195 c 0
 113 83 168 44 236 44 c 0
 282 44 321 63 355 93 c 1
 358 97 370 96 369 94 c 0
 368 73 367 66 362 60 c 1
 321 25 272 6 239 -4 c 0
 226 -8 214 -9 205 -9 c 0
 138 -9 94 33 82 45 c 0
 67 61 37 106 37 172 c 0
 37 260 89 327 138 364 c 0
 161 382 198 396 227 396 c 2
276 291 m 2
 276 292 l 2
 276 313 235 360 190 360 c 0
 183 360 173 356 164 350 c 0
 132 328 117 281 118 241 c 1
 162 254 212 262 265 276 c 0
 271 277 276 280 276 291 c 2
275 291 m 2
 275 292 l 2
 275 313 234 360 190 360 c 0
 183 360 173 356 164 350 c 0
 132 327 117 281 118 241 c 1
 162 254 212 262 264 275 c 0
 271 276 275 280 275 291 c 2
308 -154 m 1
 296 -182 l 1
 280 -198 244 -214 211 -214 c 0
 166 -214 134 -187 134 -142 c 0
 134 -91 192 -34 226 -7 c 1
 216 -10 208 -9 204 -9 c 0
 141 -9 94 33 82 45 c 0
 67 60 37 105 37 172 c 0
 37 260 89 327 138 364 c 0
 161 382 198 396 227 396 c 0
 259 396 292 376 307 360 c 0
 324 343 336 323 344 299 c 1
 352 300 374 306 377 303 c 0
 380 301 380 299 378 295 c 1
 376 286 370 269 361 266 c 1
 284 250 161 226 117 213 c 0
 112 212 110 205 110 195 c 0
 113 83 168 44 235 44 c 0
 281 44 321 63 355 93 c 1
 358 97 370 96 369 94 c 0
 368 73 367 66 362 60 c 1
 329 31 301 16 281 6 c 1
 223 -49 194 -92 194 -116 c 0
 194 -155 220 -162 243 -162 c 0
 265 -162 285 -157 303 -150 c 1
 305 -151 307 -152 308 -154 c 1
EndSplineSet
EndChar

StartChar: uni00B5
Encoding: 181 181 97
Width: 886
Flags: HMW
LayerCount: 2
Fore
SplineSet
220 348 m 2
 219 348 l 2
 206 348 161 338 137 315 c 0
 115 293 104 256 104 216 c 0
 104 199 105 125 156 79 c 1
 191 50 217 48 247 48 c 0
 280 48 316 61 333 73 c 0
 343 79 343 81 344 88 c 0
 349 123 348 259 343 294 c 0
 341 304 341 309 326 318 c 1
 297 338 259 348 220 348 c 2
260 393 m 2
 261 393 l 2
 286 393 323 386 337 381 c 0
 339 380 347 384 347 389 c 0
 348 410 352 494 348 513 c 1
 290 512 235 513 209 514 c 1
 204 519 l 1
 206 526 215 544 221 550 c 1
 276 550 337 550 347 551 c 1
 347 588 347 601 346 614 c 0
 345 628 342 631 298 638 c 0
 293 639 291 642 290 645 c 2
 288 652 l 2
 287 656 287 658 289 659 c 0
 331 676 362 692 400 716 c 0
 402 717 406 717 408 716 c 0
 414 713 415 707 415 699 c 0
 415 667 414 620 413 551 c 1
 479 551 495 552 497 552 c 0
 499 552 500 547 500 544 c 0
 494 515 485 513 481 513 c 0
 463 513 440 513 412 513 c 1
 411 443 409 352 409 288 c 2
 409 156 l 2
 409 124 410 73 415 48 c 0
 418 34 422 32 427 32 c 0
 440 32 465 43 476 48 c 0
 479 49 485 51 486 47 c 0
 489 38 491 25 491 19 c 0
 491 10 485 9 480 8 c 0
 452 -1 374 -20 366 -20 c 0
 360 -20 349 -11 347 0 c 1
 346 14 346 40 346 50 c 1
 277 15 230 -8 196 -8 c 0
 156 -8 114 17 95 36 c 0
 55 74 37 131 37 165 c 0
 37 213 50 271 107 325 c 1
 138 356 203 393 260 393 c 2
139 134 m 2
 140 134 l 2
 141 134 144 129 151 105 c 0
 156 88 158 85 189 74 c 0
 194 72 198 68 198 57 c 0
 198 51 196 48 194 47 c 0
 157 39 155 36 142 -12 c 0
 141 -15 139 -16 131 -16 c 0
 115 -16 112 -6 100 29 c 0
 97 36 91 41 68 49 c 0
 58 53 54 63 54 68 c 0
 54 74 65 81 75 83 c 0
 100 88 106 91 114 122 c 0
 115 129 127 134 139 134 c 2
435 134 m 2
 436 134 l 2
 437 134 439 129 446 105 c 0
 450 88 453 85 484 74 c 0
 490 72 494 68 494 57 c 0
 494 51 492 48 490 47 c 0
 452 39 450 36 438 -12 c 0
 437 -15 435 -16 426 -16 c 0
 411 -16 408 -6 395 29 c 0
 392 36 387 41 363 49 c 0
 354 53 349 63 349 68 c 0
 349 74 361 81 370 83 c 0
 395 88 401 91 410 122 c 0
 411 129 422 134 435 134 c 2
731 134 m 2
 732 134 l 2
 733 134 735 129 742 105 c 0
 746 88 750 85 781 74 c 0
 786 72 790 68 790 57 c 0
 790 51 788 48 786 47 c 0
 749 39 746 36 734 -12 c 0
 733 -15 731 -16 723 -16 c 0
 707 -16 704 -6 691 29 c 0
 688 36 683 41 659 49 c 0
 650 53 646 63 646 68 c 0
 646 74 657 81 666 83 c 0
 691 88 698 91 706 122 c 0
 707 129 718 134 731 134 c 2
EndSplineSet
EndChar

StartChar: paragraph
Encoding: 182 182 98
Width: 480
Flags: HW
LayerCount: 2
Fore
SplineSet
405 280 m 0
 437 249 450 213 450 174 c 0
 450 106 420 57 372 30 c 0
 342 14 263 -199 226 -202 c 1
 134 -202 -144 58 232 297 c 1
 405 280 l 0
273 -22 m 6
 273 -23 l 6
 273 -290.865 129.991 41.0351 99 84 c 1
 143 77 201.938 61.8887 227 48 c 4
 257.924 30.8626 273 11 273 -22 c 6
381 163 m 2
 381 164 l 2
 381 226.532 322.088 255.371 269 281 c 5
 263 189 257 104 252 30 c 5
 333 34 381 90 381 163 c 2
EndSplineSet
EndChar

StartChar: periodcentered
Encoding: 183 183 99
Width: 480
Flags: HW
LayerCount: 2
Fore
SplineSet
432 -16 m 1
 402 -57 l 1
 432 -66 462 -82 462 -121 c 0
 462 -179 368 -224 346 -232 c 1
 329 -214 l 1
 360 -197 403 -160 403 -143 c 0
 403 -121 391 -115 351 -104 c 0
 338 -101 336 -99 336 -96 c 0
 336 -93 337 -88 342 -81 c 0
 346 -75 377 -41 395 -16 c 1
 146 -8 44 165 44 318 c 0
 44 389 62 481 131 557 c 0
 182 612 249 634 304 649 c 0
 347 660 411 668 453 668 c 0
 498 668 554 656 579 645 c 1
 593 641 596 642 621 653 c 0
 624 654 626 653 629 652 c 0
 641 648 643 647 642 645 c 0
 622 607 620 548 625 498 c 0
 625 496 615 494 609 493 c 0
 597 489 596 489 594 495 c 0
 590 513 583 539 577 560 c 1
 570 578 565 587 546 599 c 1
 529 608 478 631 405 631 c 0
 332 631 260 603 204 537 c 0
 168 494 134 420 134 313 c 0
 134 205 194 21 430 21 c 0
 504 21 544 45 574 72 c 0
 602 98 616 124 624 148 c 0
 625 152 627 155 630 153 c 0
 638 146 645 137 644 131 c 0
 633 90 608 31 596 12 c 1
 589 3 585 0 578 0 c 0
 550 -1 478 -14 432 -16 c 1
291 586 m 1
 273 356 l 1
 338 329 376 308 405 280 c 0
 437 249 450 213 450 174 c 0
 450 106 420 57 372 30 c 0
 342 14 287 3 250 0 c 1
 247 -44 245 -74 243 -101 c 0
 243 -107 243 -110 235 -113 c 0
 224 -118 216 -118 210 -118 c 0
 202 -118 201 -109 202 -98 c 0
 203 -71 206 -42 208 0 c 1
 171 1 143 6 109 11 c 0
 102 13 96 12 91 10 c 0
 86 7 79 3 73 -2 c 0
 67 -7 65 -8 63 -8 c 0
 60 -8 57 -7 54 -1 c 0
 51 5 49 18 49 30 c 0
 47 78 39 122 32 164 c 1
 30 168 31 172 35 173 c 0
 40 175 52 176 57 176 c 0
 61 176 64 174 66 164 c 0
 69 149 77 125 91 104 c 0
 115 68 157 39 211 30 c 1
 218 113 226 203 232 297 c 1
 209 307 128 336 89 383 c 0
 72 404 58 442 58 463 c 0
 58 532 88 569 133 592 c 0
 147 599 199 620 254 621 c 1
 256 659 257 688 258 713 c 0
 258 717 257 720 261 722 c 0
 268 727 279 720 289 712 c 1
 297 704 299 697 298 688 c 0
 297 668 295 648 293 620 c 1
 317 620 337 617 348 616 c 1
 362 613 369 613 371 613 c 0
 378 613 386 620 395 630 c 1
 403 631 412 630 413 628 c 1
 411 578 413 536 422 490 c 0
 423 484 422 481 420 478 c 1
 417 476 406 470 398 469 c 0
 396 468 396 469 395 474 c 0
 385 504 380 538 356 558 c 0
 341 570 322 580 291 586 c 1
125 490 m 2
 125 489 l 2
 125 464 136 440 149 426 c 0
 166 406 185 393 238 372 c 1
 242 451 248 530 252 590 c 1
 183 590 125 560 125 490 c 2
381 163 m 2
 381 164 l 2
 381 196 365 219 338 242 c 1
 323 253 298 267 269 281 c 1
 263 189 257 104 252 30 c 1
 333 34 381 90 381 163 c 2
EndSplineSet
EndChar

StartChar: cedilla
Encoding: 184 184 100
Width: 480
Flags: HW
LayerCount: 2
Fore
SplineSet
80 -2 m 1
 66 17 67 55 67 195 c 2
 67 416 l 2
 129 298 l 0
 128 282 126 252 126 169 c 1
 80 -2 l 1
291 246 m 24
 309.095 242.253 287 199 285 199 c 0
 276 198 115 194 62 194 c 0
 62 194 19.0583 208.155 34 248 c 1
 34 248 257.843 252.866 291 246 c 24
EndSplineSet
EndChar

StartChar: uni00B9
Encoding: 185 185 101
Width: 480
Flags: HW
LayerCount: 2
Fore
SplineSet
366 53 m 4
 400 88 419 133 419 201 c 4
 419 246 418.945 296.947 380 337 c 5
 443 357 l 4
 484 314 498 259 498 208 c 4
 498 159 473 81 422 40 c 4
 366 53 l 4
366 249 m 5
 429 250 447 251 464 251 c 4
 468.308 251 463.713 202 453 202 c 4
 433 202 381 200 366 199 c 5
 366 249 l 5
EndSplineSet
EndChar

StartChar: ordmasculine
Encoding: 186 186 102
Width: 979
Flags: HW
LayerCount: 2
Fore
SplineSet
536 187 m 1
 485 84 467 43 463 32 c 1
 450 8 447.5 2.5 441.5 2.5 c 0
 438.5 2.5 433 3 429 10 c 0
 424 19 402 68 389 95 c 0
 536 187 l 1
402 55 m 1
 404 41 407 34 421 36 c 0
 449 40 462 40 465 40 c 0
 468 40 474 33 473 30 c 2
 470 5 l 2
 469 0 467 0 463 0 c 2
 382 0 l 1
 402 55 l 1
EndSplineSet
EndChar

StartChar: guillemotright
Encoding: 187 187 103
Width: 567
Flags: HW
LayerCount: 2
Fore
SplineSet
144 113 m 4
 146 120 162 127 166 127 c 4
 172 127 176 121 177 114 c 5
 183 96 195 79 211 73 c 4
 222 69 225 65 227 52 c 4
 228 48 226 47 219 44 c 4
 190 31 185 26 175 -8 c 4
 173 -12 169 -14 164 -12 c 5
 152 -11 147 -5 141 13 c 5
 144 113 l 4
442 -3 m 4x54
 400 -3 350 0 184 0 c 4x34
 133 0 84 -5 72 -6 c 4
 60 -8 54 -8 51 -8 c 5
 49 -4 42 17 42 23 c 5
 93 29 117 36 126 67 c 4
 130 80 133 120 133 223 c 5
 206 275 l 5
 207 112 208 81 209 63 c 4
 210 51 216 43 227 40 c 4
 244 34 281 32 325 32 c 4
 442 -3 l 4x54
EndSplineSet
EndChar

StartChar: onequarter
Encoding: 188 188 104
Width: 480
Flags: HW
LayerCount: 2
Fore
SplineSet
143 245 m 1
 133 257 113 282 113 309 c 0
 113 354 140 381 185 419 c 1
 143 245 l 1
161 398 m 1
 50 398 l 2
 36.3791 398 154.843 445.44 216 445 c 1
 248 81 l 1
 128 260 l 1
 161 398 l 1
EndSplineSet
EndChar

StartChar: onehalf
Encoding: 189 189 105
Width: 324
Flags: HW
LayerCount: 2
Fore
SplineSet
323 260 m 1
 309 212 l 1
 267 213 l 1
 160 213 l 1
 116 215 l 1
 128 260 l 1
 323 260 l 1
177 213 m 2
 178 213 l 2
 210 213 246 192 268 160 c 1
 290 126 295 83 295 40 c 0
 295 -51 263 -89 247 -104 c 0
 227 -122 196 -146 155 -146 c 0
 120 -146 93 -130 75 -111 c 0
 46 -80 34 -26 34 24 c 0
 34 88 51 154 103 189 c 0
 119 200 147 213 177 213 c 2
159 177 m 2
 158 177 l 2
 150 177 137 173 127 162 c 1
 110 149 92 109 92 41 c 0
 92 -55 125 -105 174 -105 c 0
 189 -105 201 -99 210 -92 c 1
 220 -81 238 -45 238 25 c 0
 238 81 228 135 205 158 c 0
 194 170 181 177 159 177 c 2
EndSplineSet
EndChar

StartChar: threequarters
Encoding: 190 190 106
Width: 772
Flags: HW
LayerCount: 2
Fore
SplineSet
283 699 m 2
 283 698 l 2
 283 695 281 692 274 684 c 0
 216 626 109 474 109 240 c 0
 109 26 191 -103 257 -164 c 1
 264 -172 271 -178 277 -182 c 0
 281 -185 281 -189 277 -198 c 0
 273 -207 267 -214 263 -218 c 0
 260 -220 252 -220 250 -219 c 0
 213 -203 159 -145 114 -47 c 0
 80 29 60 131 60 216 c 0
 60 315 74 417 124 527 c 0
 164 613 218 680 261 718 c 0
 268 723 275 721 277 718 c 0
 281 714 283 706 283 699 c 2
574 641 m 2
 575 641 l 2
 578 641 599 625 607 619 c 1
 493 453 291 141 197 -34 c 1
 195 -40 191 -41 188 -41 c 0
 184 -41 156 -19 155 -12 c 1
 294 211 429 420 559 629 c 0
 565 639 568 641 574 641 c 2
EndSplineSet
EndChar

StartChar: questiondown
Encoding: 191 191 107
Width: 480
Flags: HW
LayerCount: 2
Fore
SplineSet
90 64 m 2
 90 65 l 2
 90 68 94 70 96 71 c 0
 102 74 111 76 121 79 c 0
 133 83 138 89 144 113 c 0
 146 120 162 127 166 127 c 0
 172 127 176 121 177 114 c 1
 183 96 195 79 211 73 c 0
 222 69 225 65 227 52 c 0
 228 48 226 47 219 44 c 0
 190 31 185 26 175 -8 c 0
 173 -12 169 -14 164 -12 c 1
 152 -11 147 -5 141 13 c 1
 133 33 118 38 100 46 c 0
 94 48 90 58 90 64 c 2
150 -19 m 2
 149 -19 l 2
 137 -19 127 -17 118 -10 c 0
 110 -3 107 5 112 22 c 1
 122 49 169 134 217 224 c 1
 282 343 343 446 387 549 c 0
 388 553 389 563 387 565 c 1
 377 568 355 568 250 568 c 0
 125 568 106 565 83 529 c 0
 69 507 57 477 51 460 c 0
 50 458 46 456 43 458 c 0
 22 471 22 473 24 482 c 0
 33 510 71 618 74 625 c 0
 76 630 80 633 85 633 c 0
 88 633 103 629 117 628 c 0
 137 627 203 625 273 625 c 0
 362 625 409 626 450 630 c 0
 454 631 457 629 458 624 c 0
 460 603 458 599 454 593 c 0
 342 378 254 192 212 95 c 0
 194 53 180 9 176 -4 c 1
 175 -14 160 -19 150 -19 c 2
EndSplineSet
EndChar

StartChar: Agrave
Encoding: 192 192 108
Width: 345
Flags: W
HStem: 698 20G
VStem: 203 50<227 279 279 280 162 370>
LayerCount: 2
Fore
SplineSet
253 280 m 2
 253 279 l 2
 253 45 169 -112 86 -210 c 0
 75 -224 70 -226 66 -226 c 0
 58 -226 50 -216 48 -212 c 0
 46 -208 46 -204 48 -201 c 0
 96 -139 121 -94 147 -30 c 0
 187 65 203 178 203 276 c 0
 203 464 130 599 59 662 c 1
 51 671 45 678 45 684 c 0
 45 688 46 698 52 712 c 0
 54 718 60 721 72 713 c 0
 163 656 253 479 253 280 c 2
312 97 m 2xac
 312 96 l 2
 312 70 298 42 265 18 c 0
 235 -3 202 -9 170 -9 c 0xac
 145 -9 100 -2 85 -1 c 1
 69 2 64 3 50 -2 c 0
 49 -2 44 -2 42 0 c 0
 40 3 40 6 41 10 c 0x6c
 46 46 44 82 42 120 c 1
 43 122 44 123 46 124 c 0
 49 126 53 128 68 131 c 1
 76 105 93 71 111 53 c 0
 137 25 161 20 176 20 c 0
 200 20 241 40 241 78 c 0
 241 136 182 158 153 174 c 0
 128 188 55 218 55 283 c 0
 55 314 69 340 99 365 c 1
 127 387 160 394 180 394 c 0xac
 199 394 219 391 243 391 c 0x9c
 253 391 258 392 260 393 c 0
 262 394 264 394 267 392 c 0
 270 390 270 388 270 386 c 0
 271 356 278 322 288 287 c 0
 288 285 282 279 281 279 c 0
 265 279 262 280 253 293 c 1
 239 320 214 363 161 363 c 0
 144 363 117 349 117 311 c 0
 117 262 157 241 201 218 c 1
 225 207 312 175 312 97 c 2xac
EndSplineSet
EndChar

StartChar: Aacute
Encoding: 193 193 109
Width: 829
Flags: HW
LayerCount: 2
Fore
SplineSet
387 671 m 5
 280 411 191 170 108 -61 c 4
 95.7663 -97.7011 75.6243 -77.2994 54 -60 c 5
 144 180 228 409 330 677 c 5
 338.976 703.927 375.443 682.557 387 671 c 5
180 64 m 5
 201.312 0.0653553 326.799 0 131 0 c 4
 96 0 66 -3 49 -3 c 5
 47 6 45 15 42 23 c 5
 180 64 l 5
EndSplineSet
EndChar

StartChar: Acircumflex
Encoding: 194 194 110
Width: 510
Flags: W
HStem: 9 33<199.5 229> 584 32<264 280>
VStem: 67 69<456.5 492> 229 35<-76 9 9 9 -76 43 43 272 376 584 616 693> 359 75<137.5 173.5>
LayerCount: 2
Fore
SplineSet
264 362 m 1
 67 453 l 0
 67 531 122 602 229 614 c 1
 229 693 l 1
 264 693 l 1
 264 362 l 1
129 591 m 1
 248 639 l 0
 248 624 240 614 235 614 c 0
 203 615 182 600 182 574 c 0
 129 591 l 1
EndSplineSet
EndChar

StartChar: Atilde
Encoding: 195 195 111
Width: 756
Flags: W
HStem: 529 41<155.5 158> 733 27<142.5 173 161 173>
VStem: 38 66<631 663> 232 69<612.5 644>
LayerCount: 2
Fore
SplineSet
172 760 m 2
 173 760 l 2
 252 760 301 696 301 610 c 0
 301 518 244 446 154 411 c 0
 120 397 78 392 56 392 c 1
 52 415 l 1
 147 432 210 487 229 557 c 1
 188 538 l 2
 174 532 164 529 152 529 c 0
 83 529 38 576 38 634 c 0
 38 692 86 760 172 760 c 2
162 733 m 2
 161 733 l 2
 124 733 104 695 104 654 c 0
 104 608 132 570 179 570 c 0
 200 570 219 576 230 583 c 1
 232 594 232 606 232 619 c 0
 232 669 218 733 162 733 c 2
193 635 m 2xa9e0
 194 635 l 2
 295 635 338 534 338 453 c 0
 338 373 295 272 193 272 c 0
 92 272 49 373 49 453 c 0
 49 534 92 635 193 635 c 2xa9e0
194 605 m 2
 193 605 l 2
 133 605 122 505 122 453 c 0
 122 402 133 302 194 302 c 0
 257 302 265 404 265 453 c 0
 265 503 257 605 194 605 c 2
EndSplineSet
EndChar

StartChar: Adieresis
Encoding: 196 196 112
Width: 459
Flags: W
HStem: 477 16<125.389 150> 505 21G<123 155.5> 514 59<256.861 345.614> 553 59<189.143 250.478> 587 25<177 188> 620 17<131.765 161.81>
VStem: 90 33<494.799 620> 123 26<517.423 530.756> 173 15<587 600> 358 25<597.319 607.92>
LayerCount: 2
Fore
SplineSet
203 612 m 2xd6c0
 204 612 l 2xd6c0
 220 612 233 607 262 592 c 0
 283 581 299 573 315 573 c 0
 332 573 345 589 358 618 c 1
 383 604 l 1
 360 531 329 514 304 514 c 0xa6c0
 283 514 263 524 238 538 c 0
 221 548 208 553 193 553 c 0
 176 553 162 538 149 505 c 1xd5c0
 123 522 l 1
 145 590 177 612 203 612 c 2xd6c0
188 587 m 1x8ec0
 173 587 l 1
 169 600 167 609 162 613 c 0
 158 617 150 620 138 620 c 2
 123 620 l 1
 123 523 l 2
 123 496 124 494 150 493 c 1
 150 477 l 1
 49.8747 477 90 470.095 90 523 c 2
 90 620 l 1
 161 637 l 1
 168 637 170 638 174 643 c 1
 186 643 l 1
 186 632 187 610 188 587 c 1x8ec0
EndSplineSet
EndChar

StartChar: Aring
Encoding: 197 197 113
Width: 480
Flags: W
HStem: -66 97<182.529 201 249 281> 2 29<213.747 259.527 296 348.246> 472 21G<421 453> 592 31<302 343.298> 668 20G<275.97 310 356.812 390>
VStem: 33 145<170.496 247.296> 218 47<47.0666 82.8228> 429 24<130.069 146.625 476.385 504.111>
LayerCount: 2
Fore
SplineSet
178 245 m 1x7f
 178 86 l 2
 178 40 192 31 234 31 c 0
 306 31 347 74 347 145 c 0
 347 226 293 248 221 248 c 0
 207 248 190 247 178 245 c 1x7f
453 478 m 1
 427 472 l 1
 415 518 400 555 373 571 c 1
 296 31 l 1x7f
 366 35 397 80 429 153 c 1
 453 144 l 1
 445 104 428 53 416 23 c 1
 397 16 338 0 290 0 c 1
 281 -66 l 1
 249 -66 l 1xbf
 260 2 l 1x7f
 241 3 229 7 213 12 c 1
 201 -66 l 1
 169 -66 l 1xbf
 182 22 l 1
 83 65 33 178 33 303 c 0
 33 501 150 612 269 622 c 1
 279 688 l 1
 310 688 l 1
 302 623 l 1
 308 623 l 2
 323 623 333 621 349 619 c 1
 360 688 l 1
 390 688 l 1
 380 614 l 1
 401 608 421 602 438 599 c 1
 444 555 449 514 453 478 c 1
265 34 m 1
 344 585 l 1
 329 591 316 592 296 592 c 1
 218 51 l 1
 233 42 245 37 265 34 c 1
EndSplineSet
EndChar

StartChar: AE
Encoding: 198 198 114
Width: 547
Flags: W
HStem: 0 26<29 85.7795 195.06 246 315 364.177 473.882 524> 109 61<36 122 174 267 319 395> 304 60<80 164 216 310 362 439> 387 23<42 82.2182> 389 59<262.214 371.742> 485 21G<241 281.302> 496 20G<206.658 249 351.658 395>
VStem: 83 39<-64 -32.9487> 102 79<38 170 304 338 371 377.015> 381 79<35.3867 109 170 301.47>
LayerCount: 2
Fore
SplineSet
448 364 m 1xe340
 439 304 l 1
 349 304 l 1
 319 170 l 1
 404 170 l 1
 395 109 l 1
 306 109 l 1
 268 -64 l 1
 230 -64 l 1
 267 109 l 1
 159 109 l 1
 122 -64 l 1
 83 -64 l 1
 122 109 l 1
 25 109 l 1
 36 170 l 1
 136 170 l 1
 164 304 l 1
 71 304 l 1
 80 364 l 1
 178 364 l 1
 211 516 l 1
 249 516 l 1
 216 364 l 1
 323 364 l 1
 356 516 l 1
 395 516 l 1
 362 364 l 1
 448 364 l 1xe340
310 304 m 1
 203 304 l 1
 174 170 l 1
 282 170 l 1
 310 304 l 1
524 0 m 1
 315 0 l 1
 315 26 l 1
 374 32 381 40 381 109 c 2
 381 275 l 2
 381 344 357 389 290 389 c 0xe8c0
 250 389 211 364 181 338 c 1
 181 104 l 2
 181 36 187 32 246 26 c 1
 246 0 l 1
 29 0 l 1
 29 26 l 1
 97 33 102 38 102 104 c 2
 102 310 l 2
 102 374 96 377 42 387 c 1
 42 410 l 1xf0c0
 90 419 137 431 181 451 c 1
 181 371 l 1
 201 386 223 401 248 418 c 0
 276 436 302 448 331 448 c 0xe8c0
 411 448 460 393 460 297 c 2
 460 104 l 2
 460 36 466 32 524 26 c 1
 524 0 l 1
390 657 m 1
 267 485 l 1xe440
 241 498 l 1
 260 540 301 638 308 655 c 1
 317 659 375 668 387 666 c 1
 390 657 l 1
EndSplineSet
EndChar

StartChar: Ccedilla
Encoding: 199 199 115
Width: 529
Flags: W
HStem: 0 22<245 399 452.47 489> 206 35<23 73 169 409> 267 71<255 318 403 455> 302 36<41 76 318 403> 399 21G<442.5 479> 508 33<265.48 401.5> 622 28<238 297.817 423.183 483> 632 27<22.4074 36.4811 689.452 701.593>
VStem: 76 90<138.177 206 241 302> 318 85<41.7423 267 302 609.26> 453 26<403.385 433.196> 467 25<107.816 120.08>
LayerCount: 2
Fore
SplineSet
699 659 m 1xddc0
 709 632 l 1
 665 608 658 580 646 519 c 2
 632 450 l 2
 618 378 599 346 559 315 c 0
 518 283 470 269 403 267 c 1
 403 122 l 2
 403 46 412 33 489 28 c 1
 489 0 l 1
 233 0 l 1
 233 28 l 1
 310 33 318 46 318 122 c 2
 318 267 l 1
 255 269 199 282 155 316 c 0
 116 347 97 383 85 452 c 2
 73 524 l 2
 63 583 62 611 15 632 c 1
 25 659 l 1xedc0
 59 654 103 643 131 609 c 0
 145 591 153 573 161 531 c 2
 172 471 l 2
 194 347 232 308 318 302 c 1
 318 529 l 2
 318 604 310 617 238 622 c 1
 238 650 l 1
 483 650 l 1
 483 622 l 1xdec0
 411 617 403 604 403 529 c 2
 403 302 l 1
 504 307 530 342 552 472 c 2
 562 530 l 2
 569 572 579 591 595 610 c 0
 622 640 666 654 699 659 c 1xddc0
467 128 m 1xdcd0
 492 117 l 1xdcd0
 482 81 464 32 452 11 c 1
 432 4 372 -12 325 -12 c 0
 167 -12 93 89 76 206 c 1
 10 206 l 1
 23 241 l 1
 73 241 l 1
 73 261 73 281 76 302 c 1
 28 302 l 1
 41 338 l 1
 82 338 l 1
 110 462 212 541 343 541 c 0
 398 541 445 524 465 519 c 1
 471 481 474 448 479 405 c 1
 453 399 l 1
 432 464 405 508 328 508 c 0
 244 508 187 438 170 338 c 1xdce0
 455 338 l 1xece0
 441 302 l 1
 166 302 l 1
 164 280 164 263 166 241 c 1
 422 241 l 1
 409 206 l 1
 169 206 l 1
 187 93 245 22 329 22 c 0
 399 22 431 64 467 128 c 1xdcd0
EndSplineSet
EndChar

StartChar: Egrave
Encoding: 200 200 116
Width: 483
Flags: W
HStem: 0 27<36 39.7451 42 113 209 317.037 422.192 503.73 640.612 704> 27 2<42 51.5811 288.988 297> 156 35<34 122 203 349> 297 201G<384 416 417 450> 306 38<203 406.985> 333 290G<43 441> 589 61<206 298> 622 28<38 115.382 441 510.265 634.735 704>
VStem: 122 90<45 306 344 609> 127 76<41 129 522 587> 354 32<-194 -70.8413> 422 28<480 525.488> 530 85<42.9176 609.098>
LayerCount: 2
Fore
SplineSet
704 0 m 1xa0b8
 475 0 l 2
 423 0 412 -16 405 -53 c 0
 398 -87 391 -146 386 -194 c 1
 354 -194 l 1
 350 -144 344 -88 337 -53 c 1
 328 -16 316 0 259 0 c 2
 36 0 l 1xa0b8
 36 29 l 1
 117 34 127 41 127 129 c 2
 127 522 l 2
 127 609 120 617 38 622 c 1
 38 650 l 1x6178
 298 650 l 1x2278
 298 622 l 1
 219 617 212 610 212 522 c 2
 212 109 l 2
 212 45 224 35 286 35 c 2
 444 35 l 2
 518 35 530 39 530 109 c 2
 530 522 l 2
 530 609 524 617 441 622 c 1
 441 650 l 1
 704 650 l 1
 704 622 l 1
 621 617 615 608 615 523 c 2
 615 130 l 2
 615 46 620 34 704 29 c 1x61b8
 704 0 l 1xa0b8
450 481 m 1
 422 477 l 1
 412 519 405 541 391 559 c 0
 375 579 354 589 296 589 c 2
 234 589 l 2
 206 589 203 587 203 560 c 2
 203 344 l 1x2a78
 287 344 354 346 416 353 c 1
 416 297 l 1x3078
 352 304 286 305 203 306 c 1
 203 191 l 1
 349 191 l 1
 349 156 l 1
 203 156 l 1
 203 120 l 2x2878
 203 41 209 33 297 27 c 1
 297 0 l 1
 42 0 l 1
 42 27 l 1
 113 32 122 43 122 120 c 2
 122 156 l 1
 34 156 l 1
 34 191 l 1
 122 191 l 1
 122 500 l 2
 122 578 116 590 43 595 c 1
 43 623 l 1
 441 623 l 1xa4b8
 441 589 446 528 450 481 c 1
EndSplineSet
EndChar

StartChar: Eacute
Encoding: 201 201 117
Width: 565
Flags: W
HStem: -13 32<223.807 388.926> 0 26<34 86.5923 183 251> 202 27<320 388.211 494.237 533> 347 170G<189 230.5 378.5 421 452 489> 410 26<31 85.2278> 445 32<226.023 390.327> 530 156G<276.5 364>
VStem: 42 137<82 395> 100 79<41 93 344 396> 100 36<131 370> 337 27<508.855 547.037> 405 81<30.7082 190.918> 461 28<328.25 368.082>
LayerCount: 2
Fore
SplineSet
337 550 m 1x6aa0
 364 546 l 1
 360 492 355 421 354 403 c 1
 210 403 l 2
 181 403 179 400 179 372 c 2
 179 93 l 2x6b20
 179 39 183 32 251 26 c 1
 251 0 l 1
 34 0 l 1
 34 26 l 1
 96 32 100 41 100 93 c 2
 100 344 l 2
 100 396 94 403 31 410 c 1
 31 436 l 1
 243 436 l 2
 270 436 293 440 306 465 c 0
 318 488 327 514 337 550 c 1x6aa0
533 229 m 1
 533 202 l 1
 489 194 486 191 486 142 c 2
 486 81 l 2xa670
 486 56 488 32 492 17 c 1
 444 5 378 -13 323 -13 c 0
 156 -13 42 82 42 227 c 0
 42 395 183 477 331 477 c 0
 394 477 451 462 476 454 c 1
 479 430 482 389 489 329 c 1
 461 326 l 1xa728
 443 414 388 445 312 445 c 0
 216 445 136 370 136 240 c 0
 136 131 196 19 328 19 c 0
 363 19 405 28 405 68 c 2
 405 140 l 2xa670
 405 188 401 194 320 202 c 1
 320 229 l 1
 533 229 l 1
421 536 m 1
 395 517 l 1
 362 547 332 577 305 606 c 1
 277 577 247 547 214 517 c 1x3220
 189 536 l 1
 226 586 261 635 292 686 c 1
 319 686 l 1
 349 636 382 586 421 536 c 1
EndSplineSet
EndChar

StartChar: Ecircumflex
Encoding: 202 202 118
Width: 1045
Flags: W
HStem: 0 27<33 85.1599> 0 26<188 248 305 386 457.567 519 568 620.16 730.73 787 1016.93 1061> 349 168G<185 226.5 374.5 417 443 482> 396 40<54 101 180 368 447 561.668> 406 27<820 858.875> 416 26<969.077 1024> 445 32<225.203 366.294> 666 20G<272.5 353.5> 668 44<501.652 608.908>
VStem: 43 137<103 377> 101 79<39 103 445 541.142> 101 36<109 359> 368 79<70.2978 103 436 513.707> 453 29<331.793 382.984> 636 78<35.9668 217 240 642.763>
LayerCount: 2
Fore
SplineSet
468 140 m 1x021e
 496 134 l 1
 488 99 469 34 455 8 c 1
 435 2 360 -13 311 -13 c 0
 129 -13 43 103 43 227 c 0x024e
 43 377 167 477 327 477 c 0
 390 477 442 463 468 455 c 1
 474 416 476 378 482 333 c 1
 453 328 l 1
 433 415 383 445 310 445 c 0
 209 445 137 359 137 239 c 0
 137 109 217 20 314 20 c 0
 386 20 431 60 468 140 c 1x021e
417 536 m 1
 391 517 l 1
 358 547 328 577 301 606 c 1
 273 577 243 547 210 517 c 1
 185 536 l 1
 222 586 257 635 288 686 c 1
 315 686 l 1x210e
 345 636 378 586 417 536 c 1
1061 0 m 1x442e
 929 -1 l 1
 877 51 817 130 762 196 c 0
 749 212 741 217 732 217 c 0
 726 217 720 217 714 215 c 1
 714 105 l 2
 714 38 723 32 787 26 c 1
 787 0 l 1
 568 0 l 1
 568 26 l 1
 627 32 636 38 636 105 c 2
 636 622 l 1
 615 647 581 668 545 668 c 0
 512 668 489 652 476 633 c 0
 460 611 447 564 447 475 c 2
 447 436 l 1
 564 436 l 1
 571 426 566 402 555 396 c 1
 447 396 l 1
 447 103 l 2
 447 38 456 33 519 26 c 1
 519 0 l 1
 305 0 l 1
 305 26 l 1
 359 33 368 38 368 103 c 2
 368 396 l 1
 180 396 l 1x50ae
 180 103 l 2
 180 39 188 33 248 26 c 1
 248 0 l 1x50ce
 33 0 l 1
 33 27 l 1
 92 33 101 39 101 103 c 2x802e
 101 396 l 1
 30 396 l 1
 27 405 l 1
 54 436 l 1
 101 436 l 1x901e
 101 445 l 2
 101 469 106 495 114 520 c 0
 123 546 142 591 195 634 c 0
 234 665 275 683 325 687 c 1
 382 685 418 660 435 639 c 1
 478 684 523 706 573 712 c 1
 599 711 628 703 647 690 c 1
 665 694 691 703 710 712 c 1
 714 707 l 1
 714 240 l 1
 745 247 763 260 778 275 c 0
 799 295 832 336 849 362 c 0
 869 392 864 402 820 406 c 1
 820 433 l 1x0aae
 1024 442 l 1
 1024 416 l 1
 959 406 934 392 898 358 c 1
 873 333 855 313 811 262 c 1
 834 227 932 113 967 80 c 1
 1002 45 1023 29 1061 26 c 1
 1061 0 l 1x442e
368 436 m 1
 368 453 l 2
 368 501 376 544 399 587 c 1
 381 614 343 645 290 645 c 0
 250 645 226 623 210 598 c 1
 193 574 180 530 180 458 c 2
 180 436 l 1
 368 436 l 1
EndSplineSet
EndChar

StartChar: Edieresis
Encoding: 203 203 119
Width: 499
Flags: W
HStem: 0 26<14 39.7478 41 106 173 237 237.392 260 526.064 580> 215 38<193 429> 329 36<41 112 193 429 510 579> 406 27<269 309.801> 416 26<405 474> 437 27<39 84.7545 205.469 261 523.25 580> 653 24<17 71.2278> 692 20G<144.5 164>
VStem: 86 107<39 215 253 329 365 431> 86 78<39 106 214 214 329 365 372 644.934> 112 52<39 214 240 329 365 430> 429 81<36.1446 215 253 329 365 411.598> 429 45<416 430>
LayerCount: 2
Fore
SplineSet
580 0 m 1xe790
 359 0 l 1
 359 27 l 1
 423 33 429 38 429 108 c 2
 429 215 l 1
 193 215 l 1
 193 108 l 2xe790
 193 37 199 32 260 27 c 1
 260 0 l 1
 41 0 l 1
 41 27 l 1
 106 33 112 37 112 108 c 2
 112 329 l 1
 41 329 l 1
 41 365 l 1
 112 365 l 1
 112 368 112 370 112 372 c 0xe720
 111 430 101 431 39 437 c 1
 39 464 l 1
 261 464 l 1
 261 437 l 1
 205 431 194 431 193 372 c 0
 193 370 193 368 193 365 c 1
 429 365 l 1
 429 368 429 370 429 372 c 0
 428 430 417 432 361 437 c 1
 361 464 l 1
 580 464 l 1
 580 438 l 1
 521 431 511 430 510 372 c 0
 510 370 510 368 510 365 c 1
 579 365 l 1
 579 329 l 1
 510 329 l 1
 510 108 l 2
 510 37 516 33 580 27 c 1
 580 0 l 1xe790
429 253 m 1
 429 329 l 1
 193 329 l 1
 193 253 l 1
 429 253 l 1
527 -55 m 1
 518 -77 l 1
 497 -76 474 -73 449 -65 c 0
 420 -55 392 -39 363 -3 c 0
 318 51 256 141 216 195 c 0
 203 213 191 217 183 217 c 0
 177 217 170 216 164 214 c 1
 164 106 l 2xeb48
 164 39 173 32 237 26 c 1
 237 0 l 1
 14 0 l 1
 14 26 l 1
 77 32 86 39 86 106 c 2xeb80
 86 575 l 2xeb40
 86 644 80 648 17 653 c 1
 17 677 l 1
 64 682 125 699 164 712 c 1
 164 240 l 1
 194 246 214 259 230 275 c 0
 249 295 280 334 299 362 c 0
 319 393 316 402 269 406 c 1
 269 433 l 1xf320
 474 442 l 1
 474 416 l 1xeb28
 405 405 385 397 348 359 c 1
 322 334 306 314 263 264 c 1
 294 215 394 81 435 35 c 1
 481 -19 506 -41 527 -55 c 1
EndSplineSet
EndChar

StartChar: Igrave
Encoding: 204 204 120
Width: 1045
Flags: W
HStem: 0 27<33 85.1599> 0 26<188 248 305 386 457.567 519 568 620.16 730.73 787 1016.93 1061> 349 168G<185 226.5 374.5 417 443 482> 396 40<54 101 180 368 447 561.668> 406 27<820 858.875> 416 26<969.077 1024> 445 32<225.203 366.294> 666 20G<272.5 353.5> 668 44<501.652 608.908>
VStem: 43 137<103 377> 101 79<39 103 445 541.142> 101 36<109 359> 368 79<70.2978 103 436 513.707> 453 29<331.793 382.984> 636 78<35.9668 217 240 642.763>
LayerCount: 2
Fore
SplineSet
468 140 m 1x021e
 496 134 l 1
 488 99 469 34 455 8 c 1
 435 2 360 -13 311 -13 c 0
 129 -13 43 103 43 227 c 0x024e
 43 377 167 477 327 477 c 0
 390 477 442 463 468 455 c 1
 474 416 476 378 482 333 c 1
 453 328 l 1
 433 415 383 445 310 445 c 0
 209 445 137 359 137 239 c 0
 137 109 217 20 314 20 c 0
 386 20 431 60 468 140 c 1x021e
417 536 m 1
 391 517 l 1
 358 547 328 577 301 606 c 1
 273 577 243 547 210 517 c 1
 185 536 l 1
 222 586 257 635 288 686 c 1
 315 686 l 1x210e
 345 636 378 586 417 536 c 1
1061 0 m 1x442e
 929 -1 l 1
 877 51 817 130 762 196 c 0
 749 212 741 217 732 217 c 0
 726 217 720 217 714 215 c 1
 714 105 l 2
 714 38 723 32 787 26 c 1
 787 0 l 1
 568 0 l 1
 568 26 l 1
 627 32 636 38 636 105 c 2
 636 622 l 1
 615 647 581 668 545 668 c 0
 512 668 489 652 476 633 c 0
 460 611 447 564 447 475 c 2
 447 436 l 1
 564 436 l 1
 571 426 566 402 555 396 c 1
 447 396 l 1
 447 103 l 2
 447 38 456 33 519 26 c 1
 519 0 l 1
 305 0 l 1
 305 26 l 1
 359 33 368 38 368 103 c 2
 368 396 l 1
 180 396 l 1x50ae
 180 103 l 2
 180 39 188 33 248 26 c 1
 248 0 l 1x50ce
 33 0 l 1
 33 27 l 1
 92 33 101 39 101 103 c 2x802e
 101 396 l 1
 30 396 l 1
 27 405 l 1
 54 436 l 1
 101 436 l 1x901e
 101 445 l 2
 101 469 106 495 114 520 c 0
 123 546 142 591 195 634 c 0
 234 665 275 683 325 687 c 1
 382 685 418 660 435 639 c 1
 478 684 523 706 573 712 c 1
 599 711 628 703 647 690 c 1
 665 694 691 703 710 712 c 1
 714 707 l 1
 714 240 l 1
 745 247 763 260 778 275 c 0
 799 295 832 336 849 362 c 0
 869 392 864 402 820 406 c 1
 820 433 l 1x0aae
 1024 442 l 1
 1024 416 l 1
 959 406 934 392 898 358 c 1
 873 333 855 313 811 262 c 1
 834 227 932 113 967 80 c 1
 1002 45 1023 29 1061 26 c 1
 1061 0 l 1x442e
368 436 m 1
 368 453 l 2
 368 501 376 544 399 587 c 1
 381 614 343 645 290 645 c 0
 250 645 226 623 210 598 c 1
 193 574 180 530 180 458 c 2
 180 436 l 1
 368 436 l 1
EndSplineSet
EndChar

StartChar: Iacute
Encoding: 205 205 121
Width: 499
Flags: W
HStem: 0 26<14 39.7478 41 106 173 237 237.392 260 526.064 580> 215 38<193 429> 329 36<41 112 193 429 510 579> 406 27<269 309.801> 416 26<405 474> 437 27<39 84.7545 205.469 261 523.25 580> 653 24<17 71.2278> 692 20G<144.5 164>
VStem: 86 107<39 215 253 329 365 431> 86 78<39 106 214 214 329 365 372 644.934> 112 52<39 214 240 329 365 430> 429 81<36.1446 215 253 329 365 411.598> 429 45<416 430>
LayerCount: 2
Fore
SplineSet
580 0 m 1xe790
 359 0 l 1
 359 27 l 1
 423 33 429 38 429 108 c 2
 429 215 l 1
 193 215 l 1
 193 108 l 2xe790
 193 37 199 32 260 27 c 1
 260 0 l 1
 41 0 l 1
 41 27 l 1
 106 33 112 37 112 108 c 2
 112 329 l 1
 41 329 l 1
 41 365 l 1
 112 365 l 1
 112 368 112 370 112 372 c 0xe720
 111 430 101 431 39 437 c 1
 39 464 l 1
 261 464 l 1
 261 437 l 1
 205 431 194 431 193 372 c 0
 193 370 193 368 193 365 c 1
 429 365 l 1
 429 368 429 370 429 372 c 0
 428 430 417 432 361 437 c 1
 361 464 l 1
 580 464 l 1
 580 438 l 1
 521 431 511 430 510 372 c 0
 510 370 510 368 510 365 c 1
 579 365 l 1
 579 329 l 1
 510 329 l 1
 510 108 l 2
 510 37 516 33 580 27 c 1
 580 0 l 1xe790
429 253 m 1
 429 329 l 1
 193 329 l 1
 193 253 l 1
 429 253 l 1
527 -55 m 1
 518 -77 l 1
 497 -76 474 -73 449 -65 c 0
 420 -55 392 -39 363 -3 c 0
 318 51 256 141 216 195 c 0
 203 213 191 217 183 217 c 0
 177 217 170 216 164 214 c 1
 164 106 l 2xeb48
 164 39 173 32 237 26 c 1
 237 0 l 1
 14 0 l 1
 14 26 l 1
 77 32 86 39 86 106 c 2xeb80
 86 575 l 2xeb40
 86 644 80 648 17 653 c 1
 17 677 l 1
 64 682 125 699 164 712 c 1
 164 240 l 1
 194 246 214 259 230 275 c 0
 249 295 280 334 299 362 c 0
 319 393 316 402 269 406 c 1
 269 433 l 1xf320
 474 442 l 1
 474 416 l 1xeb28
 405 405 385 397 348 359 c 1
 322 334 306 314 263 264 c 1
 294 215 394 81 435 35 c 1
 481 -19 506 -41 527 -55 c 1
EndSplineSet
EndChar

StartChar: Icircumflex
Encoding: 206 206 122
Width: 547
Flags: HW
LayerCount: 2
Fore
SplineSet
178 364 m 1
 211 516 l 1
 249 516 l 1
 216 364 l 1
 178 364 l 1
390 657 m 1
 267 485 l 1xe440
 241 498 l 1
 260 540 301 638 308 655 c 1
 390 657 l 1
EndSplineSet
EndChar

StartChar: Idieresis
Encoding: 207 207 123
Width: 400
Flags: HW
HStem: 0 50<80 420 80 500> 650 50<80 420 80 80>
VStem: 0 50<95 605 95 700> 450 50<95 605 605 605>
LayerCount: 2
Fore
SplineSet
0 0 m 1
 0 700 l 1
 500 700 l 1
 500 0 l 1
 0 0 l 1
250 395 m 1
 420 650 l 1
 80 650 l 1
 250 395 l 1
280 350 m 1
 450 95 l 1
 450 605 l 1
 280 350 l 1
80 50 m 1
 420 50 l 1
 250 305 l 1
 80 50 l 1
50 605 m 1
 50 95 l 1
 220 350 l 1
 50 605 l 1
200 650 m 2x60
 201 650 l 2x60
 229 650 251 627 251 598 c 0
 251 571 229 547 200 547 c 0xa0
 174 547 150 571 150 598 c 0
 150 627 174 650 200 650 c 2x60
EndSplineSet
EndChar

StartChar: Eth
Encoding: 208 208 124
Width: 496
Flags: HW
HStem: -32 43<123 677 123 694 81 677> 579 69<123 750 133 677>
VStem: 81 42<11 579 11 599 11 599> 677 73<21 579 579 579>
LayerCount: 2
Fore
SplineSet
133 648 m 1
 750 648 l 1
 750 21 l 1
 694 -32 l 1
 81 -32 l 1
 81 599 l 1
 133 648 l 1
123 579 m 1
 123 11 l 1
 677 11 l 1
 677 579 l 1
 123 579 l 1
510 0 m 1xba
 378 -1 l 1
 331 49 268 129 212 196 c 0
 198 212 190 218 181 217 c 1
 177 218 171 217 165 215 c 1
 165 104 l 2
 165 38 173 32 237 26 c 1
 237 0 l 1
 14 0 l 1
 14 26 l 1
 81 32 87 40 87 104 c 2
 87 576 l 2
 87 642 82 648 21 653 c 1
 21 677 l 1
 69 682 126 699 165 712 c 1
 165 241 l 1
 195 247 213 259 228 275 c 0
 250 297 280 336 299 363 c 0
 320 394 317 402 269 407 c 1xda
 269 433 l 1
 473 442 l 1
 473 417 l 1
 404 406 383 396 344 359 c 1
 319 333 302 314 258 264 c 1
 283 229 381 114 414 81 c 0
 451 44 472 28 510 26 c 1
 510 0 l 1xba
264 -32 m 2xbc
 265 -32 l 2
 302 -32 338 -64 338 -111 c 0
 338 -171 289 -203 232 -217 c 1
 223 -189 l 1
 260 -174 283 -157 283 -133 c 0
 283 -112 263 -99 238 -93 c 1
 230 -90 223 -83 223 -69 c 0
 223 -45 244 -32 264 -32 c 2xbc
EndSplineSet
EndChar

StartChar: Ntilde
Encoding: 209 209 125
Width: 400
Flags: W
HStem: 0 34<311 359.5 311 489> 622 28<40 301 40 301>
VStem: 128 85<126 131 131 526>
LayerCount: 2
Fore
SplineSet
495 163 m 1
 525 157 l 1
 519 126 498 31 489 0 c 1
 36 0 l 1
 36 28 l 1
 120 34 128 41 128 126 c 2
 128 526 l 2
 128 611 122 616 40 622 c 1
 40 650 l 1
 301 650 l 1
 301 622 l 1
 222 616 213 611 213 526 c 2
 213 131 l 2
 213 77 218 57 236 47 c 0
 256 36 290 34 332 34 c 0
 387 34 421 39 444 65 c 0
 462 85 480 117 495 163 c 1
246 0 m 1xc0
 224 -28 l 2xc0
 211 -45 214 -53 229 -69 c 1
 257 -96 268 -115 268 -138 c 0
 268 -183 224 -217 154 -239 c 1
 142 -212 l 1
 183 -194 201 -173 201 -152 c 0xa0
 201 -136 190 -125 179 -114 c 0
 155 -90 149 -76 169 -50 c 1
 205 0 l 1
 246 0 l 1xc0
EndSplineSet
EndChar

StartChar: Ograve
Encoding: 210 210 126
Width: 418
Flags: W
HStem: 1 140<284 332 284 332> 176 180<309 310 310 334> 242 49<44 184 44 184 435 575> 392 140<284 332 284 332> 416 20G<104 104> 417 20G<514 514> 451 20G<139 139 480 480>
VStem: 44 140<242 291 242 291> 221 177<241 291> 284 48<1 141 1 141 392 532> 435 140<242 291 242 291>
LayerCount: 2
Fore
SplineSet
44 291 m 1
 184 291 l 1
 184 242 l 1
 44 242 l 1
 44 291 l 1
374 291 m 1
 45 291 l 1
 45 345 l 1
 374 345 l 1
 374 291 l 1
EndSplineSet
EndChar

StartChar: Oacute
Encoding: 211 211 127
Width: 541
Flags: HWO
HStem: -2 21G<71 117 71 71> 0 21G<429 509 429 429> 476 24<10 102 10 191>
VStem: 10 499<0 500>
LayerCount: 2
Back
SplineSet
-106.099609375 307.004882812 m 29
 621.900390625 307.004882812 l 29
EndSplineSet
Fore
SplineSet
256 203 m 1
 102 476 l 1
 191 500 l 1
 191 500 314 307 313 307 c 2
 439 500 l 1
 485 500 l 1
 332 278 l 1
 256 203 l 1
256 203 m 1
 102 476 l 1
 191 500 l 1
 191 500 314 307 313 307 c 2
 439 500 l 1
 485 500 l 1
 332 278 l 1
 256 203 l 1
EndSplineSet
EndChar
